<?xml version="1.0" encoding="utf-8"?>
<!-- Generator: Adobe Illustrator 19.0.0, SVG Export Plug-In . SVG Version: 6.00 Build 0)  -->
<svg version="1.1" id="Layer_1" xmlns="http://www.w3.org/2000/svg" xmlns:xlink="http://www.w3.org/1999/xlink" x="0px" y="0px"
	 viewBox="22 112.8 1964.6 1057.2" style="enable-background:new 22 112.8 1964.6 1057.2;" xml:space="preserve">
<style type="text/css">
	.st0{opacity:0.56;}
	.st1{fill:#0277C5;}
	.st2{fill:#6B72FF;}
</style>
<g transform="translate(22.045 -1937)">
	<g transform="matrix(1, -0.017, 0.017, 1, -735.627, 2257.479)" class="st0">
		<polygon class="st1" points="722.9,98.9 2699.5,99.4 2699.6,599.4 723.1,598.9 		"/>
		<path class="st2" d="M723.1,598.9c0,0,129.8,142.8,627.9,113.6c498.2-29.2,595.8,12.2,709.8,74.1c109.9,59.7,265.7,106.4,640,79.1
			l-1.3-614.3L727.4,333.5L723.1,598.9z"/>
		<path class="st1" d="M2699.5,99.4c0,0-127.1-116.3-625.3-87.1S1478.4,0,1364.3-61.9c-109.9-59.7-265.7-106.4-640-79.1l1.3,614.3
			l1972.1-82.1L2699.5,99.4z"/>
	</g>
	<g transform="translate(-730.727 2209.926)">
		<rect x="725.1" y="98.8" class="st2" width="1976.6" height="500"/>
		<path class="st2" d="M725.1,598.8c0,0,129.7,142.7,627.9,113.4s595.8,12.1,709.8,74c109.9,59.7,265.6,106.4,640,78.9l-1.1-614.3
			L729.6,333.4L725.1,598.8z"/>
		<path class="st2" d="M2701.7,98.8c0,0-127.1-116.3-625.3-87s-595.8-12.1-709.8-74c-109.9-59.7-265.6-106.4-640-78.9l1.1,614.3
			l1972.1-82.6L2701.7,98.8z"/>
	</g>
</g>
</svg>
