<svg xmlns="http://www.w3.org/2000/svg" xmlns:xlink="http://www.w3.org/1999/xlink" width="93.41" height="93.41" viewBox="0 0 93.41 93.41"><defs><clipPath id="a"><ellipse cx="23.352" cy="22.681" rx="23.352" ry="22.681" fill="none"/></clipPath></defs><path d="M12.3,58.055a1.46,1.46,0,0,1,0-2.919c2.919,0,6.524-4.875,7.546-6.582a1.46,1.46,0,0,1,1.211-.715h8.757a4.524,4.524,0,0,0,3.517-1.2,3.561,3.561,0,0,0,.861-1.722H19.6c-3.386,0-5.969,4.977-6,5.035a1.46,1.46,0,0,1-1.3.8H6.46a1.46,1.46,0,0,1,0-2.919h4.992C12.531,46.057,15.436,42,19.6,42H35.65a1.46,1.46,0,0,1,1.46,1.284,7.3,7.3,0,0,1-1.576,5.283,7.3,7.3,0,0,1-5.721,2.189H21.858C20.529,52.786,16.676,58.055,12.3,58.055Z" transform="translate(2.298 19.3)" fill="#6b72ff"/><path d="M32.11,0H2.919A2.919,2.919,0,0,0,0,2.919V20.433a2.919,2.919,0,0,0,2.919,2.919H32.11a2.919,2.919,0,0,0,2.919-2.919V2.919A2.919,2.919,0,0,0,32.11,0Zm0,20.433H2.919V2.919H32.11Z" fill="#d0e7fc"/><path d="M30.97,1.5,17.061,10.213,1.59,1.31" transform="translate(0.731 0.602)" fill="none" stroke="#d0e7fc" stroke-linecap="round" stroke-linejoin="round" stroke-width="2"/><line y1="7.035" x2="9.866" transform="translate(3.211 13.398)" fill="none" stroke="#d0e7fc" stroke-linecap="round" stroke-miterlimit="10" stroke-width="2"/><line x1="11.413" y1="7.035" transform="translate(21.907 13.398)" fill="none" stroke="#d0e7fc" stroke-linecap="round" stroke-miterlimit="10" stroke-width="2"/><path d="M11.676,20H2.919A2.919,2.919,0,0,0,0,22.919V34.6a2.919,2.919,0,0,0,2.919,2.919h8.757A2.919,2.919,0,0,0,14.6,34.6V22.919A2.919,2.919,0,0,0,11.676,20Zm0,14.6H2.919V22.919h8.757Z" transform="translate(0 9.19)" fill="#6b72ff"/><path d="M36.6,44.749,22,42.166V18.813L36.6,16.23Z" transform="translate(10.11 7.458)" fill="#66daac"/><path d="M76.291,48.26a22.637,22.637,0,0,1-5.006,7.21,23.352,23.352,0,0,1-7.414,4.86,24.038,24.038,0,0,1-18.186,0,23.44,23.44,0,0,1-7.429-4.86,22.637,22.637,0,0,1-5.006-7.21" transform="translate(15.279 22.177)" fill="none" stroke="#d0e7fc" stroke-linecap="round" stroke-linejoin="round" stroke-width="2"/><g transform="translate(46.705 38.926)" clip-path="url(#a)"><path d="M71.029,42.757V77.786A2.919,2.919,0,0,1,68.11,80.7H38.919A2.919,2.919,0,0,1,36,77.786V36.919A2.919,2.919,0,0,1,38.919,34H62.271" transform="translate(-30.162 -23.302)" fill="#e1f1ff"/><path d="M62.757,42.757H56.919A2.919,2.919,0,0,1,54,39.838V34Z" transform="translate(-21.89 -23.302)" fill="#d0e7fc"/><rect width="17.514" height="2.919" transform="translate(8.757 19.455)" fill="#d0e7fc"/><rect width="17.514" height="2.919" transform="translate(14.595 25.294)" fill="#d0e7fc"/><rect width="17.514" height="2.919" transform="translate(14.595 31.132)" fill="#d0e7fc"/></g><path d="M76.291,48.26a22.637,22.637,0,0,1-5.006,7.21,23.352,23.352,0,0,1-7.414,4.86,24.038,24.038,0,0,1-18.186,0,23.44,23.44,0,0,1-7.429-4.86,22.637,22.637,0,0,1-5.006-7.21" transform="translate(15.279 22.177)" fill="none" stroke="#d0e7fc" stroke-linecap="round" stroke-linejoin="round" stroke-width="2"/><path d="M52.9,54.77l6.7,1.97,6.7,1.97-6.393,3.08-3.08,6.393-1.97-6.7Z" transform="translate(24.309 25.168)" fill="#9ed6fd"/><rect width="2.335" height="7.006" transform="matrix(0.708, -0.706, 0.706, 0.708, 83.5, 87.694)" fill="#9ed6fd"/><path d="M50.19,12C38.514,17.838,21,20.757,21,20.757V44.11s17.514,0,29.19,5.838Z" transform="translate(9.65 5.514)" fill="none" stroke="#6b72ff" stroke-linecap="round" stroke-linejoin="round" stroke-width="2"/><ellipse cx="7.298" cy="21.893" rx="7.298" ry="21.893" transform="translate(55.462 14.595)" fill="#cde3fa"/><rect width="17.514" height="23.352" transform="translate(11.676 26.271)" fill="#cde3fa"/><path d="M26.433,16H8.919A2.919,2.919,0,0,0,6,18.919V42.271A2.919,2.919,0,0,0,8.919,45.19H26.433a2.919,2.919,0,0,0,2.919-2.919V18.919A2.919,2.919,0,0,0,26.433,16Zm0,26.271H8.919V18.919H26.433Z" transform="translate(2.757 7.352)" fill="#6b72ff"/><path d="M38,22c3.9,0,5.838,1.97,5.838,4.379S41.9,30.757,38,30.757Z" transform="translate(17.462 10.11)" fill="#87cfff"/><path d="M38.336,20H38v2.919h.336a4.379,4.379,0,0,1,0,8.757H38V34.6h.336a7.3,7.3,0,1,0,0-14.6Z" transform="translate(17.462 9.19)" fill="none" stroke="#6b72ff" stroke-width="1"/><ellipse cx="7.298" cy="21.893" rx="7.298" ry="21.893" transform="translate(55.462 14.595)" fill="none" stroke="#6b72ff" stroke-miterlimit="10" stroke-width="2"/><rect width="5.838" height="11.676" transform="translate(2.919 32.11)" fill="#66daac"/><path d="M57.83,47.326c9.21-9.691,10.012-24.972,0-32.8" transform="translate(26.574 6.677)" fill="none" stroke="#6b72ff" stroke-linecap="round" stroke-miterlimit="10" stroke-width="2"/><path d="M57.5,36.546a12.654,12.654,0,0,0,0-17.616" transform="translate(26.423 8.699)" fill="none" stroke="#6b72ff" stroke-linecap="round" stroke-miterlimit="10" stroke-width="2"/><rect width="2.919" height="23.352" transform="translate(2.919 67.138)" fill="#cde3fa"/><path d="M19.161,36.66,39.332,55.765,24.985,56.787,11.09,43.213Z" transform="translate(5.096 16.846)" fill="#66daac" stroke="#6b72ff" stroke-linejoin="round" stroke-width="2"/><path d="M0,44V73.19H8.757V44ZM5.838,70.271H2.919V46.919H5.838Z" transform="translate(0 20.219)" fill="#6b72ff"/><path d="M33.136,54.757H24.379a4.379,4.379,0,0,1,0-8.757h8.757a4.379,4.379,0,0,1,0,8.757Zm-8.757-5.838a1.46,1.46,0,0,0,0,2.919h8.757a1.46,1.46,0,0,0,0-2.919Z" transform="translate(9.19 21.138)" fill="#6b72ff"/><path d="M23.46,48a1.46,1.46,0,0,0,0,2.919h8.757a1.46,1.46,0,0,0,0-2.919Z" transform="translate(10.11 22.057)" fill="#fff"/><path d="M23.46,52a1.46,1.46,0,1,0,0,2.919h8.757a1.46,1.46,0,1,0,0-2.919Z" transform="translate(10.11 23.895)" fill="#fff"/><path d="M23.46,56a1.46,1.46,0,0,0,0,2.919h8.757a1.46,1.46,0,0,0,0-2.919Z" transform="translate(10.11 25.733)" fill="#fff"/><path d="M33.136,58.757H24.379a4.379,4.379,0,1,1,0-8.757h8.757a4.379,4.379,0,0,1,0,8.757Zm-8.757-5.838a1.46,1.46,0,1,0,0,2.919h8.757a1.46,1.46,0,1,0,0-2.919Z" transform="translate(9.19 22.976)" fill="#6b72ff"/><path d="M33.136,62.757H24.379a4.379,4.379,0,0,1,0-8.757h8.757a4.379,4.379,0,0,1,0,8.757Zm-8.757-5.838a1.46,1.46,0,0,0,0,2.919h8.757a1.46,1.46,0,0,0,0-2.919Z" transform="translate(9.19 24.814)" fill="#6b72ff"/><path d="M30.217,66.757H24.379a4.379,4.379,0,1,1,0-8.757h5.838a4.379,4.379,0,1,1,0,8.757Zm-5.838-5.838a1.46,1.46,0,1,0,0,2.919h5.838a1.46,1.46,0,1,0,0-2.919Z" transform="translate(9.19 26.652)" fill="#6b72ff"/><path d="M32.271,65.838h-14.6a6.685,6.685,0,0,1-3.517-1.46,6.874,6.874,0,0,0-3.488-1.46H6V60h4.67a9.341,9.341,0,0,1,5.079,1.941,5.575,5.575,0,0,0,1.927.978h14.6Z" transform="translate(2.757 27.571)" fill="#6b72ff"/><path d="M27.684,35H9.63l2.248,9.429S19.161,35,27.684,35Z" transform="translate(4.425 16.083)" fill="none" stroke="#6b72ff" stroke-linejoin="round" stroke-width="2"/></svg>