<svg xmlns="http://www.w3.org/2000/svg" width="32.573" height="32.573" viewBox="0 0 32.573 32.573"><g transform="translate(0 0)"><g transform="translate(0 0)"><g transform="translate(0 0)"><path d="M32.188.386a1.316,1.316,0,0,0-1.861,0L.386,30.327a1.316,1.316,0,1,0,1.861,1.861L32.188,2.246A1.316,1.316,0,0,0,32.188.386Z" transform="translate(0 0)" fill="#6d7379"/></g></g><g transform="translate(0 0)"><g transform="translate(0 0)"><path d="M32.188,30.328,2.246.387A1.316,1.316,0,0,0,.386,2.247L30.327,32.189a1.316,1.316,0,1,0,1.861-1.861Z" transform="translate(0 -0.001)" fill="#6d7379"/></g></g></g></svg>