<svg xmlns="http://www.w3.org/2000/svg" width="84.531" height="84.533" viewBox="0 0 84.531 84.533"><g transform="translate(-0.5 -0.5)"><g transform="translate(7.595 47.163)"><path d="M17.26,57.672a5.474,5.474,0,0,1-5.351-4.236L4.631,22.5H72.2L64.92,53.434a5.476,5.476,0,0,1-5.351,4.238Z" transform="translate(-3.244 -21.401)" fill="#dff0fe"/><path d="M71.568,24.2,64.606,53.782a4.376,4.376,0,0,1-4.278,3.39H18.016a4.38,4.38,0,0,1-4.28-3.39L6.776,24.2H71.568M74.344,22H4l7.6,32.286a6.6,6.6,0,0,0,6.419,5.085H60.328a6.6,6.6,0,0,0,6.419-5.085L74.344,22Z" transform="translate(-4 -22)" fill="#6b72ff" stroke="#6b72ff" stroke-width="1"/></g><rect width="2.198" height="24.181" transform="translate(49.361 49.361)" fill="#6b72ff"/><path d="M31.2,23.5h2.2L31.2,47.681H29Z" transform="translate(33.551 26.961)" fill="#6b72ff"/><path d="M11.2,23.5H9l2.2,24.181h2.2Z" transform="translate(9.586 26.961)" fill="#6b72ff"/><rect width="2.198" height="24.181" transform="translate(33.974 49.361)" fill="#6b72ff"/><g transform="translate(1 1)"><path d="M30.233,58.654C11.168,58.654,1.5,53.847,1.5,44.366c0-7.683,5.208-12.09,14.289-12.09h1.1v-1.1c0-8.413,5.876-14.289,14.289-14.289h1.1v-1.1c0-4.262,1.635-6.148,3.366-8.149,1.413-1.631,2.869-3.313,3.172-6.14h1.156c7.511,0,18.685,4.392,18.685,16.487v1.1h1.1c10.917,0,23.082,8.254,23.082,20.1a18.184,18.184,0,0,1-7.551,14.757c-2.719-2.636-5.205-3.821-7.971-3.821-2.728,0-5.458,1.145-8.918,2.6A65.568,65.568,0,0,1,30.233,58.654Z" transform="translate(-0.401 -0.401)" fill="#d1eefd"/><path d="M40.568,3.2c7.07,0,17.586,4.1,17.586,15.388v2.2h2.2c10.4,0,21.982,7.8,21.982,19a17.062,17.062,0,0,1-6.384,13.321c-2.677-2.4-5.21-3.482-8.041-3.482-2.948,0-5.77,1.183-9.343,2.682a64.569,64.569,0,0,1-27.735,5.85C12.5,58.154,3.2,53.716,3.2,44.965c0-9.562,8.263-10.991,13.189-10.991h2.2v-2.2c0-7.89,5.3-13.189,13.189-13.189h2.2v-2.2c0-3.851,1.435-5.509,3.1-7.43A12.353,12.353,0,0,0,40.353,3.2h.215m0-2.2h-2.2c0,6.656-6.595,6.641-6.595,15.388-8.8,0-15.388,6.034-15.388,15.388C7.067,31.775,1,36.335,1,44.965c0,10.7,11.141,15.388,29.832,15.388,22.211,0,30.1-8.531,37.078-8.531,2.519,0,4.917,1.11,7.828,4.135a19.467,19.467,0,0,0,8.793-16.173c0-12.774-12.917-21.2-24.179-21.2C60.353,5.8,48.557,1,40.568,1Z" transform="translate(-1 -1)" fill="#6b72ff" stroke="#6b72ff" stroke-width="1"/></g><path d="M21.689,27.689A13.189,13.189,0,0,1,8.5,14.5" transform="translate(8.987 16.176)" fill="none" stroke="#4788c7" stroke-linecap="round" stroke-miterlimit="10" stroke-width="1"/><path d="M11.1,34h0a1.1,1.1,0,0,1,1.1,1.1h0a1.1,1.1,0,0,1-1.1,1.1h0A1.1,1.1,0,0,1,10,35.1h0A1.1,1.1,0,0,1,11.1,34Z" transform="translate(10.784 39.542)" fill="#4788c7"/><path d="M30.1,34h0a1.1,1.1,0,0,1,1.1,1.1h0a1.1,1.1,0,0,1-1.1,1.1h0A1.1,1.1,0,0,1,29,35.1h0A1.1,1.1,0,0,1,30.1,34Z" transform="translate(33.551 39.542)" fill="#4788c7"/><path d="M16,34h2.2v1.1a1.1,1.1,0,0,1-1.1,1.1h0A1.1,1.1,0,0,1,16,35.1Z" transform="translate(17.974 39.542)" fill="#4788c7"/><path d="M23,34h2.2v1.1a1.1,1.1,0,0,1-1.1,1.1h0A1.1,1.1,0,0,1,23,35.1Z" transform="translate(26.361 39.542)" fill="#4788c7"/></g></svg>