<svg xmlns="http://www.w3.org/2000/svg" width="98.674" height="83.873" viewBox="0 0 98.674 83.873"><g transform="translate(0 -3)"><g transform="translate(54.27 52.337)"><path d="M22.5,43.235v-3.89A15.653,15.653,0,0,1,37.918,23.5h11.1A15.653,15.653,0,0,1,64.436,39.345v3.89Z" transform="translate(-21.267 -22.267)" fill="#d1eefd"/><path d="M49.752,25.467A14.418,14.418,0,0,1,63.936,40.078v2.657H24.467V40.078A14.418,14.418,0,0,1,38.651,25.467h11.1m0-2.467h-11.1A16.869,16.869,0,0,0,22,40.078V45.2H66.4V40.078A16.869,16.869,0,0,0,49.752,23Z" transform="translate(-22 -23)" fill="#6b72ff"/></g><g transform="translate(69.533 47.25)"><path d="M34.393,31.46a6.763,6.763,0,0,1-5.706-3.175V21.437H40.1v6.848A6.725,6.725,0,0,1,34.393,31.46Z" transform="translate(-27.454 -20.206)" fill="#fff"/><path d="M39.6,23.4v5.237a5.473,5.473,0,0,1-8.942,0V23.4H39.6m2.467-2.464H28.187V29.35a7.941,7.941,0,0,0,13.876,0V20.938Z" transform="translate(-28.187 -20.938)" fill="#6b72ff"/></g><g transform="translate(64.138 36.586)"><g transform="translate(1.233 1.233)"><path d="M46.41,22.167a2.418,2.418,0,0,1-2.289-2.526,2.42,2.42,0,0,1,2.289-2.526c2.292,0,2.292.646,2.292,1.273C48.7,20.048,47.416,22.167,46.41,22.167Zm-17.618,0c-1.006,0-2.292-2.119-2.292-3.779,0-.627,0-1.273,2.292-1.273a2.418,2.418,0,0,1,2.289,2.526A2.42,2.42,0,0,1,28.792,22.167Z" transform="translate(-26.5 -17.115)" fill="#dff0fe"/></g><path d="M47.143,19.082a5.135,5.135,0,0,1,1.056.084,3.772,3.772,0,0,1-1.15,2.5,1.237,1.237,0,0,1-.965-1.288,1.212,1.212,0,0,1,1.058-1.293m-17.618,0a1.211,1.211,0,0,1,1.058,1.293,1.239,1.239,0,0,1-.965,1.288,3.766,3.766,0,0,1-1.15-2.5,5.1,5.1,0,0,1,1.056-.084m17.618-2.467a3.648,3.648,0,0,0-3.525,3.759,3.648,3.648,0,0,0,3.525,3.759c1.946,0,3.525-2.936,3.525-5.013s-1.579-2.506-3.525-2.506Zm-17.618,0c-1.946,0-3.525.432-3.525,2.506s1.579,5.013,3.525,5.013a3.648,3.648,0,0,0,3.525-3.759,3.651,3.651,0,0,0-3.525-3.759Z" transform="translate(-26 -16.615)" fill="#6b72ff"/></g><g transform="translate(66.225 25.771)"><g transform="translate(1.233 1.233)"><path d="M36.36,37.883a2.9,2.9,0,0,1-1.848-.681l-.207-.17-.259-.069a9.006,9.006,0,0,1-6.7-8.671V16.379a3.653,3.653,0,0,1,3.648-3.648H41.723a3.653,3.653,0,0,1,3.648,3.648v11.91a9.006,9.006,0,0,1-6.7,8.671l-.259.069-.207.17A2.87,2.87,0,0,1,36.36,37.883Z" transform="translate(-27.346 -12.731)" fill="#fff"/></g><g transform="translate(0 0)"><path d="M42.456,14.7a2.42,2.42,0,0,1,2.417,2.417v11.91A7.769,7.769,0,0,1,39.089,36.5l-.518.138-.414.34a1.614,1.614,0,0,1-2.126,0l-.414-.34L35.1,36.5a7.771,7.771,0,0,1-5.785-7.479V17.113A2.42,2.42,0,0,1,31.73,14.7H42.456m0-2.464H31.73a4.884,4.884,0,0,0-4.884,4.884v11.91a10.219,10.219,0,0,0,7.615,9.862,4.082,4.082,0,0,0,5.264,0,10.219,10.219,0,0,0,7.615-9.862V17.113a4.882,4.882,0,0,0-4.884-4.882Z" transform="translate(-26.846 -12.231)" fill="#6b72ff"/></g></g><g transform="translate(64.138 20.268)"><path d="M28.693,28.427C27.82,26.5,26.5,23.212,26.5,20.932c0-6.848,4.808-10.432,9.559-10.432,5.138,0,6.335,2.44,6.384,2.543l.284.609.678.116c1.241.168,5.3,1.159,5.3,6.791,0,1.539-1.2,5.005-2.158,7.475v-.015a10.35,10.35,0,0,0-3.027-7.489l-1.029-.908-.794,1.12A9.546,9.546,0,0,1,34.031,24.1C31.547,24.1,29.014,24.635,28.693,28.427Z" transform="translate(-25.267 -9.267)" fill="#d1eefd"/><g transform="translate(0 0)"><path d="M36.792,12.467c4.2,0,5.225,1.759,5.235,1.759h0l.385,1.285,1.559.212c1.273.175,4.231,1.066,4.231,5.57a11.837,11.837,0,0,1-.6,2.82,10.883,10.883,0,0,0-2.531-3.774l-2.028-1.747-1.6,2.146A8.4,8.4,0,0,1,34.762,23.6c-1.125,0-3.829,0-5.407,2.087a13.6,13.6,0,0,1-.888-4.023c0-6.036,4.189-9.2,8.326-9.2m0-2.467C31.314,10,26,14.243,26,21.663c0,3.735,3.084,9.631,3.084,9.631h1.542V30c0-3.343,1.475-3.937,4.139-3.937a10.81,10.81,0,0,0,8.671-3.878,9.121,9.121,0,0,1,2.607,6.564V31.3h1.542s3.084-7.238,3.084-10c0-5.659-3.759-7.657-6.364-8.012,0,0-1.362-3.281-7.512-3.281Z" transform="translate(-26 -10)" fill="#6b72ff"/></g></g><g transform="translate(0 52.337)"><path d="M.5,43.235v-3.89A15.653,15.653,0,0,1,15.918,23.5h11.1A15.653,15.653,0,0,1,42.436,39.345v3.89Z" transform="translate(0.733 -22.267)" fill="#d1eefd"/><path d="M27.752,25.467A14.418,14.418,0,0,1,41.936,40.078v2.657H2.467V40.078A14.418,14.418,0,0,1,16.651,25.467h11.1m0-2.467h-11.1A16.869,16.869,0,0,0,0,40.078V45.2H44.4V40.078A16.869,16.869,0,0,0,27.752,23Z" transform="translate(0 -23)" fill="#6b72ff"/></g><g transform="translate(15.262 47.25)"><path d="M12.393,31.46a6.763,6.763,0,0,1-5.706-3.175V21.437H18.1v6.848A6.725,6.725,0,0,1,12.393,31.46Z" transform="translate(-5.454 -20.206)" fill="#fff"/><path d="M17.6,23.4v5.237a5.473,5.473,0,0,1-8.942,0V23.4H17.6m2.467-2.464H6.187V29.35a7.942,7.942,0,0,0,13.876,0V20.938Z" transform="translate(-6.187 -20.938)" fill="#6b72ff"/></g><g transform="translate(9.867 36.586)"><g transform="translate(1.233 1.233)"><path d="M24.41,22.167a2.418,2.418,0,0,1-2.289-2.526,2.42,2.42,0,0,1,2.289-2.526c2.292,0,2.292.646,2.292,1.273C26.7,20.048,25.416,22.167,24.41,22.167Zm-17.618,0c-1.006,0-2.292-2.119-2.292-3.779,0-.627,0-1.273,2.292-1.273a2.418,2.418,0,0,1,2.289,2.526A2.42,2.42,0,0,1,6.792,22.167Z" transform="translate(-4.5 -17.115)" fill="#dff0fe"/></g><path d="M25.143,19.082a5.135,5.135,0,0,1,1.056.084,3.772,3.772,0,0,1-1.15,2.5,1.239,1.239,0,0,1-.965-1.288,1.212,1.212,0,0,1,1.058-1.293m-17.618,0a1.211,1.211,0,0,1,1.058,1.293,1.239,1.239,0,0,1-.965,1.288,3.773,3.773,0,0,1-1.152-2.5,5.146,5.146,0,0,1,1.058-.084m17.618-2.467a3.648,3.648,0,0,0-3.525,3.759,3.648,3.648,0,0,0,3.525,3.759c1.946,0,3.525-2.936,3.525-5.013s-1.579-2.506-3.525-2.506Zm-17.618,0C5.579,16.615,4,17.047,4,19.121s1.579,5.013,3.525,5.013a3.648,3.648,0,0,0,3.525-3.759,3.651,3.651,0,0,0-3.525-3.759Z" transform="translate(-4 -16.615)" fill="#6b72ff"/></g><g transform="translate(11.954 25.771)"><g transform="translate(1.233 1.233)"><path d="M14.36,37.883a2.9,2.9,0,0,1-1.848-.681l-.207-.17-.259-.069a9.006,9.006,0,0,1-6.7-8.671V16.379a3.653,3.653,0,0,1,3.648-3.648H19.723a3.653,3.653,0,0,1,3.648,3.648v11.91a9.006,9.006,0,0,1-6.7,8.671l-.259.069-.207.17A2.87,2.87,0,0,1,14.36,37.883Z" transform="translate(-5.346 -12.731)" fill="#fff"/></g><g transform="translate(0 0)"><path d="M20.456,14.7a2.42,2.42,0,0,1,2.418,2.417v11.91A7.769,7.769,0,0,1,17.089,36.5l-.518.138-.414.34a1.614,1.614,0,0,1-2.126,0l-.414-.34L13.1,36.5a7.768,7.768,0,0,1-5.785-7.479V17.113A2.42,2.42,0,0,1,9.73,14.7H20.456m0-2.464H9.73a4.884,4.884,0,0,0-4.884,4.884v11.91a10.219,10.219,0,0,0,7.615,9.862,4.082,4.082,0,0,0,5.264,0,10.219,10.219,0,0,0,7.615-9.862V17.113a4.882,4.882,0,0,0-4.884-4.882Z" transform="translate(-4.846 -12.231)" fill="#6b72ff"/></g></g><g transform="translate(9.867 20.268)"><path d="M6.693,28.427C5.82,26.5,4.5,23.209,4.5,20.932,4.5,14.084,9.308,10.5,14.059,10.5c5.138,0,6.335,2.44,6.384,2.543l.284.609.678.116c1.241.168,5.3,1.159,5.3,6.791,0,1.539-1.2,5.005-2.158,7.475v-.015a10.35,10.35,0,0,0-3.027-7.489l-1.029-.908-.794,1.12A9.546,9.546,0,0,1,12.031,24.1C9.547,24.1,7.014,24.635,6.693,28.427Z" transform="translate(-3.267 -9.267)" fill="#d1eefd"/><g transform="translate(0 0)"><path d="M14.792,12.467c4.2,0,5.225,1.759,5.235,1.759h0l.385,1.285,1.559.212c1.273.175,4.231,1.066,4.231,5.57a11.837,11.837,0,0,1-.6,2.82,10.883,10.883,0,0,0-2.531-3.774l-2.028-1.747-1.6,2.146A8.4,8.4,0,0,1,12.762,23.6c-1.125,0-3.829,0-5.407,2.087a13.6,13.6,0,0,1-.888-4.023c0-6.036,4.189-9.2,8.326-9.2m0-2.467C9.314,10,4,14.243,4,21.663c0,3.735,3.084,9.631,3.084,9.631H8.625V30c0-3.343,1.475-3.937,4.139-3.937a10.81,10.81,0,0,0,8.671-3.878,9.121,9.121,0,0,1,2.607,6.564V31.3h1.542s3.084-7.238,3.084-10c0-5.659-3.759-7.657-6.364-8.012,0,0-1.362-3.281-7.512-3.281Z" transform="translate(-4 -10)" fill="#6b72ff"/></g></g><g transform="translate(17.268 54.804)"><path d="M7.5,54.1V47.935C7.5,35.014,17.735,24.5,30.318,24.5H46.353c12.583,0,22.818,10.514,22.818,23.435V54.1Z" transform="translate(-6.267 -23.267)" fill="#d1eefd"/><path d="M47.086,26.467c11.9,0,21.585,9.959,21.585,22.2V53.6H9.467V48.668c0-12.243,9.682-22.2,21.585-22.2H47.086m0-2.467H31.052C17.768,24,7,35.044,7,48.668v7.4H71.138v-7.4C71.138,35.044,60.37,24,47.086,24Z" transform="translate(-7 -24)" fill="#6b72ff"/></g><g transform="translate(39.314 45.092)"><path d="M25.226,36.135a10.35,10.35,0,0,1-8.789-4.981V20.562H34.013v10.6A10.258,10.258,0,0,1,25.226,36.135Z" transform="translate(-15.204 -19.331)" fill="#fff"/><path d="M33.513,22.53v9.009a9.012,9.012,0,0,1-15.109,0V22.53H33.513m2.467-2.467H15.937V32.212a11.472,11.472,0,0,0,20.043,0V20.063Z" transform="translate(-15.937 -20.063)" fill="#6b72ff"/></g><g transform="translate(30.835 30.135)"><g transform="translate(1.233 1.231)"><path d="M43.483,23.311A4.245,4.245,0,0,1,39.43,18.9,4.245,4.245,0,0,1,43.483,14.5c3.745,0,4.053,1.194,4.053,2.526C47.536,19.655,45.493,23.311,43.483,23.311Zm-26.43,0c-2.01,0-4.053-3.656-4.053-6.283,0-1.332.308-2.526,4.053-2.526a4.245,4.245,0,0,1,4.053,4.406A4.243,4.243,0,0,1,17.053,23.311Z" transform="translate(-13 -14.499)" fill="#b6dcfe"/></g><path d="M44.216,16.467c2.82,0,2.82.57,2.82,1.293,0,2.376-1.84,5.052-2.82,5.052a3.016,3.016,0,0,1-2.82-3.172,3.016,3.016,0,0,1,2.82-3.172m-26.43,0a3.016,3.016,0,0,1,2.82,3.172,3.016,3.016,0,0,1-2.82,3.172c-.979,0-2.82-2.677-2.82-5.052,0-.723,0-1.293,2.82-1.293M44.216,14a5.471,5.471,0,0,0-5.286,5.639,5.471,5.471,0,0,0,5.286,5.639c2.921,0,5.286-4.4,5.286-7.519S47.137,14,44.216,14Zm-26.43,0c-2.918,0-5.286.644-5.286,3.759s2.366,7.519,5.286,7.519a5.47,5.47,0,0,0,5.286-5.639A5.471,5.471,0,0,0,17.786,14Z" transform="translate(-12.5 -14)" fill="#6b72ff"/></g><g transform="translate(34.538 14.513)"><g transform="translate(1.231 1.231)"><path d="M28.068,45.593a4.708,4.708,0,0,1-2.958-1.058l-.2-.163-.254-.067A13.551,13.551,0,0,1,14.5,31.191v-17.2a5.829,5.829,0,0,1,5.819-5.822H35.813a5.827,5.827,0,0,1,5.819,5.822v17.2A13.556,13.556,0,0,1,31.482,44.308l-.254.067-.2.163A4.708,4.708,0,0,1,28.068,45.593Z" transform="translate(-14.5 -8.166)" fill="#fff"/></g><path d="M36.548,10.134a4.592,4.592,0,0,1,4.586,4.588v17.2a12.323,12.323,0,0,1-9.228,11.922l-.506.131-.409.326a3.427,3.427,0,0,1-4.376,0l-.409-.326-.506-.131a12.322,12.322,0,0,1-9.233-11.922V14.72a4.593,4.593,0,0,1,4.586-4.588h15.5m0-2.464H21.054A7.053,7.053,0,0,0,14,14.722v17.2a14.8,14.8,0,0,0,11.076,14.31,5.891,5.891,0,0,0,7.45,0A14.8,14.8,0,0,0,43.6,31.923V14.72a7.053,7.053,0,0,0-7.053-7.053Z" transform="translate(-14.001 -7.667)" fill="#6b72ff"/></g><g transform="translate(29.602 3)"><path d="M44.57,35.108V28.324A15.75,15.75,0,0,0,39.98,16.9l-1.024-.9-.8,1.11c-.165.232-4.189,5.691-12.867,5.691-4.717,0-7.857,1.283-7.857,7.534V35.11h-.471C15.874,32.9,12.5,25.655,12.5,20.933,12.5,9.487,20.568,3.5,28.536,3.5c8.782,0,10.8,4.317,10.886,4.5l.279.627.688.109c1.522.207,9.115,1.744,9.115,11.6,0,3.182-3.014,11.13-4.522,14.771Z" transform="translate(-11.268 -2.267)" fill="#d1eefd"/><path d="M29.268,5.467c7.854,0,9.695,3.631,9.742,3.727l.543,1.3,1.4.192C42.843,10.951,49,12.46,49,21.07c0,1.8-1.154,5.595-2.467,9.236V29.057a17.068,17.068,0,0,0-5.008-12.351l-2.06-1.818L37.882,17.13c-.037.052-3.75,5.166-11.861,5.166-4.231,0-9.088,1-9.088,8.767v.069c-1.251-3.093-2.467-6.823-2.467-9.465,0-10.637,7.445-16.2,14.8-16.2m0-2.467C20.5,3,12,9.791,12,21.662c0,5.975,4.934,15.41,4.934,15.41H19.4V31.058c0-5.348,2.361-6.3,6.621-6.3,9.48,0,13.874-6.207,13.874-6.207a14.6,14.6,0,0,1,4.174,10.506v8.017h2.467s4.934-11.582,4.934-16c0-9.053-6.014-12.253-10.181-12.823,0,0-2.181-5.247-12.021-5.247Z" transform="translate(-12 -3)" fill="#6b72ff"/></g></g></svg>