<svg xmlns="http://www.w3.org/2000/svg" width="845.923" height="602.237" viewBox="0 0 845.923 602.237"><g transform="translate(-959.59 -199.983)"><g transform="translate(1470.728 733.01)"><g transform="translate(-58.32 -48.417)"><g transform="translate(-402.426 37.193)"><path d="M-437.133-276.475c0,10.3,130.707,18.656,291.956,18.656,161.228,0,291.935-8.357,291.935-18.656S16.051-295.136-145.177-295.136C-306.426-295.136-437.133-286.779-437.133-276.475Z" transform="translate(437.133 295.136)" fill="#cdccff"/></g><path d="M-277.322-271.841c0,6.448-33.182,11.676-74.113,11.676s-74.113-5.228-74.113-11.676,33.182-11.674,74.113-11.674S-277.322-278.286-277.322-271.841Z" transform="translate(53.048 350.727)" fill="#cdccff"/><ellipse cx="124.352" cy="9.237" rx="124.352" ry="9.237" transform="translate(144.401 72.087)" fill="#cdccff"/><g transform="translate(-395.564 -127.28)"><path d="M-422.923-337.44l-4.775,66.876H-363.9l-4.395-67Z" transform="translate(445.211 392.432)" fill="#d7d7ff"/><g transform="translate(34.943 58.963)"><g transform="translate(0 0.049)"><path d="M-420.95-334.1v0a2.044,2.044,0,0,1,2.186-1.855h0a2.047,2.047,0,0,1,2.193,1.847,2.045,2.045,0,0,1-2.185,1.855h0A2.045,2.045,0,0,1-420.95-334.1Zm2.186-1.152a1.355,1.355,0,0,0-1.48,1.15,1.351,1.351,0,0,0,1.483,1.142h.005a1.349,1.349,0,0,0,1.478-1.147,1.351,1.351,0,0,0-1.483-1.144Zm-1.842,1.15h0Z" transform="translate(420.95 335.961)" fill="#eae6ff"/></g><g transform="translate(21.748)"><path d="M-412.531-334.125h0a1.679,1.679,0,0,1,.512-1.2,2.348,2.348,0,0,1,1.669-.659h.01a2.043,2.043,0,0,1,2.185,1.845,1.712,1.712,0,0,1-.664,1.333,2.4,2.4,0,0,1-1.519.524h0A2.045,2.045,0,0,1-412.531-334.125Zm2.183-1.147a1.64,1.64,0,0,0-1.17.449.966.966,0,0,0-.307.695h0a1.35,1.35,0,0,0,1.483,1.142h0a1.691,1.691,0,0,0,1.075-.362,1.023,1.023,0,0,0,.406-.785,1.352,1.352,0,0,0-1.483-1.139Z" transform="translate(412.531 335.98)" fill="#eae6ff"/></g><path d="M-409.382-321.328c.2,0,.408,0,.62-.01,4-.134,7.044-1.421,9.057-3.826,3.332-3.981,2.578-9.532,2.545-9.767a.7.7,0,0,0-.8-.6.7.7,0,0,0-.6.8c.008.052.695,5.177-2.237,8.667-1.744,2.079-4.441,3.193-8.013,3.312-3.462.1-6.04-.8-7.758-2.7-3.115-3.469-2.348-9.168-2.34-9.225a.707.707,0,0,0-.6-.8.713.713,0,0,0-.8.6c-.036.261-.871,6.4,2.684,10.364C-415.721-322.4-412.952-321.328-409.382-321.328Z" transform="translate(421.794 336.68)" fill="#eae6ff"/></g><path d="M-409.562-330.182l-7.624,49.722,69.261-.163-7.013-49.688Z" transform="translate(461.853 403.919)" fill="#bdc6f9"/><path d="M-415.555-297.762A14.052,14.052,0,0,0-429.6-283.714a14.053,14.053,0,0,0,14.048,14.05,14.051,14.051,0,0,0,14.048-14.05A14.051,14.051,0,0,0-415.555-297.762Zm0,20.57a6.516,6.516,0,0,1-6.52-6.523,6.533,6.533,0,0,1,6.52-6.52,6.54,6.54,0,0,1,6.551,6.52A6.522,6.522,0,0,1-415.555-277.192Z" transform="translate(442.193 455.451)" fill="#8784ef"/><path d="M-416.449-297.762A14.05,14.05,0,0,0-430.5-283.714a14.051,14.051,0,0,0,14.048,14.05,14.051,14.051,0,0,0,14.048-14.05A14.05,14.05,0,0,0-416.449-297.762Zm0,20.57a6.516,6.516,0,0,1-6.52-6.523,6.533,6.533,0,0,1,6.52-6.52,6.542,6.542,0,0,1,6.551,6.52A6.524,6.524,0,0,1-416.449-277.192Z" transform="translate(440.778 455.451)" fill="#9aa3f4"/><path d="M-384.83-297.762a14.05,14.05,0,0,0-14.048,14.048,14.051,14.051,0,0,0,14.048,14.05,14.053,14.053,0,0,0,14.048-14.05A14.052,14.052,0,0,0-384.83-297.762Zm0,20.57a6.518,6.518,0,0,1-6.523-6.523,6.536,6.536,0,0,1,6.523-6.52,6.539,6.539,0,0,1,6.549,6.52A6.522,6.522,0,0,1-384.83-277.192Z" transform="translate(490.839 455.451)" fill="#8784ef"/><path d="M-385.723-297.762a14.053,14.053,0,0,0-14.05,14.048,14.053,14.053,0,0,0,14.05,14.05,14.053,14.053,0,0,0,14.048-14.05A14.052,14.052,0,0,0-385.723-297.762Zm0,20.57a6.516,6.516,0,0,1-6.523-6.523,6.534,6.534,0,0,1,6.523-6.52,6.539,6.539,0,0,1,6.549,6.52A6.522,6.522,0,0,1-385.723-277.192Z" transform="translate(489.422 455.451)" fill="#9aa3f4"/><path d="M-304.2-358.805h-42.21a12.859,12.859,0,0,0-10.914,6.06l-25.512,40.965" transform="translate(516.234 358.805)" fill="none" stroke="#9aa3f4" stroke-miterlimit="10" stroke-width="1.5"/><path d="M-414.488-261.606h94.322a10.226,10.226,0,0,0,10.1-8.607l9.759-60.882a10.226,10.226,0,0,0-10.1-11.847H-424.25a10.226,10.226,0,0,0-10.1,11.847l9.759,60.882A10.226,10.226,0,0,0-414.488-261.606Z" transform="translate(434.477 383.92)" fill="none" stroke="#9aa3f4" stroke-miterlimit="10" stroke-width="1.5"/><line y2="81.336" transform="translate(67.15 40.979)" fill="none" stroke="#9aa3f4" stroke-miterlimit="10" stroke-width="1.5"/><line x1="124.797" transform="translate(4.751 81.647)" fill="none" stroke="#9aa3f4" stroke-miterlimit="10" stroke-width="1.5"/><line x1="8.072" y2="81.336" transform="translate(96.331 40.979)" fill="none" stroke="#9aa3f4" stroke-miterlimit="10" stroke-width="1.5"/><line x2="7.451" y2="81.336" transform="translate(31.759 40.979)" fill="none" stroke="#9aa3f4" stroke-miterlimit="10" stroke-width="1.5"/><path d="M-315.2-312.888l15.28,22.727a9.308,9.308,0,0,1-7.724,14.5h-124.99" transform="translate(437.388 431.503)" fill="none" stroke="#9aa3f4" stroke-miterlimit="10" stroke-width="1.5"/></g><g transform="translate(-233.203 -309.205)"><rect width="129.39" height="34.807" transform="translate(158.895 311.334)" fill="#4a41a3"/><rect width="448.543" height="322.697" rx="9.387" transform="translate(0.001)" fill="#5851bc"/><rect width="422.121" height="279.969" rx="5.768" transform="translate(12.53 11.766)" fill="#c4c3fc"/><path d="M7.322,0H233.3a7.322,7.322,0,0,1,7.322,7.322V21.943a0,0,0,0,1,0,0H0a0,0,0,0,1,0,0V7.322A7.322,7.322,0,0,1,7.322,0Z" transform="translate(103.28 343.114)" fill="#5851bc"/><g transform="translate(113.336 31.103)" opacity="0.35"><rect width="295.361" height="198.534" rx="5.01" fill="#fff"/></g><g transform="translate(113.337 31.103)" opacity="0.25"><g transform="translate(19.572 30.023)"><g transform="translate(8.497 115.005)"><rect width="12.866" height="32.3" fill="#fca70c"/></g><g transform="translate(37.488 86.651)"><rect width="12.866" height="60.655" fill="#b1affd"/></g><g transform="translate(66.48 92.922)"><rect width="12.866" height="54.383" fill="#fca70c"/></g><g transform="translate(95.472 62.218)"><rect width="12.866" height="85.087" fill="#b1affd"/></g><g transform="translate(37.488 86.651)" opacity="0.15"><rect width="5.905" height="60.655" opacity="0.26"/></g><g transform="translate(8.497 115.005)" opacity="0.15"><rect width="5.905" height="32.3" opacity="0.26"/></g><g transform="translate(95.472 62.218)" opacity="0.62"><rect width="5.905" height="85.087" opacity="0.26"/></g><g transform="translate(66.48 92.922)" opacity="0.15"><rect width="5.905" height="54.383" opacity="0.26"/></g><g transform="translate(0 33.587)"><path d="M-205.029-269.957H-320.174V-392.566h1.757v120.853h113.389Z" transform="translate(320.174 392.566)" fill="#d5dbda"/></g><g transform="translate(10.654 43.953)"><path d="M-314.877-332.627l-1.173-1.307,30.121-27.047,27.9,6.061,30.211-33.633,1.307,1.174L-257.4-352.987l-28.019-6.087Z" transform="translate(316.05 388.553)" fill="#d5dbda"/></g><g transform="translate(94.041 38.984)"><path d="M-275.252-379.365l-8.519-8.169,11-2.943Z" transform="translate(283.77 390.477)" fill="#d5dbda"/></g><g transform="translate(126.049 112.715)"><rect width="8.835" height="8.835" fill="#b1affd"/><g transform="translate(0 15.481)"><rect width="8.835" height="8.836" fill="#fca70c"/></g><g transform="translate(11.27 19.295)"><rect width="28.008" height="5.021" fill="#efefef"/></g><g transform="translate(11.27 3.814)"><rect width="28.008" height="5.021" fill="#efefef"/></g></g><g transform="translate(178.011 112.715)"><rect width="8.836" height="8.835" fill="#b1affd"/><g transform="translate(0 15.481)"><rect width="8.836" height="8.836" fill="#fca70c"/></g><g transform="translate(11.27 19.295)"><rect width="28.008" height="5.021" fill="#efefef"/></g><g transform="translate(11.27 3.814)"><rect width="28.008" height="5.021" fill="#efefef"/></g></g><g transform="translate(224.801 112.715)"><rect width="8.835" height="8.835" fill="#b1affd"/><g transform="translate(0 15.481)"><rect width="8.835" height="8.836" fill="#fca70c"/></g><g transform="translate(11.269 19.295)"><rect width="18.431" height="5.021" fill="#efefef"/></g><g transform="translate(11.269 3.814)"><rect width="18.431" height="5.021" fill="#efefef"/></g></g><g transform="translate(127.703 28.295)"><rect width="126.799" height="2.306" fill="#efefef"/></g><rect width="254.502" height="5.277" fill="#efefef"/><g transform="translate(127.323 35.464)"><rect width="127.179" height="2.305" fill="#efefef"/></g><g transform="translate(127.323 21.125)"><rect width="127.179" height="2.305" fill="#efefef"/></g><g transform="translate(127.323 42.633)"><rect width="127.179" height="2.305" fill="#efefef"/></g><g transform="translate(127.323 49.803)"><rect width="127.179" height="2.305" fill="#efefef"/></g><g transform="translate(127.323 56.971)"><rect width="127.179" height="2.306" fill="#efefef"/></g><g transform="translate(127.323 64.141)"><rect width="127.179" height="2.305" fill="#efefef"/></g><g transform="translate(127.323 71.31)"><rect width="127.179" height="2.305" fill="#efefef"/></g><g transform="translate(127.323 78.479)"><rect width="127.179" height="2.305" fill="#efefef"/></g><g transform="translate(142.893 85.648)"><rect width="111.609" height="2.305" fill="#efefef"/></g></g><path d="M-45.333-417.19H-314.809a12.942,12.942,0,0,0-12.942,12.942v11.327h295.36v-11.327A12.942,12.942,0,0,0-45.333-417.19Z" transform="translate(327.751 417.19)" fill="#7a7ae5"/><path d="M-223.546-410.032a3.732,3.732,0,0,1-3.733,3.73,3.732,3.732,0,0,1-3.73-3.73,3.732,3.732,0,0,1,3.73-3.733A3.733,3.733,0,0,1-223.546-410.032Z" transform="translate(480.917 422.613)" fill="#cfcfff"/><circle cx="3.731" cy="3.731" r="3.731" transform="translate(265.117 8.848)" fill="#cfcfff"/><circle cx="3.731" cy="3.731" r="3.731" transform="translate(280.326 8.848)" fill="#cfcfff"/></g><g transform="translate(34.877 67.286)"><g transform="translate(0 7.732)"><rect width="295.36" height="198.534" rx="5.01" fill="#c4c3fc" opacity="0.55"/></g><g transform="translate(5.992 0.001)"><rect width="295.36" height="198.534" rx="5.01" fill="#fff"/></g><g transform="translate(25.565 30.023)"><g transform="translate(8.497 115.005)"><rect width="12.866" height="32.3" fill="#fca70c"/></g><g transform="translate(37.488 86.651)"><rect width="12.866" height="60.655" fill="#b1affd"/></g><g transform="translate(66.481 92.922)"><rect width="12.866" height="54.383" fill="#fca70c"/></g><g transform="translate(95.472 62.218)"><rect width="12.866" height="85.087" fill="#b1affd"/></g><g transform="translate(37.488 86.651)" opacity="0.15"><rect width="5.905" height="60.655" opacity="0.26"/></g><g transform="translate(8.497 115.005)" opacity="0.15"><rect width="5.905" height="32.3" opacity="0.26"/></g><g transform="translate(95.472 62.218)" opacity="0.62"><rect width="5.905" height="85.087" opacity="0.26"/></g><g transform="translate(66.481 92.922)" opacity="0.15"><rect width="5.905" height="54.383" opacity="0.26"/></g><g transform="translate(0 44.54)"><path d="M-233.081-262.663H-348.227V-374.319h1.757v109.9h113.389Z" transform="translate(348.227 374.319)" fill="#d5dbda"/></g><g transform="translate(10.654 43.953)"><path d="M-342.93-318.62l-1.173-1.307,30.121-27.047,27.9,6.061,30.211-33.633,1.307,1.174-30.894,34.392-28.019-6.087Z" transform="translate(344.103 374.546)" fill="#d5dbda"/></g><g transform="translate(94.041 38.984)"><path d="M-303.3-365.358l-8.519-8.169,11-2.943Z" transform="translate(311.823 376.47)" fill="#d5dbda"/></g><g transform="translate(126.049 112.715)"><rect width="8.836" height="8.835" fill="#b1affd"/><g transform="translate(0 15.481)"><rect width="8.836" height="8.836" fill="#fca70c"/></g><g transform="translate(11.27 19.296)"><rect width="28.008" height="5.021" fill="#efefef"/></g><g transform="translate(11.27 3.814)"><rect width="28.008" height="5.021" fill="#efefef"/></g></g><g transform="translate(178.011 112.715)"><rect width="8.836" height="8.835" fill="#b1affd"/><g transform="translate(0 15.481)"><rect width="8.836" height="8.836" fill="#fca70c"/></g><g transform="translate(11.27 19.296)"><rect width="28.008" height="5.021" fill="#efefef"/></g><g transform="translate(11.27 3.814)"><rect width="28.008" height="5.021" fill="#efefef"/></g></g><g transform="translate(224.801 112.715)"><rect width="8.836" height="8.835" fill="#b1affd"/><g transform="translate(0 15.481)"><rect width="8.836" height="8.836" fill="#fca70c"/></g><g transform="translate(11.27 19.296)"><rect width="18.431" height="5.021" fill="#efefef"/></g><g transform="translate(11.27 3.814)"><rect width="18.431" height="5.021" fill="#efefef"/></g></g><g transform="translate(127.703 28.295)"><rect width="126.798" height="2.306" fill="#efefef"/></g><rect width="254.502" height="5.277" fill="#efefef"/><g transform="translate(127.323 35.464)"><rect width="127.179" height="2.305" fill="#efefef"/></g><g transform="translate(127.323 21.126)"><rect width="127.179" height="2.305" fill="#efefef"/></g><g transform="translate(127.323 42.633)"><rect width="127.179" height="2.305" fill="#efefef"/></g><g transform="translate(127.323 49.803)"><rect width="127.179" height="2.305" fill="#efefef"/></g><g transform="translate(127.323 56.971)"><rect width="127.179" height="2.306" fill="#efefef"/></g><g transform="translate(127.323 64.141)"><rect width="127.179" height="2.305" fill="#efefef"/></g><g transform="translate(127.323 71.31)"><rect width="127.179" height="2.305" fill="#efefef"/></g><g transform="translate(127.323 78.479)"><rect width="127.179" height="2.305" fill="#efefef"/></g><g transform="translate(142.893 85.648)"><rect width="111.609" height="2.305" fill="#efefef"/></g></g><path d="M-73.386-403.183H-342.862A12.942,12.942,0,0,0-355.8-390.241v11.327h295.36v-11.327A12.942,12.942,0,0,0-73.386-403.183Z" transform="translate(361.796 403.183)" fill="#a4a4f7"/><path d="M-251.6-396.025a3.732,3.732,0,0,1-3.73,3.73,3.732,3.732,0,0,1-3.733-3.73,3.733,3.733,0,0,1,3.733-3.733A3.732,3.732,0,0,1-251.6-396.025Z" transform="translate(514.962 408.606)" fill="#cfcfff"/><path d="M-245.711-396.025a3.732,3.732,0,0,1-3.733,3.73,3.732,3.732,0,0,1-3.73-3.73,3.732,3.732,0,0,1,3.73-3.733A3.733,3.733,0,0,1-245.711-396.025Z" transform="translate(524.284 408.606)" fill="#cfcfff"/><path d="M-239.823-396.025a3.732,3.732,0,0,1-3.733,3.73,3.73,3.73,0,0,1-3.73-3.73,3.731,3.731,0,0,1,3.73-3.733A3.733,3.733,0,0,1-239.823-396.025Z" transform="translate(533.607 408.606)" fill="#cfcfff"/></g><path d="M-156.154-429.143H-225.32q.709,33.642,1.144,67.291c.041,3.431,0,6.972-1.253,10.139l-.106,0c-.917-.052-.509.235-.827,1.878a.745.745,0,0,1-.021.072c-2.8,4.567-8.253,7.065-13.567,8.241a1.358,1.358,0,0,0,.083.744,1.7,1.7,0,0,0-.532,2.087c.32.749,4.3,1.764,9.7,1.183a25.832,25.832,0,0,0,5.99-1.661,9.409,9.409,0,0,0,2.206-1.5,7.747,7.747,0,0,0,2.023-.486l.22.2,6.187-2.694s-.674-3.9-1.212-5.939a3.519,3.519,0,0,0-.408-.956,283.755,283.755,0,0,0,12.146-43.161c-1.129,18.217-7.672,55.23-8.158,56.5a9.5,9.5,0,0,1-7.866,5.523c-1.467.121-8.672-.294-7.894,3.02.189.793,3.926,2.483,9.346,2.844a25.565,25.565,0,0,0,6.189-.6,11.486,11.486,0,0,0,3.854-2.1l.834,1.116,6.561-1.584s-.008-1.708-.049-3.764a8.362,8.362,0,0,0-1.408-4l.09-3.733,3.637-.429s7.305-23.626,10.777-31.665a70.925,70.925,0,0,0,3.924-10.067c1.067-4.1,1.17-8.375,1.506-12.6a111.4,111.4,0,0,1,4.226-22.74,3.36,3.36,0,0,1,.62-1.328,3.517,3.517,0,0,1,2.389-.834c9.3-.853,13.559.731,19.377-1.075,7.67-2.376,8.486-5.859,8.858-6.024A24.084,24.084,0,0,0-156.154-429.143Z" transform="translate(579.129 429.368)" fill="#5851bc" opacity="0.35"/><path d="M-166.01-320.05v-80.212c-11.963,15.657-23.8,29.692-35.765,45.351-5.19,6.794-25.52,29.3-11.653,38.328,3.539,2.307,9.7,2.2,12.782,2.418,11.064.783,22.025-2.278,32.776-5.319C-167.25-319.657-166.627-319.846-166.01-320.05Z" transform="translate(614.554 475.094)" fill="#5851bc" opacity="0.35"/><path d="M-172.062-357.608l-6.66.517-.127-.38-5.179.4-1.563-4.407a6.689,6.689,0,0,0-6.533-4.149,3.568,3.568,0,0,0-3.309,4.952c.269.762,1.028,2.9,1.547,4.366l-5.453.424.114.38-11.232.868c-1.775.01-4.4,2.3-3.828,3.906l.09.232a2.373,2.373,0,0,0,.052.418l9.718,27.411-.248,115.463H-193.4l21.335-82.937Zm-17.525-.858a3.752,3.752,0,0,1-3.666-2.328,2,2,0,0,1,1.857-2.777,3.752,3.752,0,0,1,3.666,2.328A2,2,0,0,1-189.587-358.465Z" transform="translate(620.607 529.903)" fill="#5851bc" opacity="0.35"/><path d="M-343.434-377.894c-2.508,2.767-5.464,8.659-6.667,11.2-1.271,2.5-2.648,3.916-6.223,5.6-4.931,2.258-10.219,4.417-15.3,6.414v13.1c10.333-6.213,19.682-12.01,19.842-12.072,7.9,3.02,14.5-3.544,16.621-8.282.951-2.126-.478-2.994-.543-4-.034-.527.646-3.6.543-4-.62-2.767-8.047-.349-7.427-1.666a9.4,9.4,0,0,1,3.092-4.632c3.635-2.483,6.425-5.236,6.422-6.28C-333.075-384.319-342.574-378.839-343.434-377.894Z" transform="translate(371.625 502.614)" fill="#5851bc" opacity="0.35"/></g><g transform="translate(195.146 -117.913)"><rect width="174.394" height="201.675" rx="6.949" transform="translate(0.001)" fill="#a2a7f4"/><g transform="translate(16.132 21.108)"><rect width="147.489" height="41.424" rx="1.773" fill="#9090f4"/><rect width="37.924" height="26.295" rx="1.773" transform="translate(0 56.114)" fill="#9090f4"/><rect width="37.924" height="26.295" rx="1.773" transform="translate(54.782 56.114)" fill="#9090f4"/><rect width="37.924" height="26.295" rx="1.773" transform="translate(109.565 56.114)" fill="#9090f4"/><rect width="37.924" height="26.295" rx="1.773" transform="translate(0 98.385)" fill="#9090f4"/><rect width="37.924" height="26.295" rx="1.773" transform="translate(54.782 98.385)" fill="#9090f4"/><rect width="37.924" height="26.295" rx="1.773" transform="translate(0 140.656)" fill="#9090f4"/><rect width="37.924" height="26.295" rx="1.773" transform="translate(54.782 140.656)" fill="#9090f4"/><rect width="37.924" height="68.566" rx="1.773" transform="translate(109.565 98.385)" fill="#9090f4"/></g><g transform="translate(13.453 18.428)" opacity="0.45"><path d="M-200.6-343.465a4.581,4.581,0,0,1,4.58-4.58H-57.691a4.581,4.581,0,0,1,4.58,4.58V-311.2a4.581,4.581,0,0,1-4.58,4.58H-196.019" transform="translate(200.6 348.045)" fill="#e2deff"/><rect width="37.924" height="26.295" rx="1.773" transform="translate(0 56.114)" fill="#e2deff"/><rect width="37.924" height="26.295" rx="1.773" transform="translate(54.782 56.114)" fill="#e2deff"/><rect width="37.924" height="26.295" rx="1.773" transform="translate(109.565 56.114)" fill="#e2deff"/><rect width="37.924" height="26.295" rx="1.773" transform="translate(0 98.385)" fill="#e2deff"/><rect width="37.924" height="26.295" rx="1.773" transform="translate(54.782 98.385)" fill="#e2deff"/><rect width="37.924" height="26.295" rx="1.773" transform="translate(0 140.655)" fill="#e2deff"/><rect width="37.924" height="26.295" rx="1.773" transform="translate(54.782 140.655)" fill="#e2deff"/></g><rect width="37.924" height="68.566" rx="1.773" transform="translate(123.018 116.813)" fill="#66daac"/><path d="M-155.5-243.3v-59.4a4.579,4.579,0,0,1,4.58-4.58h28.762a4.556,4.556,0,0,1,1.6.3,4.569,4.569,0,0,0-4.278-2.981h-28.764a4.581,4.581,0,0,0-4.58,4.58v59.4A4.571,4.571,0,0,0-155.2-241.7,4.5,4.5,0,0,1-155.5-243.3Z" transform="translate(281.203 426.773)" fill="#16a085"/><path d="M-205.807-320.556l4.673,12.294h19.547s-1.356,53.153-1.441,63.119,8.2,78.7,8.2,78.7h11.32l-1.181-86.668,16.057-44.463s12.074,59.526,17.08,69.484,31.906,61.647,31.906,61.647h10.387l-26.669-113.986-11.446-39.6-57.717-26.979-20.712,2.041" transform="translate(205.807 368.115)" fill="#5851bc" opacity="0.35"/></g><g transform="translate(-204.439 -26.348)"><path d="M-351.378-319.573l-9.112,94.4,89.528.02-8.66-94.581Z" transform="translate(360.49 319.733)" fill="#66daac"/><g transform="translate(24.722 5.878)"><g transform="translate(0 0.075)"><path d="M-350.92-314.58v0a3.138,3.138,0,0,1,3.351-2.847h.005A3.137,3.137,0,0,1-344.2-314.6a3.137,3.137,0,0,1-3.351,2.847h-.005A3.138,3.138,0,0,1-350.92-314.58Zm3.353-1.767a2.075,2.075,0,0,0-2.271,1.762,2.074,2.074,0,0,0,2.276,1.754h.005a2.073,2.073,0,0,0,2.271-1.762,2.073,2.073,0,0,0-2.276-1.754Zm-2.826,1.764h0Z" transform="translate(350.92 317.429)" fill="#5851bc"/></g><g transform="translate(33.368)"><path d="M-338-314.611l.542,0-.542,0a2.6,2.6,0,0,1,.785-1.839,3.622,3.622,0,0,1,2.563-1.008h.013a3.135,3.135,0,0,1,3.356,2.829,2.62,2.62,0,0,1-1.018,2.049,3.686,3.686,0,0,1-2.333.8h-.005A3.138,3.138,0,0,1-338-314.611Zm3.35-1.764a2.536,2.536,0,0,0-1.8.692,1.5,1.5,0,0,0-.473,1.067h0a2.074,2.074,0,0,0,2.276,1.754h.005a2.616,2.616,0,0,0,1.648-.555,1.571,1.571,0,0,0,.623-1.206,2.073,2.073,0,0,0-2.276-1.752Z" transform="translate(338.003 317.458)" fill="#5851bc"/></g></g><g transform="translate(26.849 7.629)"><path d="M-333.167-294.977c.31,0,.628-.005.951-.016,6.133-.2,10.808-2.18,13.9-5.869,5.115-6.109,3.955-14.626,3.9-14.985a1.072,1.072,0,0,0-1.224-.917,1.085,1.085,0,0,0-.922,1.224c.013.08,1.067,7.943-3.428,13.3-2.676,3.188-6.817,4.9-12.3,5.084-5.309.155-9.266-1.222-11.9-4.154-4.779-5.321-3.6-14.063-3.591-14.154a1.086,1.086,0,0,0-.922-1.227,1.1,1.1,0,0,0-1.225.92c-.057.4-1.336,9.814,4.115,15.9C-342.9-296.623-338.646-294.977-333.167-294.977Z" transform="translate(350.097 316.78)" fill="#5851bc"/></g></g><g transform="translate(-452.407 -262.086)"><path d="M-379.286-400.463c3.464,5.983.473,14.161,3.968,20.126,1.4,2.387,3.771,4.262,4.443,6.946a6.209,6.209,0,0,1-2.141,6.241,6.207,6.207,0,0,1-6.572.584,7.328,7.328,0,0,0-1.346-.669c-1.728-.506-3.291,1.028-4.779,2.046a7.288,7.288,0,0,1-6.29,1.111c-2.686-.9-4.345-3.6-5.239-6.29-2.5-7.507-.726-15.727,1.586-23.3,1.155-3.782,2.86-7.977,6.567-9.349" transform="translate(548.347 423.619)" fill="#5045af"/><path d="M-306.9-361.844c.057.832,1.323,1.547.48,3.3-1.883,3.906-7.745,9.32-14.753,6.83-.307.109-38.731,22.319-41.688,22.319s-23.125-19.082-29.723-42.693c-1.573-5.631-.961-12.26,4.319-15.109,0,0,4.4,1.064,7.254,6.458,4.368,8.243,17.45,35.548,20.348,36.581,3.614-2.41,21.211-7.639,35.46-13.691,3.172-1.385,4.394-2.552,5.523-4.616,1.067-2.09,3.691-6.949,5.918-9.227.762-.783,9.194-5.3,9.2-3.816,0,.86-2.477,3.131-5.7,5.177a7.74,7.74,0,0,0-2.743,3.818c-.55,1.088,6.042-.907,6.592,1.374C-306.331-364.815-306.933-362.278-306.9-361.844Z" transform="translate(556.442 448.657)" fill="#ffb9b0"/><path d="M-389.014-387.469a17.307,17.307,0,0,1,11.475,8.9,35.678,35.678,0,0,1,1.563,3.588c2.046,5.205,4.864,9.917,6.91,15.122-2.8,2.258-6.184,3.3-9.036,4.358a19.28,19.28,0,0,1-8.414,1.129,4.265,4.265,0,0,1-1.416-.313,4.683,4.683,0,0,1-1.473-1.263q-1.314-1.507-2.557-3.077a8.459,8.459,0,0,1-1.718-2.94,8.926,8.926,0,0,1,.406-4.58" transform="translate(555.649 448.229)" fill="#7762ef"/><path d="M-388.6-381.584a1.754,1.754,0,0,0-.656-.561,1.191,1.191,0,0,0-1.382.615,3.132,3.132,0,0,0-.287,1.6,21.9,21.9,0,0,0,.979,6.233l-.654,10.981.016.021a19.241,19.241,0,0,0,7.869-1.147c1.186-.442,2.469-.9,3.759-1.421C-380.278-371.447-384.5-376.689-388.6-381.584Z" transform="translate(560.266 456.565)" fill="#7762ef" opacity="0.35"/><path d="M-380.318-390.459s-.147,6.874.909,7.323a26.949,26.949,0,0,0,4.443,1.374l.07,14.229-18.969-2.86-13.053-7.264s13.565-4.495,13.683-5.849-.744-8.961-.744-8.961" transform="translate(534.952 440.318)" fill="#ffb9b0"/><g transform="translate(121.604 151.705)"><path d="M-405.522-295.419l-.013.052c-5.187,24.608-2.718,58.415-3.872,76.939.271.078,7.052.925,7.052.925s16.05-78.084,18.964-93.038a21.6,21.6,0,0,0,.372-2.9c.7-11.25-9.442-11.823-15.159-2.524a39.774,39.774,0,0,0-2.614,5.022c-.323.736-.623,1.478-.933,2.271l-.005.026a72.7,72.7,0,0,0-2.519,7.856l-.059.287c-.238.785-.431,1.584-.623,2.384l-.039.181C-405.168-297.108-405.341-296.276-405.522-295.419Z" transform="translate(409.407 399.468)" fill="#ffb9b0"/><path d="M-377.754-336.538c-.191,2.036-1.276,11.725-2.578,23.154-1.113,9.61-2.335,20.441-3.286,29.02-.705,6.432-1.222,11.563-1.439,13.978a31.32,31.32,0,0,1-.568,4.154v.054c-2.444,11.24-10.209,11.891-14.931,9.284a9.518,9.518,0,0,1-1.793-1.222,6,6,0,0,1-2.007-3.312v-.026c-.3-2.31-.6-5.456-.868-9.2v-.054c-.028-.026-.028-.026-.028-.054l-.026-.08c-.571-7.3-1.059-16.7-1.493-25.843-.517-11.24-.842-22.069-.925-28.178-.026-.351-.026-.677-.054-1-.08-18.728,17.13-30.728,27.824-24.918a2.273,2.273,0,0,1,.38.191,4.431,4.431,0,0,0,.408.243c1.222.814,1.63,3.611,1.656,6.815C-377.429-341.209-377.591-338.656-377.754-336.538Z" transform="translate(412.029 352.263)" fill="#ffb9b0"/><path d="M-403.7-315.81l-1.31-4.906c-.005.026-.005.026.013.057a78.427,78.427,0,0,1-1.627,17.129l-.059.287c-.186.772-.385,1.6-.623,2.384l-.039.181a13.055,13.055,0,0,0-.553,2.516l-.013.052c-.013,2.224,4.725-7.652,5.81-9.964.132-.292.217-.462.217-.462l-1.284-5.146Z" transform="translate(411.78 402.211)" fill="#ffb9b0"/></g><g transform="translate(152.598 150.889)"><path d="M-391.909-291.051l0,.054c-.491,25.765,7.468,56.064,9.571,74.777.256.008,6.5-.832,6.5-.832s1.188-78.939,1.274-94.536a24.6,24.6,0,0,0-.158-2.971c-1.281-11.366-10.5-9.419-14.063,1.253a46.557,46.557,0,0,0-1.5,5.642c-.165.814-.31,1.625-.455,2.493v.026c-.437,2.656-.747,5.476-.933,8.439l-.005.3c-.08.842-.119,1.684-.155,2.529l0,.189C-391.875-292.82-391.894-291.95-391.909-291.051Z" transform="translate(406.079 400.615)" fill="#ffb9b0"/><path d="M-377.885-253.524a6.836,6.836,0,0,1-1.813-.788,5.167,5.167,0,0,1-2.369-2.793l0-.028c-.674-2.219-1.48-5.319-2.377-8.977-.021-.031-.021-.031-.018-.059l-.036-.091c-1.741-7.109-3.8-16.331-5.727-25.305-2.364-11.046-4.508-21.746-5.611-27.819-.085-.328-1.038-4.751-1.1-5.073-3.3-18.824,11.379-31.087,22.048-27.5.155.049.287.1.418.142,2.144.863,2.741,8.406,3.221,13.505s4.11,57.95,5.014,67.505a38.828,38.828,0,0,1,.189,4.283C-366.3-254.7-373.186-252.116-377.885-253.524Z" transform="translate(397.409 352.579)" fill="#ffb9b0"/><path d="M-390.389-314.574l-2.01-4.554c0,.026,0,.026.021.054a87.712,87.712,0,0,1,1.441,17.442l-.005.3c-.036.816-.075,1.687-.155,2.529l0,.189a14.962,14.962,0,0,0-.072,2.64l0,.054c.364,2.216,2.95-8.783,3.534-11.353.072-.323.119-.512.119-.512l-2.028-4.8Z" transform="translate(405.342 405.541)" fill="#ffb9b0"/></g><path d="M-396.62-358.857s-13.818,17.551-12.4,35.186c.592,7.339,1.5,13.807,2.338,21.193.119,1.064,1.777,16.572,1.31,16.587,0,0,28.467,8.8,55.968-2.728,0-1.878,2.2-37.974-12.658-72.385A239.593,239.593,0,0,1-396.62-358.857Z" transform="translate(531.463 490.13)" fill="#5146af"/><path d="M-354.54-355.844c-.109,5.027-2.782,8.088-6.618,12.325-.486.754-1.679,11.963-2.085,19.413-.212,3.877,1.444,6.314,0,6.634-5.523,4.815-25.424,8.718-34.553,2.142.958-8.1-2.674-25.956-5.123-35.034-.382-1.4-.718-2.576-1.023-3.487-2.281-6.895-6.4-29-3.35-29.968.607-.191,1.553-.439,2.643-.77,4.771-1.439,11.824-3.908,11.824-3.908s4.133,12.232,14.887,13.709c5.869-2.418,5.35-9.84,5.28-13.252,1.919.529,2.764,1.059,8.713,2.821,1.669,2.4.23,7.422,2.924,14.9C-360.352-368.461-354.405-361.966-354.54-355.844Z" transform="translate(532.645 446.598)" fill="#7762ef"/><path d="M-370.371-401.014s1.085,13.291-1.183,20.258c-1.679,5.159-8.574,9.974-14.337,9.909-15.871,0-18.718-21.557-18.636-22.6s23.407-10.093,23.407-10.093Z" transform="translate(538.735 422.788)" fill="#ffb9b0"/><path d="M-390.662-351.809" transform="translate(560.689 504.688)" fill="#f2f2f2"/><g transform="translate(173.856 333.486)"><path d="M-364.454-272.636c-5.649,1.015-11.686-.574-14.161-.145-2.043.349-7.3,1.682-9.266-.085s-1.648-8.005.612-8.835a8.189,8.189,0,0,0,1.467.351,15.468,15.468,0,0,0,6.685-.545c4.3,1.767,4.459,2.539,9.344,3.526a31.762,31.762,0,0,1,6.226,1.888C-361.439-275.513-361.268-273.207-364.454-272.636Z" transform="translate(389.18 281.894)" fill="#5045af"/></g><g transform="translate(118.09 329.131)"><path d="M-391.258-267.481c-5.66-.953-9.243-4.084-11.718-4.516-2.041-.362-7.189-1.364-7.729-3.474-.4-1.571,1.152-8.093,3.56-8.109a8.314,8.314,0,0,0,1.26.827,15.514,15.514,0,0,0,6.479,1.746c3.449,3.115,3.338,3.9,7.6,6.476a31.874,31.874,0,0,1,5.223,3.88C-384.921-269.031-388.068-266.941-391.258-267.481Z" transform="translate(410.767 283.58)" fill="#5045af"/></g><g transform="translate(55.114 60.964)"><path d="M-435.146-367.772l5.2-6.184,31.712,28.356s15.484-20.609,19.744-27.044c4.681-7.076,8.9-13.126,15.753-14.311,1.576.974-.535,26.388-1.359,27-9.566,7.158-28.183,30.25-34.107,31.448C-405.044-327.119-435.146-367.772-435.146-367.772Z" transform="translate(435.146 388.079)" fill="#ffb9b0"/><path d="M-390.662-387.39s-6.479.08-9.266,2.374-16.094,23.391-16.094,23.391a9.368,9.368,0,0,0,3.5,7.329,19.438,19.438,0,0,0,9.586,4.149s6.683-6.649,10.447-9.674c2.348-1.886,2.581,2.782,2.581,2.782l11.78-11.5Z" transform="translate(465.411 387.39)" fill="#7762ef"/></g><path d="M-403.84-352.259c-.354-.189-.7-.393-1.036-.592-1.816-1.085-3.49-2.229-4.255-4.3-1.1-2.976-1.633-7.546-.088-10.436,1.044-1.956,3.01-3.234,4.355-5,1.857-2.433,2.41-5.619,2.565-8.677s-.023-6.161.617-9.155c1.1-5.123,2.557-10,6.5-13.3,6.321-5.283,18.995-8.416,25.884-2.521,1.253,1.072,1.5,1.93,3.193,2.1a12.477,12.477,0,0,1,5.781,1.689c2.263,1.307,5,3.152,4.686,6.117-.22,2.056-2.555,5.306-4.311,6.275a5.221,5.221,0,0,1-2.436.545c-2.687.054-4.916-1.695-7.551-1.413a5.032,5.032,0,0,0-3.309,1.837c-.951,1.173-.822,2.808-1.93,3.9-1.78,1.759-4.536,1.612-6.647,2.754a2.241,2.241,0,0,0-.907.749,2.4,2.4,0,0,0-.232,1.129l-.121,3.332c-1.046-.462-1.155-1.95-2.018-2.7a2.4,2.4,0,0,0-3.022.2,5.054,5.054,0,0,0-1.457,2.9,8.347,8.347,0,0,0,.589,3.978c.69,2.26,2.627,4.3,4.193,2.8,1.137,1.671-.106,4.461-.147,6.352-.031,1.5-.005,4.466,1.4,5.453,1.286.9,3.33.217,3.407,2.55.072,2.134-2.064,3.8-4.185,4.063s-4.216-.483-6.262-1.093-4.291-1.08-6.28-.307c-1.206.47-2.25,1.374-3.526,1.586A5.51,5.51,0,0,1-403.84-352.259Z" transform="translate(529.787 413.479)" fill="#5045af"/><path d="M-415.254-367.564s-7.455-5.978-7.962-7.613-.62-3.387-1.235-4.986a9.324,9.324,0,0,0-5.172-5.146c-1.868-.77-.953-1.4-2.953-1.015-3.022.584-4.456,3.544-5.662,5.859-5.149,9.865,8.951,11.736,9.447,11.754,1.031.041,6.275,5.988,6.275,5.988" transform="translate(483.579 449.858)" fill="#ffb9b0"/><g transform="translate(18.08 14.081)"><path d="M-438.763-368.979l5.1,3.407a1.408,1.408,0,0,0,1.989-.45l11.214-18.788-6.649-3.746-12.038,17.615A1.4,1.4,0,0,0-438.763-368.979Z" transform="translate(465.464 432.428)" fill="#8484ef"/><path d="M-444.858-389.547l1.759,1.2,7.1-10.351-1.757-1.2c-2.5-1.7-6.117-.767-8.078,2.092h0C-447.792-394.948-447.356-391.251-444.858-389.547Z" transform="translate(453.321 413.121)" fill="#c4c4f7"/><path d="M-448.72-370.4l32.678,4.961,7.464-10.877-16.49-28.55Z" transform="translate(450.689 406.597)" fill="#c4c4f7"/><path d="M-447.912-384.368l30.59,4.508,2.975-4.335-25.744-11.568Z" transform="translate(451.969 421.015)" fill="#bbbbf2"/><path d="M-429.925-380.56h0a4.153,4.153,0,0,0,5.65-1.462l1.328-1.932a4.125,4.125,0,0,0-.682-5.779h0a4.156,4.156,0,0,0-5.65,1.465l-1.325,1.932A4.124,4.124,0,0,0-429.925-380.56Z" transform="translate(478.011 429.623)" fill="#c4c4f7"/><path d="M-429.278-389.275l-1.325,1.932a4.119,4.119,0,0,0,.682,5.776,4.149,4.149,0,0,0,5.647-1.462l1.325-1.932a3.867,3.867,0,0,0,.271-.452A4.065,4.065,0,0,1-428-384.372a4.035,4.035,0,0,1-.956-5.319A4.414,4.414,0,0,0-429.278-389.275Z" transform="translate(478.012 430.63)" fill="#bbbbf2"/><path d="M-448.577-368.273h0a2.44,2.44,0,0,0,3.317-.858l22.415-32.665a2.424,2.424,0,0,0-.4-3.394h0a2.443,2.443,0,0,0-3.319.86l-22.415,32.665A2.419,2.419,0,0,0-448.577-368.273Z" transform="translate(449.482 405.539)" fill="#a4a4f7"/><path d="M-422.67-405.163l-18.669,27.2a2.438,2.438,0,0,1-3.317.86,1.965,1.965,0,0,1-.573-.622l-3.748,5.461a2.418,2.418,0,0,0,.4,3.392,2.44,2.44,0,0,0,3.317-.858l22.415-32.665A2.578,2.578,0,0,0-422.67-405.163Z" transform="translate(449.482 406.134)" fill="#8484ef"/><path d="M-433.268-376.945l2.116,1.441c3.121,2.129,7.636.958,10.088-2.612l2.1-3.061c2.449-3.57,1.906-8.186-1.217-10.315l-2.116-1.441c-3.12-2.126-7.636-.958-10.085,2.612l-2.1,3.061C-436.934-383.69-436.389-379.071-433.268-376.945Z" transform="translate(470.801 423.817)" fill="#a4a4f7"/><path d="M-433.151-391.451l-3.149,4.585a2.333,2.333,0,0,0,.385,3.265l9.84,6.706a2.353,2.353,0,0,0,3.193-.827l3.146-4.585a2.353,2.353,0,0,1-3.193.827l-9.84-6.706A2.33,2.33,0,0,1-433.151-391.451Z" transform="translate(469.586 427.843)" fill="#8484ef"/></g><path d="M-438.65-376.4a10.28,10.28,0,0,1,1.8-7.68,17.158,17.158,0,0,1,1.832-1.974,2.562,2.562,0,0,1,1.106-.728,3.468,3.468,0,0,1,2.387.54,4.368,4.368,0,0,1,1.961,1.945c.543,1.338-.385,2.454-1.439,3.121a.55.55,0,0,0-.263.261c-.059.181.067.406.181.607a4.4,4.4,0,0,1,.757,2.55,1.49,1.49,0,0,1-1.752,1.312c-.387-.059-.9-.209-1.028.083a.686.686,0,0,0-.008.333,2.734,2.734,0,0,1-.592,2.154.788.788,0,0,1-.475.3,1.348,1.348,0,0,1-.5-.067,6.858,6.858,0,0,1-1.744-.777" transform="translate(484.524 449.22)" fill="#ffb9b0"/><path d="M-429.331-374.744a39.9,39.9,0,0,1-.607-4.007,9.121,9.121,0,0,0-4.314-7.5,1.07,1.07,0,0,0-.7-.2.769.769,0,0,0-.571.669,2.072,2.072,0,0,0,.137.925c.3.948,1.648,2.728,1.232,3.707a11.107,11.107,0,0,0-1.064,4.645c.049,1.418.71,3.722,2.389,3.955" transform="translate(489.643 449.83)" fill="#ffb9b0"/><line x2="6.574" y2="15.502" transform="translate(22.419)" stroke-width="0.75" stroke="#c4c4f7" stroke-linecap="round" stroke-linejoin="round" fill="none"/><line x2="13.474" y2="10.098" transform="translate(8.69 13.786)" stroke-width="0.75" stroke="#c4c4f7" stroke-linecap="round" stroke-linejoin="round" fill="none"/><line x2="16.758" y2="1.646" transform="translate(0 32.564)" stroke-width="0.75" stroke="#c4c4f7" stroke-linecap="round" stroke-linejoin="round" fill="none"/></g><g transform="translate(53.409 -456.273)"><g transform="translate(0 7.008)"><path d="M-229.627-448.9s-6.019-4.244-6.236-6.029-4.41-9.01-5.75-10.449-8.4-3.883-9.9-4.1-10.142.517-9.065,1.695,6.662.749,7.737,1.395l1.075.643s-1.075,1.46-.643,2.343-1.847,2.24-.987,3.746-.346,1.4.424,2.971c1.271,2.591,4.521,4.035,5.381,3.327.646,1.537,3.113,4.665,5.427,4.451s7.931,5.05,7.931,5.05" transform="translate(260.675 505.517)" fill="#ffb9b0"/><path d="M-199.316-473.227c.207,4.043-.08,11.082,1.077,12.126s4.89.881,4.89.881S-206.7-443.334-207.9-444.261s-16.99-13.8-13.441-14.464,7.024-.524,6.923-2.361l-.3-5.513" transform="translate(322.134 499.633)" fill="#ffb9b0"/><path d="M-178.047-390.733s-26.057,2.96-32.055,3.082-5.7-3.007-5.7-3.007c-.3-6.605-1.423-22.164-2.663-27.437-1.16-4.924-1.674-6.742-2.681-11.421-2.242-10.4-2.141-12.384-4.518-25.217l15.567-12.511s1.609,4.787,8.135,4.872c8.718.108,11.433-6,11.433-6l21.226,14.094,1.994,34.285-2.542,28.235" transform="translate(316.098 507.323)" fill="#66daac"/><path d="M-196.392-460.706a44.431,44.431,0,0,1-1.837,5.991c-1.374,3.578-3.4,4.862-7.189,4.952l-7.977.191c-2.043.047-4.585.116-6.233-1.318-1.635-1.418-1.669-3.81-2.03-5.776q-.7-3.778-1.134-7.595a112.517,112.517,0,0,1-.7-15.011,11.137,11.137,0,0,1,.178-2.054,1.478,1.478,0,0,1,.344-.754,1.678,1.678,0,0,1,.956-.37,81.9,81.9,0,0,1,15.084-.966c3.562.1,7.336.519,10.157,2.7,2.839,2.193,4.185,5.758,5.4,9.134.2.543.341,1.266-.132,1.6" transform="translate(319.504 483.449)" fill="#ffb9b0"/><g transform="translate(39.822 114.244)"><g transform="translate(11.573 91.669)"><path d="M-235.641-400.111a56.7,56.7,0,0,0,1.553,6.954c.69,1.772,6.5.137,6.887-1.007s-1.829-9.574-1.829-9.574" transform="translate(248.915 403.738)" fill="#ed9c80"/><path d="M-217.041-398.2c.5,1.912,1.137,5.577,1.137,5.577l-5.81,2.532-.953-.9a10.789,10.789,0,0,1-3.224,2.57,24.206,24.206,0,0,1-5.626,1.56c-5.071.545-8.8-.408-9.106-1.111-1.258-2.937,5.471-3.725,6.807-4.079a8.915,8.915,0,0,0,6.375-6.388c.3-1.54-.085-1.811.778-1.762a2.044,2.044,0,0,1,1.452.682,3.671,3.671,0,0,0,4.128.958,4.37,4.37,0,0,0,2.061-1.715A2.539,2.539,0,0,1-217.041-398.2Z" transform="translate(240.779 409.233)" fill="#38287c"/></g><path d="M-194.73-411.921a98.479,98.479,0,0,1-29.669.705c1.284,3.679,4.43,8.393,5.629,13.575,3.96,17.109,5.334,40.095,6.339,54.315,0,0-1.9,3.648-7.99.871-9.1-22.474-24.985-68.017-24.838-77.9.186-12.578,31.583-15.616,54.589-18.713" transform="translate(245.259 439.474)" fill="#453087"/><path d="M-156.74-436.855c7.236,5.285-40.1,25.184-40.1,25.184a78.643,78.643,0,0,1-15.518,1.483,11.413,11.413,0,0,1-1.155-2.937c-.276-1.374-.129-2.805-.369-4.185a9.73,9.73,0,0,0-4.73-6.376,21.322,21.322,0,0,0-7.734-2.506c-6.4-1.031-17.576-.31-17.576-.31,14.226-10.485,43.339-11.86,56.9-12.722C-184.43-434.946-157.776-437.612-156.74-436.855Z" transform="translate(247.372 439.224)" fill="#38287c"/><g transform="translate(23.818 104.831)"><path d="M-229.832-396.217a56.82,56.82,0,0,0,.325,7.117c.372,1.865,6.381,1.263,6.957.2s-.142-9.744-.142-9.744" transform="translate(245.864 398.643)" fill="#ed9c80"/><path d="M-210.984-391.918c.163,1.971.152,5.691.152,5.691l-6.161,1.485-.785-1.046a10.75,10.75,0,0,1-3.619,1.971,24.017,24.017,0,0,1-5.81.561c-5.092-.338-8.6-1.927-8.778-2.671-.728-3.113,6.037-2.72,7.411-2.836a8.919,8.919,0,0,0,7.388-5.185c.558-1.467.23-1.8,1.069-1.6a2.048,2.048,0,0,1,1.312.925,3.674,3.674,0,0,0,3.9,1.661,4.394,4.394,0,0,0,2.325-1.333A2.539,2.539,0,0,1-210.984-391.918Z" transform="translate(236.039 403.455)" fill="#38287c"/></g><path d="M-160.127-438.712a293.221,293.221,0,0,1-32.071,1.023c-4.1,0-35.075,5.815-38.038,11.064-4.875,8.633,3.177,59.1,2.433,95.234,0,0,3.715,3.1,10.281.189,1.635-17.752,12.121-59.624,4.887-79.171,17.078,2.268,30.859,4.521,46.382-.625,3.635-1.206,6.355-3.774,7.987-8.47C-156.624-424.186-157.479-434.493-160.127-438.712Z" transform="translate(266.548 440.035)" fill="#453087"/></g><g transform="translate(19.924 40.079)"><path d="M-166.891-467.934s-3.722.207-4.448.264a34.181,34.181,0,0,0-9.2,1.741c-4.224,1.563-7.2,5.489-10.638,8.561-3.309,2.958-20.454,19.3-23.655,19.9s-31.273-18.641-31.273-18.641l-6.856,6.856s30.467,28.152,39.55,28.2c4.41.023,28.731-12.779,36.512-17.755Z" transform="translate(252.962 467.934)" fill="#66daac"/><path d="M-213.34-437.093c-6.262.354-34.964-21.565-38.292-24.125l-1.33,1.33s30.467,28.152,39.55,28.2c3.676.018,21.167-8.866,31.4-14.709l2.648-1.537-1.589-9.462S-206.691-437.47-213.34-437.093Z" transform="translate(252.962 478.567)" fill="#66daac" opacity="0.25"/></g><g transform="translate(15.944 76.647)"><path d="M-241.316-409.225h69.737l-12.5-40.766a5.362,5.362,0,0,0-5.125-3.787H-250.28a3.476,3.476,0,0,0-3.322,4.495Z" transform="translate(255.684 453.778)" fill="#a4a4f7"/><path d="M-241.011-409.225h68.688l-12.505-40.766a5.359,5.359,0,0,0-5.123-3.787h-61.073a3.477,3.477,0,0,0-3.325,4.495l11.981,39.053A1.418,1.418,0,0,0-241.011-409.225Z" transform="translate(254.503 453.778)" fill="#7a74d1"/></g><path d="M-180.458-447.6c-3.469,15.693-4.084,27.977-5.063,39.2-12.188,4.73-17.15,11.772-29.072,17.08,0,0-9.416-1.565-10.405,1.987-.571,2.048,11.023,3.678,11.023,3.678,11.051.052,40.2-8.023,42.169-8.566s7.714-37.589,7.943-57.694c.034-2.855-.067-5.954-1.855-8.181a10.652,10.652,0,0,0-3.6-2.658c-7.776-3.978-13.534-5.063-22.249-5.616" transform="translate(317.127 507.323)" fill="#ce4a30" opacity="0.25"/><path d="M-208.378-436.474c-1.31-1.648-3.7-1.888-5.8-1.837a42.6,42.6,0,0,0-4.658.372c-.705.1-1.514.261-1.589,1.023s3.415,0,5.247.529a92.184,92.184,0,0,1-10.785.292,3.08,3.08,0,0,0-1.24.129,1.025,1.025,0,0,0-.7.943,1.289,1.289,0,0,0,.493.822,7.3,7.3,0,0,0,3.71,1.493c5.5.964,11.278.8,16.391-1.447" transform="translate(312.555 554.905)" fill="#ffb9b0"/><path d="M-187.6-447.887c-.287,16.776-1.478,24.453-1.15,41.226-8.424,1.8-20.082,11.335-32,16.644a6.288,6.288,0,0,0,.393,4.363c.909.333,40.224-9.238,43.349-12.118,2.813-2.591,6.533-34.037,6.763-54.142.034-2.855-.067-5.954-1.855-8.181a10.652,10.652,0,0,0-3.6-2.658c-7.776-3.978-13.534-5.063-22.249-5.616" transform="translate(323.517 507.323)" fill="#66daac"/><g transform="translate(45.1 93.152)"><path d="M-223.431-440.915c.251,3.575-3.973,6.474-9.434,6.474s-10.093-2.9-10.341-6.474,3.973-6.474,9.434-6.474S-223.681-444.491-223.431-440.915Z" transform="translate(243.216 447.389)" fill="none" stroke="#a4a4f7" stroke-miterlimit="10" stroke-width="1" opacity="0.45"/><ellipse cx="3.598" cy="6.288" rx="3.598" ry="6.288" transform="matrix(0.039, -0.999, 0.999, 0.039, 3.474, 9.823)" fill="#a4a4f7"/></g></g><path d="M-206.49-478.4c-.129-.628-1.524-.752-2.922-.576s-5.128.646-5.895,1.243-.721,1.028-1.131,1.072-.429-.375-1.32-.765-3.043-.116-4.441.059-2.728.486-2.7,1.126a3.564,3.564,0,0,0,.558,1.932c.287.178.284.147,1.385,2.676a2.672,2.672,0,0,0,3.369,1.829c2.3-.5,2.449-3.123,2.627-4.219s.341-1.255.69-1.3.592.07,1.036,1.085.765,3.363,3.123,3.5c3.087.173,4.423-.884,4.851-2.862.579-2.684.447-2.692.679-2.937a14.97,14.97,0,0,1,2.309.2l-.052-.8A17.47,17.47,0,0,1-206.49-478.4ZM-217.7-473a2.684,2.684,0,0,1-2.273,2.816c-1.418.178-2.067-.573-2.831-2.387a4.676,4.676,0,0,1-.46-3.268c.243-.437,1-.421,2.764-.532s2.343-.147,2.63.625A9.673,9.673,0,0,1-217.7-473Zm10.064-1.48c-.292,1.948-1,2.883-2.945,3.115-2.749.328-3.278-.757-3.684-2.067a9.652,9.652,0,0,1-.514-2.7c.085-.819.661-.927,2.392-1.255s4.045-.731,4.386-.369A4.671,4.671,0,0,1-207.637-474.478Z" transform="translate(317.318 497.424)" fill="#483a99"/><path d="M-186.669-471.422a30.2,30.2,0,0,0-.767-4.136A13.2,13.2,0,0,0-193.879-484a20.636,20.636,0,0,0-14.58-1.452c-2.666.747-3.658,2.152-5.032,2.113a15.177,15.177,0,0,1-3.733-1.23c-10.429-3.746-8.677,6.461-7.566,9.266.491,1.237,2.854,2.142,3.172,2.656s.279,3.043.478,4.154a2.215,2.215,0,0,0,1.3,1.537s.057-3.286.111-3.733a4.127,4.127,0,0,1,1.54-3.079,9.537,9.537,0,0,1,3.751-1.052,28.494,28.494,0,0,1,7.677,1.268c1.945,1.671,2.449,5.484,2.994,7.726.256,1.046.519,1.752.945,1.733.326-3.084,1.395-3.165,3.242-2.108.984.563,1.537,2.516,1.571,4.172.039,1.961-1.054,4.12-3.11,4.559-.739.158,1.485,4.368,2.511,5.42a5.787,5.787,0,0,0,1.09.953,4.854,4.854,0,0,0,1.255.465l1.491.405a3.9,3.9,0,0,0,2.048.176c1.1-.31,1.679-1.478,2.175-2.506.816-1.692,1.751-3.33,2.418-5.086A30.224,30.224,0,0,0-186.669-471.422Z" transform="translate(316.141 486.162)" fill="#483a99"/></g><g transform="translate(238.795 -364.391)"><path d="M-56.909-373.181h-132l15.81-11.694v-57.092a8.623,8.623,0,0,1,8.623-8.625H-56.909a8.625,8.625,0,0,1,8.623,8.625v60.161A8.625,8.625,0,0,1-56.909-373.181Z" transform="translate(188.91 450.593)" fill="#d5d2ff"/><g transform="translate(26.2 11.135)"><rect width="60.324" height="5.773" transform="translate(42.632)" fill="#fff" opacity="0.45"/><rect width="60.324" height="5.772" transform="translate(42.632 8.623)" fill="#fff" opacity="0.45"/><rect width="60.324" height="5.772" transform="translate(42.632 17.246)" fill="#fff" opacity="0.45"/><rect width="60.324" height="5.772" transform="translate(42.632 25.648)" fill="#fff" opacity="0.45"/><rect width="42.069" height="5.772" transform="translate(42.632 35.699)" fill="#fff" opacity="0.45"/><rect width="37.893" height="44.308" rx="3.385" fill="#a9adff"/><rect width="37.893" height="4.757" transform="translate(0 49.825)" fill="#fff" opacity="0.45"/><g transform="translate(4.572 9.921)"><path d="M-158.885-427.063h-13.753a1.719,1.719,0,0,1-1.656-1.266l-2.643-9.767a1.715,1.715,0,0,1,1.656-2.165h19.041a1.717,1.717,0,0,1,1.656,2.165l-2.645,9.767A1.717,1.717,0,0,1-158.885-427.063Z" transform="translate(176.998 445.895)" fill="#fff"/><g transform="translate(3.631)"><path d="M-158.687-421.412h-16.564a.341.341,0,0,1-.341-.341.341.341,0,0,1,.341-.341h16.305l5.761-20.1a.349.349,0,0,1,.331-.248h3.6a.343.343,0,0,1,.341.344.341.341,0,0,1-.341.341H-152.6l-5.761,20.1A.342.342,0,0,1-158.687-421.412Z" transform="translate(175.592 442.442)" fill="#fff"/></g><g transform="translate(2.502 21.72)"><path d="M-172.022-432.029a2,2,0,0,1-2,2,2,2,0,0,1-2-2,2,2,0,0,1,2-2A2,2,0,0,1-172.022-432.029Z" transform="translate(176.029 434.034)" fill="#fff"/><circle cx="2.003" cy="2.003" r="2.003" transform="translate(14.563 0.001)" fill="#fff"/></g></g></g></g><g transform="translate(-130.557 -484.61)"><path d="M-320.9-379.232h168.177l-20.139-14.9v-92.01a10.989,10.989,0,0,0-10.989-10.989H-320.9a10.989,10.989,0,0,0-10.989,10.989v95.921A10.989,10.989,0,0,0-320.9-379.232Z" transform="translate(331.89 497.131)" fill="#d5d2ff"/><g transform="translate(14.612 17.061)"><g transform="translate(0 0)" opacity="0.45"><rect width="76.858" height="7.354" transform="translate(76.858 7.354) rotate(180)" fill="#fff"/><rect width="76.858" height="7.354" transform="translate(76.858 18.341) rotate(180)" fill="#fff"/><rect width="76.858" height="7.354" transform="translate(76.858 29.327) rotate(180)" fill="#fff"/><rect width="76.858" height="7.354" transform="translate(76.858 40.031) rotate(180)" fill="#fff"/><rect width="76.858" height="7.354" transform="translate(76.858 50.736) rotate(180)" fill="#fff"/><rect width="76.858" height="7.354" transform="translate(76.858 70.188) rotate(180)" fill="#fff"/><rect width="131.174" height="7.354" transform="translate(131.174 81.772) rotate(180)" fill="#fff"/></g><g transform="translate(82.895 0)"><rect width="48.279" height="56.451" rx="4.313" transform="translate(48.279 56.451) rotate(180)" fill="#c4c4f7"/><rect width="48.279" height="6.06" transform="translate(48.279 69.541) rotate(180)" fill="#fff" opacity="0.45"/><g transform="translate(3.834 12.641)"><path d="M-283.237-466.038h17.522a2.187,2.187,0,0,0,2.108-1.615l3.371-12.446a2.188,2.188,0,0,0-2.111-2.756h-24.259a2.185,2.185,0,0,0-2.111,2.756l3.369,12.446A2.19,2.19,0,0,0-283.237-466.038Z" transform="translate(298.781 490.031)" fill="#fff"/><path d="M-280.2-458.84h21.1a.436.436,0,0,0,.434-.437.433.433,0,0,0-.434-.434h-20.772l-7.344-25.608a.432.432,0,0,0-.416-.315h-4.593a.433.433,0,0,0-.434.434.434.434,0,0,0,.434.437h4.262l7.344,25.608A.432.432,0,0,0-280.2-458.84Z" transform="translate(292.66 485.633)" fill="#fff"/><g transform="translate(11.774 27.672)"><path d="M-280.92-472.369a2.553,2.553,0,0,0,2.552,2.552,2.554,2.554,0,0,0,2.552-2.552,2.553,2.553,0,0,0-2.552-2.552A2.551,2.551,0,0,0-280.92-472.369Z" transform="translate(299.473 474.921)" fill="#fff"/><path d="M-288.1-472.369a2.553,2.553,0,0,0,2.552,2.552A2.554,2.554,0,0,0-283-472.369a2.553,2.553,0,0,0-2.552-2.552A2.551,2.551,0,0,0-288.1-472.369Z" transform="translate(288.102 474.921)" fill="#fff"/></g></g></g></g></g><g transform="translate(173.141 -255.982)"><ellipse cx="74.113" cy="7.813" rx="74.113" ry="7.813" transform="translate(22.145 357.984)" fill="#eae6ff"/><path d="M-181.93-270.008c-.623,1.209-3.6,4.009-7.734,5.856s-12.877,2.71-8.016,4.332,10.529.641,13.4.181a57.564,57.564,0,0,1,9.039-.545c4.466-.031,4.5-.3,3.9-5.342C-172.17-272.457-179.92-273.924-181.93-270.008Z" transform="translate(238.413 624.718)" fill="#9aa3f4"/><path d="M-155.091-270.2c-.251,1.4,1.733,5.634-1.816,8.744s-11.614,6.383-6.27,6.507a31.112,31.112,0,0,0,13.193-2.459c2.718-1.343.548-3.454,3.919-4.518,4.443-1.4,3.526-4.668,1.217-6.688C-147.807-275.267-154.293-274.722-155.091-270.2Z" transform="translate(292.489 622.396)" fill="#9aa3f4"/><path d="M-127.907-291.923s10.643-31.288-19.55-57.067c0,0-16.184,6.443-29.142,7.22-10.2.612-15.386-.328-15.386-.328s-.86,27.8-.894,42.781Z" transform="translate(248.281 503.047)" fill="#4a41a3"/><path d="M-193.816-300.64c-.584-13.991,14.588-12.157,20.18-1.7,11.568,21.614-4.265,71.385-6.36,94.97-2.173.842-5.82,1.5-8.005.5a5.592,5.592,0,0,1-2.327-2.573C-190-238.378-193.188-285.68-193.816-300.64Z" transform="translate(246.77 563.735)" fill="#4a41a3"/><path d="M-174.186-252.093c-1.744,5.712-21.11,11.72-19.54-9.072.695-9.222,2.552-60.151,2.909-65.059s1.178-12.084,3.552-12.978c11.865-4.479,32.849,11.033,29.728,29.467C-159.622-297.414-170.567-263.943-174.186-252.093Z" transform="translate(246.796 517.31)" fill="#4a41a3"/><path d="M-173.883-295.462c-4.683-13.2,10.527-15.528,19.155-7.4,20.2,19.036,20.984,63.9,25.933,87.053a17.655,17.655,0,0,1-8.83,2.529,3.166,3.166,0,0,1-2.41-1.232C-148.242-242.255-168.877-281.353-173.883-295.462Z" transform="translate(276.968 568.617)" fill="#4a41a3"/><path d="M-142.61-251.364c.527,5.947-15.613,18.245-21.968-1.617-2.818-8.806-14.879-60.861-16.393-65.545s-1.1-14.355.765-16.075c9.315-8.6,30.343-1.038,34.37,17.22C-143.14-305.178-143.708-263.7-142.61-251.364Z" transform="translate(265.674 520.215)" fill="#4a41a3"/><path d="M-198.867-376.548c.548-.581,1.1-1.163,1.591-1.79,3.823-4.9,4.381-9.233,7.928-14.911a43.853,43.853,0,0,1,2.575-4.929c1.416-2.036,4.857-4.247,5.75-4.714,1.658-.868.232,2.782.232,2.782s1.408-2.038,2.767-1.894c.53.057.62,3.17.628,3.7a26.094,26.094,0,0,1-2.9,12.361,6.376,6.376,0,0,0-.989,2.805c1.263-.026,2.32-.9,3.34-1.643s2.3-1.426,3.49-1.018a8.987,8.987,0,0,1-.672,1.46c-1.511,2.836-3.206,5.856-6.112,7.236-1.733.824-3.741.969-5.438,1.87-3.061,1.627-4.549,5.4-7.654,6.933" transform="translate(238.799 417.495)" fill="#f2a181"/><rect width="13.224" height="24.346" rx="0.646" transform="matrix(0.923, 0.386, -0.386, 0.923, 56.837, 15.126)" fill="#5e5dbb"/><rect width="11.086" height="21.732" transform="translate(57.649 16.882) rotate(22.698)" fill="#b4b4db"/><path d="M-146.447-371.833a72.326,72.326,0,0,0-14.779,2.5c-10.511,3.157-14.128,8.026-17.762,10.038,7.057-8.964,14.921-27.971,14.921-27.971s-9.483-7.794-10.576-5.949-40.9,48.431-39.653,55.974c.514,3.108,5.123,6.182,9.2,6.042,11.291-.388,24.4-4.495,38.142-8.992,6.04-1.976,7.9,2.284,7.9,2.284" transform="translate(214.325 432.573)" fill="#7a74d1"/><path d="M-196.486-377.3S-201.5-367.2-203-366.539s3.653-2.105,6.476-5.022,6.688-10.571,6.688-10.571C-191.319-381.521-196.486-377.3-196.486-377.3Z" transform="translate(231.823 450.577)" fill="#6960c4"/><path d="M-190.7-399.217a2.274,2.274,0,0,1,.708,1.594c.346,2.237.677,4.608-.194,6.7a9.635,9.635,0,0,1-2.7,3.431,21.083,21.083,0,0,1-4.1,2.805" transform="translate(241.772 423.525)" fill="#f2a181"/><path d="M-183.572-405.726c-2.658.767-4.066,4.2-4.968,6.551a36.574,36.574,0,0,0-1.989,8.84,12.1,12.1,0,0,0,.434,6.215,13.086,13.086,0,0,0,1.733,2.7,5.681,5.681,0,0,0,1.253,1.318,1.929,1.929,0,0,0,1.731.294c.827-.318,1.16-1.292,1.4-2.147,1.534-5.582,3.211-11.227,6.36-16.083" transform="translate(251.692 413.22)" fill="#170d54"/><path d="M-185.835-397.64c-.052-1.777-1.924-2.935-3.544-1.1-1.341,1.522-1.7,4.415-1.775,6.551-.09,2.56,1.894,3.061,3.526,3.42" transform="translate(251.006 422.812)" fill="#f2a181"/><path d="M-195.248-375.709c3.281-3.764,13.7-9.969,27.62-9.53,9.592.3,35.719,1.886,38.638,8.3,1.491,3.281,3.092,36.873.909,48.457-1.643,8.708-5.846,30.283-5.846,35.491s2.8,7.44,1.491,8.951c-2.922,3.387-22.911,4.81-32.3,4.81-8.354,0-22.57-2.227-23.293-4.9-1.069-3.973,1.63-3.826,2-7.987s1.421-31.2-.111-35.618c-2.767-7.987-4.11-21.012-6.308-26.917C-194.114-359.137-198.531-371.943-195.248-375.709Z" transform="translate(242.656 445.622)" fill="#7a74d1"/><path d="M-151.23-370.912c1,2.072,7.757,12.942,7.757,12.942l.274,1.3a55.235,55.235,0,0,1-.687,5.81c-1.643,8.708-5.846,30.283-5.846,35.491s2.676,7.344,1.491,8.951c-2.3,3.123-39.994,10.147-38.142,1.428.168-.79,31.634-24.8,31.8-25.605,1.452-6.889,2.715-11.852,3.35-16.876C-149.7-359.564-152.224-372.984-151.23-370.912Z" transform="translate(258.461 468.001)" fill="#6960c4"/><path d="M-186.3-385.691s-.09,10.93-.53,11.369a17.243,17.243,0,0,1-2.6,1.462s1.54,9.5,3.919,8.791,18.093-8.641,18.093-8.641-2.229-.907-2.229-1.788,2.116-18.067,2.116-18.067" transform="translate(253.743 434.057)" fill="#ffbe9d"/><path d="M-172.864-405.269c-2.289.625-8.326-.623-9.992,1.875s-3.121,8.533-3.746,10.2c-1.243,3.317-2.054,6.858-2.958,10.276-1.175,4.453-3.115,12.611,1.24,16.339a5.811,5.811,0,0,0,3.363,1.705c2.061.374,4.115.8,6.177,1.168,3.2.573,6.74,1.242,9.915.209,4.242-1.377,6.569-7.21,7.659-11.17l6.244-22.691Z" transform="translate(251.22 413.944)" fill="#ffbe9d"/><path d="M-186.739-379.884s-.92,42.639-2.656,68.577l6.27,8.649,4.311-10.832a329.85,329.85,0,0,0-4.079-66.1Z" transform="translate(253.796 454.134)" fill="#3b2e7a"/><path d="M-188.927-379.687l.147.586a11.847,11.847,0,0,0,1.3,3.159h0l3.846.3s2.617-1.369,2.963-2.844-4.3-3.885-4.3-3.885l-.563.22a8.369,8.369,0,0,0-3.348,2.41Z" transform="translate(254.537 450.192)" fill="#3b2e7a"/><path d="M-172.595-386.6a16.079,16.079,0,0,1,4.386,4.448c-1.979,4.528-6.45,12.568-11.377,16.23a22.24,22.24,0,0,0-7.809-9.762S-173.974-378.073-172.595-386.6Z" transform="translate(256.964 443.501)" fill="#fff"/><path d="M-182.572-376.036a16.536,16.536,0,0,0-7.652,7.272s-.92-7.262,1.041-13.5c0,0,3.152-4.032,4.242-4.115C-185.393-381.239-182.572-376.036-182.572-376.036Z" transform="translate(252.142 443.854)" fill="#fff"/><g transform="translate(12.678 64.718)"><path d="M-181.26-345.523c-4.769.718-6.528,2.488-9.214,5.141a1,1,0,0,0-.4.793c.062.38.509.55.889.61,2.214.356,2.576-1.057,4.645-1.922,1.4-.584,2.785-1.188,4.172-1.793" transform="translate(238.76 443.818)" fill="#f2a181"/><g transform="translate(0 54.4)"><g transform="translate(0 6.887)"><path d="M-168.1-357.573l16.889,54.129a1.938,1.938,0,0,1-1.79,2.718l-35.238,3.09a3.263,3.263,0,0,1-2.955-2.276l-18.158-53.305c-.455-1.452,1.64-3.529,3.059-3.539l35.238-3.092A3.267,3.267,0,0,1-168.1-357.573Z" transform="translate(209.418 359.849)" fill="#e9e6ff"/></g><g transform="translate(0.05 8.3)"><path d="M-169.29-357.024l16.654,53.292a1.938,1.938,0,0,1-1.79,2.718l-35.238,3.092a3.267,3.267,0,0,1-2.955-2.276l-16.654-53.295a1.939,1.939,0,0,1,1.79-2.718l35.241-3.092A3.269,3.269,0,0,1-169.29-357.024Z" transform="translate(209.398 359.302)" fill="#e0d9ff"/></g><g transform="translate(12.007)"><path d="M-204.77-358.21l1.25,4.672,16.482-1.456-1.355-4.653Z" transform="translate(204.77 367.057)" fill="#fff"/><path d="M-203.435-358.009c.338,1.088,1.651,5.285,1.651,5.285l7.866-.728-1.651-5.285a5.351,5.351,0,0,0-5.221-3.761C-202.962-362.3-204.145-360.288-203.435-358.009Zm1.744-.106a1.8,1.8,0,0,1,1.483-2.519,3,3,0,0,1,2.929,2.108,1.8,1.8,0,0,1-1.483,2.519A3,3,0,0,1-201.691-358.115Z" transform="translate(206.556 362.515)" fill="#fff"/></g></g><path d="M-167.111-346.987c-3.7.772-13.549,3.712-14.582,4.2a42.98,42.98,0,0,0-6.282,4.645c-3.71,3.717-1.813,5.453-3.273,10.5a2.849,2.849,0,0,0-.093.8c0,.527.71.979,1.428.488.385.651,1.529.248,2.085-.46-.01.5.7.821,1.832.194.612-.338.5-.307,1.917-1.571a14.91,14.91,0,0,1,4.012-2.441,29.222,29.222,0,0,0,3.911-1.785c1.5-.987,4.167-1.222,5.482-5.495a4.253,4.253,0,0,1,2.056-2.051q3.015-1.891,6.027-3.779" transform="translate(238.035 441.5)" fill="#ffbe9d"/><path d="M-155.613-358.4c1.568,5.59,8.088,44.326,8.088,44.326l-36.731,26.6,3.056,8.037s43.949-14.758,47.41-24.843,3.3-55.654-8.9-71.639c-3.885-5.087-11.674-7.657-11.674-7.657" transform="translate(249.254 383.574)" fill="#7a74d1"/><path d="M-184.365-341.588a23.867,23.867,0,0,0-2.565,1.974c-1.049,1.108-1.834,2.33-2.96,3.655" transform="translate(240.333 450.048)" fill="none" stroke="#f2a181" stroke-miterlimit="10" stroke-width="0.25"/><path d="M-185.2-342.53a13.185,13.185,0,0,0-3.025,3.673,48.928,48.928,0,0,1-2.413,4.65" transform="translate(239.147 448.557)" fill="none" stroke="#f2a181" stroke-miterlimit="10" stroke-width="0.25"/><path d="M-186.82-343.292c-.356.571-1.868,1.992-2.173,2.591a23.486,23.486,0,0,0-2.092,5.978" transform="translate(238.442 447.35)" fill="none" stroke="#f2a181" stroke-miterlimit="10" stroke-width="0.25"/></g><path d="M-160.09-373.286c-1.439-.842-2.542-1.731-3.48-.351-.5.731-.8,1.741-1.646,1.992a1.7,1.7,0,0,1-1.927-1.364,4.924,4.924,0,0,1,.315-2.588l1.736-5.585c.566-1.821,1.126-3.823.4-5.59a6.142,6.142,0,0,0-1.762-2.258,18.661,18.661,0,0,0-8.571-3.666,91.789,91.789,0,0,1-9.225-1.893,10,10,0,0,1-3.513-1.77,7.579,7.579,0,0,1-2.488-5.681,11.723,11.723,0,0,1,1.8-6.053,9.94,9.94,0,0,0,.922,2.1,7.842,7.842,0,0,1,1.679-2.635c.9,5,21.945,3.33,26.861,5.533,3.407,1.527,6.228,2.526,6.125,8.049a2.006,2.006,0,0,0,.666.878c3.02,2.774,4.327,6.151,4.707,11.162.465,6.13-3.108,12.769-6.605,17.822a11.416,11.416,0,0,1-2.6,3.108,6.89,6.89,0,0,1-4.893,1.106c-1.516-.289-4.508-.16-4.536-1.7-.021-1.106,2.343-3.077,3-3.968" transform="translate(252.446 408.627)" fill="#3b2e7a"/><path d="M-180.677-387.993a2.332,2.332,0,0,0,.393,1.837,2.329,2.329,0,0,0,2.493.354,6.657,6.657,0,0,0,4.2-5.154c.5-2.65-.927-5.3-3.356-4.614a3.58,3.58,0,0,0-2.291,3.49" transform="translate(267.523 429.126)" fill="#ffbe9d"/><path d="M-188.158-389.542l6.75,1.242a9.408,9.408,0,0,1-6.84,2.524" transform="translate(255.612 438.843)" fill="#f2a181"/></g><g transform="translate(-317.504 -354.657)" opacity="0.3"><g transform="translate(28.063 25.683)"><path d="M-393.4-430.339l9.045,4.553-4.522-11.1" transform="translate(393.396 436.883)" fill="#3939d3"/></g><path d="M-404.259-428.786c0,9.964,8.558,18.041,19.116,18.041s19.116-8.078,19.116-18.041-8.558-18.039-19.116-18.039S-404.259-438.75-404.259-428.786Z" transform="translate(404.259 446.825)" fill="#3939d3"/><path d="M-398.671-441.307v12.9a1.353,1.353,0,0,0,2.028,1.17l11.17-6.45a1.352,1.352,0,0,0,0-2.34l-11.17-6.448A1.352,1.352,0,0,0-398.671-441.307Z" transform="translate(413.106 453.42)" fill="#fefefe"/></g><g transform="translate(326.047 -217.482)" opacity="0.3"><g transform="translate(1.123 25.683)"><path d="M-145.655-377.237l-9.044,4.552,4.522-11.1" transform="translate(154.699 383.781)" fill="#3939d3"/></g><path d="M-116.9-375.684c0,9.964-8.558,18.041-19.116,18.041s-19.113-8.078-19.113-18.041,8.558-18.039,19.113-18.039S-116.9-385.648-116.9-375.684Z" transform="translate(155.134 393.723)" fill="#3939d3"/><g transform="translate(7.89 5.925)"><g transform="translate(7.653)"><path d="M-148.962-370.674c4.164.067,8.383.121,12.214-.129,1.214-.08,2.263-1.9.788-2.472a2.681,2.681,0,0,0,1.519-1.245,1.207,1.207,0,0,0-.736-1.622c1.444.336,2.015-1.826.886-2.526a3.165,3.165,0,0,0,1.219-1.842,1.809,1.809,0,0,0-.878-1.909,3.343,3.343,0,0,0-1.5-.243l-5.2-.039c.47-2.557.612-5.345-.767-7.592-.413-.679-1.529-1.491-2.415-.969-.829.488-.6,1.7-.555,2.467a8.556,8.556,0,0,1-4.727,7.884S-148.918-374.131-148.962-370.674Z" transform="translate(149.117 391.429)" fill="#fefefe"/></g><rect width="6.297" height="10.228" transform="translate(0 10.518)" fill="#fefefe"/></g></g><g transform="translate(22.451 -353.244)" opacity="0.3"><g transform="translate(22.001 4.297)"><path d="M-261.7-437.486l6.6-7.129-9.042,1.771" transform="translate(264.142 444.614)" fill="#3939d3"/></g><path d="M-272.659-433.2c0,7.225,6.2,13.084,13.862,13.084s13.862-5.859,13.862-13.084-6.2-13.082-13.862-13.082S-272.659-440.422-272.659-433.2Z" transform="translate(272.659 446.278)" fill="#3939d3"/><g transform="translate(6.09 4.297)"><g transform="translate(5.015)"><path d="M-268.259-429.563c2.728.049,5.492.088,8-.093.8-.059,1.483-1.377.517-1.793a1.816,1.816,0,0,0,.994-.9.9.9,0,0,0-.483-1.178c.948.245,1.32-1.323.584-1.831a2.321,2.321,0,0,0,.8-1.335,1.368,1.368,0,0,0-.576-1.382,2,2,0,0,0-.984-.178l-3.4-.026a8.553,8.553,0,0,0-.5-5.507c-.271-.491-1-1.08-1.584-.7-.542.354-.393,1.235-.364,1.79a6.329,6.329,0,0,1-3.095,5.717S-268.231-432.072-268.259-429.563Z" transform="translate(268.36 444.614)" fill="#fefefe"/></g><rect width="4.125" height="7.417" transform="translate(0 7.627)" fill="#fefefe"/></g></g><g transform="translate(75.002 -470.645)" opacity="0.3"><path d="M-215.879-458.523a20.343,20.343,0,0,0,4.474-12.746,20.455,20.455,0,0,0-20.454-20.457,20.455,20.455,0,0,0-20.457,20.457,20.455,20.455,0,0,0,20.457,20.454,20.349,20.349,0,0,0,11.333-3.431l7.918,4.224Z" transform="translate(252.316 491.725)" fill="#3939d3"/><path d="M-246.815-485.094a4.99,4.99,0,0,1,7.063.075l1.271,1.3,1.31-1.292a4.992,4.992,0,0,1,7.063.054,4.994,4.994,0,0,1-.054,7.063l-4.859,4.787-.028.031a4.979,4.979,0,0,1-2.73,1.369,4.994,4.994,0,0,1-4.332-1.444l-4.779-4.88A4.992,4.992,0,0,1-246.815-485.094Z" transform="translate(258.646 499.963)" fill="#fff"/></g></g></g></g></svg>