<svg xmlns="http://www.w3.org/2000/svg" xmlns:xlink="http://www.w3.org/1999/xlink" width="617.692" height="580.652" viewBox="0 0 617.692 580.652"><defs><clipPath id="a"><path d="M315.27,171.054a11.019,11.019,0,1,0,1.427-15.518A11.02,11.02,0,0,0,315.27,171.054Z" transform="translate(-312.724 -152.99)" fill="#ffbda1"/></clipPath><clipPath id="b"><path d="M250.057,299.523a11.116,11.116,0,1,1-9.149-12.787A11.116,11.116,0,0,1,250.057,299.523Z" transform="translate(-227.974 -286.585)" fill="#ffbda1"/></clipPath></defs><g transform="translate(-221.024 -133.023)"><path d="M0,0H443.49a0,0,0,0,1,0,0V33.867a10.941,10.941,0,0,1-10.941,10.941H10.941A10.941,10.941,0,0,1,0,33.867V0A0,0,0,0,1,0,0Z" transform="translate(273.108 537.318)" fill="#c1ddf7"/><rect width="91.016" height="39.207" transform="translate(450.228 582.126)" fill="#71addb"/><path d="M10.113,0H433.378A10.113,10.113,0,0,1,443.49,10.113V259.165a0,0,0,0,1,0,0H0a0,0,0,0,1,0,0V10.113A10.113,10.113,0,0,1,10.113,0Z" transform="translate(273.108 278.879)" fill="#6b72ff"/><rect width="410.228" height="224.517" transform="translate(291.125 297.526)" fill="#d7e8f7"/><path d="M339.391,297.6a10.018,10.018,0,1,1-10.018-10.018A10.019,10.019,0,0,1,339.391,297.6Z" transform="translate(165.48 260.112)" fill="#fff"/><rect width="201.843" height="181.494" rx="3.075" transform="translate(474.342 317.971)" fill="#fff"/><rect width="135.236" height="97.875" rx="3.075" transform="translate(318.347 401.59)" fill="#fff"/><g transform="translate(758.996 358.839)"><path d="M429.12,307.908l-.054,0c6.637-6.935,3.517-14.6,2.313-16.929l-.005-.013c-.233-.448-.4-.716-.4-.716l.059.011a27.9,27.9,0,0,1,5.159-32.388c4.652-6.157,1.132-14.34,1.132-14.34h.011a19.773,19.773,0,1,1,37.265,0h.008s-3.517,8.183,1.132,14.34a27.884,27.884,0,0,1,5.162,32.38l.021,0s-.035.054-.086.142c-.158.308-.317.617-.486.918a14.255,14.255,0,0,0,1.835,15.842c.169.2.341.392.5.593.051.054.089.11.139.164h-.016a34.423,34.423,0,1,1-53.7,0Z" transform="translate(-421.544 -217.192)" fill="#00c0cd"/><path d="M432.064,299.714l8.432,8.341v-29.31L430.141,268.5a1.368,1.368,0,0,1,1.924-1.945L440.5,274.9V234.464a1.367,1.367,0,0,1,2.734,0v24.369l8.2-8.153a1.367,1.367,0,1,1,1.929,1.937L443.23,262.688v29.439l9.063-9.154a1.367,1.367,0,1,1,1.945,1.921L443.23,296.014v78.1a1.367,1.367,0,1,1-2.734,0V311.9l-10.356-10.243a1.368,1.368,0,0,1,1.924-1.945Z" transform="translate(-407.76 -190.424)" fill="#009db0"/><path d="M475.731,288.53H430.564a1.519,1.519,0,1,1,0-3.037h45.166a1.519,1.519,0,1,1,0,3.037Z" transform="translate(-408.919 -102.249)" fill="#cadfef"/></g><g transform="translate(330.273 412.886)"><g transform="translate(3.46 52.099)"><rect width="104.354" height="5.857" rx="1.042" fill="#d7e8f7"/><rect width="61.884" height="5.857" rx="1.042" transform="translate(0 13.752)" fill="#d7e8f7"/></g><circle cx="18.591" cy="18.591" r="18.591" fill="#d7e8f7"/></g><path d="M773.972,322.78H222.379a1.355,1.355,0,1,1,0-2.71H773.972a1.355,1.355,0,1,1,0,2.71Z" transform="translate(0 314.779)" fill="#cadfef"/><rect width="67.262" height="67.262" rx="4.524" transform="translate(581.098 414.87)" fill="#84b4fe"/><g transform="translate(531.837 657.064)"><rect width="71.083" height="32.716" rx="3.244" transform="translate(0 8.715)" fill="#538dd3"/><rect width="71.083" height="32.716" rx="3.244" transform="translate(0 0)" fill="#84b4fe"/></g><g transform="translate(616.074 466.143)"><path d="M374.29,257.188a6.281,6.281,0,0,1,6.077,6.3,5.986,5.986,0,0,1-6.02,6.117,6.277,6.277,0,0,1-6.074-6.3A5.986,5.986,0,0,1,374.29,257.188Z" transform="translate(-368.272 -257.188)" fill="#ffbda1"/><g transform="translate(35.937 23.302)"><g transform="translate(31.162 19.853)"><path d="M419.169,274.961a5.14,5.14,0,0,0-7.6-.021,6.011,6.011,0,0,0-.357,8.1,5.139,5.139,0,0,0,7.6.022A6.008,6.008,0,0,0,419.169,274.961Z" transform="translate(-365.46 -273.273)" fill="#ffbda1"/><g transform="translate(0 5.785)"><path d="M420.1,295.4l-19.593-16.878a4.493,4.493,0,0,0-6.7,2.087,6.448,6.448,0,0,0,2.262,7.837l19.593,16.878a8.933,8.933,0,0,0,11.955-1.725l16.417-20.5-7.9-7.67Z" transform="translate(-393.282 -275.429)" fill="#ffd474"/></g></g><path d="M386.609,341.264l7.891-.294-.119-13.882-8.026.357Z" transform="translate(-373.776 -162.855)" fill="#ffbda1"/><path d="M381.667,340.672l20.868-.239-.126-9.143-12.583.134c-4.547.048-8.2,4.188-8.159,9.248Z" transform="translate(-381.667 -155.784)" fill="#241c2b"/><path d="M405.52,341.264l-7.891-.294-1.653-13.882,8.026.357Z" transform="translate(-357.586 -162.855)" fill="#ffbda1"/><path d="M417.51,340.672l-20.124-.241-.91-9.141,12.875.134c4.547.048,8.2,4.188,8.159,9.248Z" transform="translate(-356.745 -155.784)" fill="#241c2b"/><g transform="translate(6.673 69.492)"><g transform="translate(5.641 0.001)"><path d="M386.257,292.85l13.706-.511,1.426-.053,13.706-.511.167,20.053L387.3,312.871Z" transform="translate(-386.257 -291.775)" fill="#03345f"/></g><path d="M401.468,393.145l12.454-.086-6.554-51.63L405.3,291.775l-13.219,2.165L393.87,341.9a7.365,7.365,0,0,0,.14,1.629Z" transform="translate(-370.819 -291.775)" fill="#03345f"/><path d="M387.564,391.877l11.864.1L397.676,342.8l6.63-49.145L389.8,292.176l-5.6,49.77a7.411,7.411,0,0,0-.011,1.484Z" transform="translate(-384.154 -291.1)" fill="#03345f"/></g><g transform="translate(10.93)"><rect width="8.07" height="10.839" transform="translate(11.88 19.853)" fill="#ffbda1"/><g transform="translate(2.517)"><path d="M392.042,272.527a2.682,2.682,0,1,1-2.68-2.683A2.682,2.682,0,0,1,392.042,272.527Z" transform="translate(-386.679 -259.19)" fill="#ffbda1"/><path d="M400.077,272.527a2.682,2.682,0,1,1-2.68-2.683A2.682,2.682,0,0,1,400.077,272.527Z" transform="translate(-373.157 -259.19)" fill="#ffbda1"/><path d="M409.634,276.9a11.025,11.025,0,1,1-11.024-11.024A11.023,11.023,0,0,1,409.634,276.9Z" transform="translate(-385.158 -265.873)" fill="#072042"/></g><path d="M415.985,320.675H386.862l-1.121-34.242c0-5.739,3.571-10.391,8.955-10.391h13.455c5.385,0,8.955,4.652,8.955,10.391Z" transform="translate(-385.741 -248.758)" fill="#ffd474"/></g></g><path d="M413.721,316.171l-21.86-22.66c-.1-.11-.207-.223-.3-.338l-21.452-25.936,9.157-7.576,21.307,25.761,21.7,22.5Z" transform="translate(-365.182 -253.025)" fill="#ffd474"/></g><g transform="translate(348.465 186.592)"><g transform="translate(182.432 110.934)"><path d="M343.337,208.138l7.682-.286-3.308-13.513-7.813.348Z" transform="translate(-330.845 -194.339)" fill="#ffbda1"/><path d="M336.524,207.562l20.312-.233-.123-8.9-12.247.129c-4.427.048-7.982,4.078-7.941,9Z" transform="translate(-336.524 -187.455)" fill="#241c2b"/></g><g transform="translate(147.09 72.388)"><path d="M330.563,191.91l7.682-.287-4.285-11.652-7.813.348Z" transform="translate(-318.644 -179.971)" fill="#ffb398"/><path d="M323.351,193.195l20.312-.233-.123-8.9-12.247.129c-4.427.048-7.982,4.078-7.941,9Z" transform="translate(-323.351 -173.087)" fill="#0e0e0e"/></g><path d="M381.851,181.192l-51.222,15.982,4.354-10.329,14.71,33.941-13.127.775-16.044-28.648a7.521,7.521,0,0,1,3.555-9.945l.8-.386,48.348-23.269Z" transform="translate(-182.203 -142.349)" fill="#052e47"/><g transform="translate(93.978 11.089)"><path d="M312.659,177.594a5,5,0,0,0-7.394-.021,5.847,5.847,0,0,0-.346,7.882,5,5,0,0,0,7.394.019A5.844,5.844,0,0,0,312.659,177.594Z" transform="translate(-303.554 -125.439)" fill="#faaaab"/><path d="M312.266,215.583l-6.484-9.61,27.491-18.552,18.176-30.3,9.94,5.964-18.839,31.4a5.8,5.8,0,0,1-1.728,1.822Z" transform="translate(-299.805 -157.123)" fill="#f7c869"/></g><g transform="translate(117.188)"><path d="M322.451,157.122l6.289.088,2.05,8.273-11.86-1.924Z" transform="translate(-300.888 -146.036)" fill="#ffbda1"/><path d="M312.454,159.518l1.8-2.1,2.777,2.364-1.945,1.618-1.937-.18A1.034,1.034,0,0,1,312.454,159.518Z" transform="translate(-312.205 -145.54)" fill="#ffbda1"/><g transform="translate(1.391)"><path d="M315.27,171.054a11.019,11.019,0,1,0,1.427-15.518A11.02,11.02,0,0,0,315.27,171.054Z" transform="translate(-312.724 -152.99)" fill="#ffbda1"/><g clip-path="url(#a)"><path d="M313.289,153.773l23.187,17.78-3.763-18.928Z" transform="translate(-311.773 -153.605)" fill="#072042"/></g></g><path d="M317.983,160.15a3.086,3.086,0,1,0,.4-4.346A3.085,3.085,0,0,0,317.983,160.15Z" transform="translate(-303.683 -149.453)" fill="#ffbda1"/></g><path d="M360.73,157.385l.231,23.1-32.919,5.13-6.278-26.292,2.683-1.178a27.167,27.167,0,0,1,15.985-1.816l5.159.451Z" transform="translate(-178.931 -148.177)" fill="#ffd474"/><path d="M336.519,179.531l23.049,1.561.005-2.238a22.386,22.386,0,0,0-23.285-22.421h0Z" transform="translate(-154.489 -147.226)" fill="#03345f"/><path d="M364.487,169.7l-16.054,33.847.177-4.384,11.861,53.947-12.454.15-14.4-50.307a6.384,6.384,0,0,1-.107-3.109l.282-1.274,7.775-35.387Z" transform="translate(-159.408 -135.834)" fill="#03345f"/><g transform="translate(0 41.661)"><rect width="174.867" height="33.278" rx="2.62" transform="translate(6.255 0) rotate(10.834)" fill="#fff"/><path d="M340.917,201.406l-3.748-6.045a7.843,7.843,0,1,0-2.063,1.406l3.692,5.953Zm-3.89-10.707a5.324,5.324,0,1,1-4.228-6.23A5.331,5.331,0,0,1,337.027,190.7Z" transform="translate(-175.202 -146.033)" fill="#8cb8f2"/></g><g transform="translate(126.677 18.574)"><path d="M324.848,186.45a5,5,0,0,0-7.394-.019,5.85,5.85,0,0,0-.349,7.882,5.005,5.005,0,0,0,7.4.019A5.853,5.853,0,0,0,324.848,186.45Z" transform="translate(-315.742 -118.017)" fill="#ffbda1"/><path d="M326.407,231.3l-9.559-6.557,21.063-30.711-5.54-32.149,11.426-1.967,5.937,34.467a5.783,5.783,0,0,1-.934,4.263Z" transform="translate(-313.881 -159.913)" fill="#ffd474"/></g></g><path d="M461.871,328.157H291.325a13.124,13.124,0,0,1,13.125-13.125h144.3a13.124,13.124,0,0,1,13.125,13.125Z" transform="translate(118.309 306.301)" fill="#c1ddf7"/><g transform="translate(222.717 545.011)"><g transform="translate(75.443 133.04)"><path d="M251.267,354.229c-.024-.641-1.492-16.417-1.492-16.417l8.193-1.639,1.594,16.4Z" transform="translate(-249.775 -336.173)" fill="#ffbda1"/><path d="M274.33,346.067l-22.853,4.682-1.406-7.018,15.781-3.233a7.172,7.172,0,0,1,8.478,5.57Z" transform="translate(-249.277 -329.149)" fill="#0e0e0e"/></g><path d="M247.205,309.8l32.152,24.666,1.017.781a7.555,7.555,0,0,1,2.911,5.326l3.925,45.212-11.408,1.69-7.633-46.451,3.928,6.1-38.046-15.918Z" transform="translate(-200.794 -247.517)" fill="#052e47"/><path d="M240.006,348.751l27.72-9.862a4.385,4.385,0,0,0,2.892-5.486l-11.764-37.974-22.134,6.857a15.055,15.055,0,0,0-9.927,18.837Z" transform="translate(-214.15 -271.701)" fill="#f7c869"/><rect width="61.643" height="61.643" rx="4.146" transform="matrix(0.97, -0.244, 0.244, 0.97, 36.994, 22.126)" fill="#84b4fe"/><g transform="translate(25.598 148.027)"><path d="M231.216,357.958c.15-.622,2.393-16.2,2.393-16.2l8.336.6-2.291,16.218Z" transform="translate(-231.162 -341.759)" fill="#ffbda1"/><path d="M254.521,353.981,231.2,353.92l.051-7.161,16.105.043a7.173,7.173,0,0,1,7.169,7.179Z" transform="translate(-231.196 -333.345)" fill="#241c2b"/></g><path d="M250.571,312.122l4.081,32.49.29,1.666a6.157,6.157,0,0,1-.064,2.39L244.3,398.838l-12.473-.909,6.908-50.9.223,4.054L231.2,319.476Z" transform="translate(-205.595 -243.608)" fill="#03345f"/><g transform="translate(60.168 45.522)"><path d="M258.159,310.289a5.479,5.479,0,1,1-4.078-6.589A5.48,5.48,0,0,1,258.159,310.289Z" transform="translate(-238.592 -303.552)" fill="#ffbda1"/><path d="M255.069,304.493,244.082,310.5l3.458,5.066,12.888-5.956Z" transform="translate(-244.082 -301.969)" fill="#ffbda1"/></g><path d="M239.042,289.954l-2.635-.915-1.215,3.474,2.516.416,1.6-1.14A1.044,1.044,0,0,0,239.042,289.954Z" transform="translate(-198.874 -282.454)" fill="#ffbda1"/><g transform="translate(16.952)"><path d="M250.057,299.523a11.116,11.116,0,1,1-9.149-12.787A11.116,11.116,0,0,1,250.057,299.523Z" transform="translate(-227.974 -286.585)" fill="#ffbda1"/><g clip-path="url(#b)"><path d="M244.118,285.4l-11.132,27.3-6.368-18.4Z" transform="translate(-230.254 -288.575)" fill="#072042"/></g></g><path d="M235.322,293.256a3.112,3.112,0,1,1-2.562-3.582A3.111,3.111,0,0,1,235.322,293.256Z" transform="translate(-209.061 -281.456)" fill="#ffbda1"/><path d="M240.315,302.273a9.727,9.727,0,1,1-5.073-12.787A9.725,9.725,0,0,1,240.315,302.273Z" transform="translate(-221.655 -283.047)" fill="#072042"/><path d="M239.542,294.194l1.095,15.389-10.074-5.728.378-9.4Z" transform="translate(-206.665 -273.779)" fill="#ffbda1"/><path d="M252.694,340.635A6.19,6.19,0,0,1,247.411,338l-19.6-27.98a6.194,6.194,0,0,1,1.518-8.625h0a6.192,6.192,0,0,1,8.626,1.519L254.3,326.25,278.3,312.438l6.181,10.734-28.905,16.639A6.181,6.181,0,0,1,252.694,340.635Z" transform="translate(-213.178 -263.552)" fill="#ffd474"/></g><g transform="translate(319.488 344.885)"><rect width="108.806" height="5.857" rx="1.042" fill="#fff"/><rect width="108.806" height="5.857" rx="1.042" transform="translate(0 36.875)" fill="#fff"/><rect width="133.36" height="5.857" rx="1.042" transform="translate(0 18.36)" fill="#fff"/></g><g transform="translate(544.006 133.023)"><path d="M410.175,153.676H341.41s5.038-20.653,22.823-20.653a26.017,26.017,0,0,1,22.679,12.652c5.2-2.034,16.387-4.5,23.263,8" transform="translate(-341.41 -133.023)" fill="#fff"/><g transform="translate(150.674 70.19)"><path d="M416.035,175.5a18.535,18.535,0,0,1,9.3,2.506,29.833,29.833,0,0,1,51.063-1.792,23.192,23.192,0,0,1,45.459,4.121,18.419,18.419,0,0,1,2.946-.258,18.915,18.915,0,0,1,16.8,10.418H397.571A19.082,19.082,0,0,1,416.035,175.5Z" transform="translate(-397.571 -159.185)" fill="#fff"/></g></g></g></svg>