<svg xmlns="http://www.w3.org/2000/svg" width="93.319" height="93.381" viewBox="0 0 93.319 93.381"><path d="M11,13.918h7.675L19.9,12.459,18.675,11H11v2.918Z" transform="translate(5.05 5.05)" fill="#cde3fa"/><path d="M17.509,35.018A17.509,17.509,0,1,1,35.018,17.509,17.509,17.509,0,0,1,17.509,35.018Zm0-32.1A14.591,14.591,0,1,0,32.1,17.509,14.591,14.591,0,0,0,17.509,2.918Z" fill="#cde3fa"/><path d="M12.459,26.3A1.459,1.459,0,0,1,11,24.836V20.459a1.459,1.459,0,0,1,2.918,0v4.377A1.459,1.459,0,0,1,12.459,26.3Z" transform="translate(5.05 8.722)" fill="#cde3fa"/><path d="M12.459,7.3A1.459,1.459,0,0,1,11,5.836V1.459a1.459,1.459,0,1,1,2.918,0V5.836A1.459,1.459,0,0,1,12.459,7.3Z" transform="translate(5.05)" fill="#cde3fa"/><path d="M5.836,13.918H1.459a1.459,1.459,0,1,1,0-2.918H5.836a1.459,1.459,0,1,1,0,2.918Z" transform="translate(0 5.05)" fill="#cde3fa"/><path d="M23.836,13.918H19.459a1.459,1.459,0,1,1,0-2.918h4.377a1.459,1.459,0,0,1,0,2.918Z" transform="translate(8.263 5.05)" fill="#cde3fa"/><path d="M12.459,16.214A1.459,1.459,0,0,1,11,14.754v-7.3a1.459,1.459,0,1,1,2.918,0v7.3A1.459,1.459,0,0,1,12.459,16.214Z" transform="translate(5.05 2.754)" fill="#cde3fa"/><path d="M58.964,53.715h0a3.56,3.56,0,0,1-2.918-1.226c-1.649-2.014-.5-5.544,2.67-8.215s6.858-3.122,8.463-1.153a4.144,4.144,0,0,1,.306,4.261,10.4,10.4,0,0,1-2.991,3.94,9.163,9.163,0,0,1-5.53,2.393Zm5.4-8.988a6.478,6.478,0,0,0-3.808,1.693c-2.116,1.78-2.7,3.735-2.305,4.217a.978.978,0,0,0,.715.2h0A6.478,6.478,0,0,0,62.757,49.1a7.675,7.675,0,0,0,2.189-2.831c.292-.715.277-1.211.131-1.386a.978.978,0,0,0-.73-.175Z" transform="translate(25.385 19.239)" fill="#d0e7fc"/><path d="M63.509,65.132a4.377,4.377,0,0,1-4.377,4.377H50.377A4.377,4.377,0,0,1,46,65.132V56.377A4.377,4.377,0,0,1,50.377,52h8.754a4.377,4.377,0,0,1,4.377,4.377Zm-2.918-8.754a1.459,1.459,0,0,0-1.459-1.459H50.377a1.459,1.459,0,0,0-1.459,1.459v8.754a1.459,1.459,0,0,0,1.459,1.459h8.754a1.459,1.459,0,0,0,1.459-1.459Z" transform="translate(21.118 23.872)" fill="#d0e7fc"/><path d="M51.963,55.14c-3.239,0-4.713-5.4-4.713-10.418S48.709,34.29,51.963,34.29s4.713,5.4,4.713,10.432S55.2,55.14,51.963,55.14Zm0-17.947c-.394.233-1.722,2.8-1.722,7.514s1.226,7.077,1.795,7.485c.569-.409,1.795-2.918,1.795-7.47s-1.415-7.3-1.941-7.514Z" transform="translate(21.691 15.742)" fill="#d0e7fc"/><path d="M53.92,55.173a2.814,2.814,0,0,1-2.86-2.524c-.379-2.218.948-5.836,3.443-9.338,2.1-2.918,5.53-6.391,8.3-6.391a2.918,2.918,0,0,1,1.663.511c.89.627,1.765,2.028.9,5.107A21.3,21.3,0,0,1,62.207,48.8C60.15,51.73,56.721,55.173,53.92,55.173Zm8.754-15.408c-.817.088-3.312,1.736-5.836,5.253s-3.152,6.507-2.918,7.208c.948,0,3.4-1.707,5.836-5.151C62.674,43.179,63.039,40.261,62.674,39.765Z" transform="translate(23.411 16.949)" fill="#d0e7fc"/><path d="M49.786,53.971a9.192,9.192,0,0,1-6.026-2.918,9.323,9.323,0,0,1-3.049-6.07,3.677,3.677,0,0,1,.992-2.656c1.824-1.868,5.734-.978,8.682,1.955s3.94,6.8,2.057,8.754a3.6,3.6,0,0,1-2.656.934Zm-5.428-9.805a.584.584,0,0,0-.73.715,6.61,6.61,0,0,0,2.174,4,6.522,6.522,0,0,0,3.969,2.13.875.875,0,0,0,.569-.16c.438-.452,0-2.524-2.028-4.552a6.537,6.537,0,0,0-3.954-2.189Z" transform="translate(18.688 18.983)" fill="#d0e7fc"/><path d="M66.684,56.754H46.257a4.377,4.377,0,0,1,0-8.754H66.684a4.377,4.377,0,0,1,0,8.754ZM46.257,50.918a1.459,1.459,0,1,0,0,2.918H66.684a1.459,1.459,0,0,0,0-2.918Z" transform="translate(19.226 22.036)" fill="#d0e7fc"/><path d="M48.334,33l.73,9.717L42.5,50.509H38.12l-3.56-3.764-3.56-4V33Z" transform="translate(14.231 15.15)" fill="#66daac"/><path d="M61.377,21.624c0,7.179-2.1,13.394-10.856,16.531V46.91H33.013V38.156a18.4,18.4,0,0,1-9.572-16.488,18.968,18.968,0,1,1,37.936,0Z" transform="translate(10.76 1.24)" fill="#fff"/><path d="M43.28,1.92A20.194,20.194,0,0,0,22.94,21.983a21.055,21.055,0,0,0,10.3,17.363V57a1.459,1.459,0,0,0,.292.992l2.918,3.2,2.918,3.035a1.547,1.547,0,0,0,1.007.554h5.836a1.59,1.59,0,0,0,1.036-.54L53.172,58.4a1.693,1.693,0,0,0,.525-1.094V39.346A20.879,20.879,0,0,0,63.823,21.983,20.427,20.427,0,0,0,43.28,1.92Zm7.47,54.715-5.165,5.224H40.96l-4.8-5.428V47.268H50.75Zm.7-19.464-.7.409v6.77H36.159V37.58l-.89-.409A17.071,17.071,0,0,1,25.8,21.983a17.509,17.509,0,0,1,35.018,0,17,17,0,0,1-9.367,15.2Z" transform="translate(10.531 0.881)" fill="#6b72ff"/><path d="M45.094,39.918H36.339a1.459,1.459,0,0,1,0-2.918h8.754a1.459,1.459,0,1,1,0,2.918Z" transform="translate(16.013 16.986)" fill="#5592bc"/><path d="M27.919,23.41a1.459,1.459,0,0,1-1.459-1.459A16.619,16.619,0,0,1,43.123,5.42a1.459,1.459,0,0,1,0,2.918A13.7,13.7,0,0,0,29.378,21.951a1.459,1.459,0,0,1-1.459,1.459Z" transform="translate(12.147 2.488)" fill="#66daac"/><line x1="2.918" transform="translate(61.281 46.691)" fill="none" stroke="#5592bc" stroke-miterlimit="10" stroke-width="2"/><path d="M49.368,45.754V68.2a1.459,1.459,0,0,1-2.918,0V55.063a4.377,4.377,0,0,0-8.754,0v2.918a1.459,1.459,0,0,1-2.918,0V42.953c0-3.327-1.853-5.953-4.552-5.953H8.339a1.459,1.459,0,1,0,0,2.918H30.225c.365,0,1.649.554,1.649,3.035V57.982a4.377,4.377,0,0,0,8.754,0V55.063a1.459,1.459,0,1,1,2.918,0V68.2a4.377,4.377,0,0,0,8.754,0V45.754Z" transform="translate(3.158 16.986)" fill="#6b72ff"/></svg>