<?xml version="1.0" encoding="utf-8"?>
<!-- Generator: Adobe Illustrator 19.0.0, SVG Export Plug-In . SVG Version: 6.00 Build 0)  -->
<svg version="1.1" id="Layer_1" xmlns="http://www.w3.org/2000/svg" xmlns:xlink="http://www.w3.org/1999/xlink" x="0px" y="0px"
	 viewBox="-883 606.2 152 68.8" style="enable-background:new -883 606.2 152 68.8;" xml:space="preserve">
<style type="text/css">
	.st0{enable-background:new    ;}
	.st1{fill:#000F20;}
	.st2{fill:#16A085;}
	.st3{fill:#34495E;}
</style>
<g class="st0">
	<path class="st1" d="M-860,625.3v4.8l-13.6,15h13.8v5.2h-21v-4.8l13.6-15h-13.3v-5.2H-860z"/>
	<path class="st1" d="M-846.1,650.2c-3.5,0-6.4-1.1-8.5-3.4c-2.1-2.3-3.2-5.3-3.2-9.1s1.1-6.8,3.2-9.1c2.1-2.3,4.9-3.4,8.5-3.4
		c2.4,0,4.5,0.5,6.3,1.6c1.8,1.1,3.2,2.6,4.1,4.6l-4.7,2.2c-1-2.1-2.9-3.2-5.7-3.2c-2.4,0-4.2,0.8-5.3,2.4c-0.8,1.2-1.2,2.9-1.2,4.9
		s0.4,3.7,1.2,4.9c1.1,1.6,2.9,2.4,5.3,2.4c2.8,0,4.8-1.1,5.8-3.3l4.7,2.1c-0.9,2-2.3,3.5-4.1,4.6
		C-841.6,649.7-843.7,650.2-846.1,650.2z"/>
	<path class="st1" d="M-826.5,650.2h-5.2v-24.9h5.2v2.1c1-0.9,2.3-1.5,3.7-1.8l0.3-0.1c0.8-0.2,1.7-0.2,2.5-0.2v5.2
		c-2.4,0-4.2,0.8-5.3,2.4c-0.8,1.2-1.2,2.9-1.2,4.9V650.2z"/>
	<path class="st1" d="M-795.8,640h-18c0.7,3.4,2.8,5.1,6.6,5.1c1.5,0,2.8-0.3,4-0.8c1.1-0.6,1.9-1.4,2.4-2.4l4.6,2.3
		c-0.9,1.9-2.4,3.4-4.3,4.5c-1.9,1.1-4.2,1.6-6.7,1.6c-3.6,0-6.5-1.1-8.7-3.4c-2.2-2.3-3.3-5.3-3.3-9.1s1.1-6.8,3.2-9.1
		c2.1-2.3,4.9-3.4,8.5-3.4c3.1,0,5.7,0.9,7.7,2.6c2,1.7,3.3,4.1,3.8,7.2c0.1,0.8,0.2,1.6,0.2,2.4v0.2V640z M-801.2,635.1
		c-0.7-3.1-2.8-4.7-6.2-4.7c-3.4,0-5.5,1.6-6.2,4.7H-801.2z"/>
	<path class="st1" d="M-768.4,640h-18c0.7,3.4,2.8,5.1,6.6,5.1c1.5,0,2.8-0.3,4-0.8c1.1-0.6,1.9-1.4,2.4-2.4l4.6,2.3
		c-0.9,1.9-2.4,3.4-4.3,4.5c-1.9,1.1-4.2,1.6-6.7,1.6c-3.6,0-6.5-1.1-8.7-3.4c-2.2-2.3-3.3-5.3-3.3-9.1s1.1-6.8,3.2-9.1
		c2.1-2.3,4.9-3.4,8.5-3.4c3.1,0,5.7,0.9,7.7,2.6c2,1.7,3.3,4.1,3.8,7.2c0.1,0.8,0.2,1.6,0.2,2.4v0.2V640z M-773.9,635.1
		c-0.7-3.1-2.8-4.7-6.2-4.7c-3.4,0-5.5,1.6-6.2,4.7H-773.9z"/>
	<path class="st1" d="M-748.9,626.4c1.8,0.9,3.3,2.4,4.3,4.3c1,2,1.5,4.3,1.5,7v12.5h-5.2v-12.5c0-2-0.3-3.7-1-4.9
		c-0.9-1.6-2.4-2.4-4.5-2.4c-2,0-3.5,0.8-4.4,2.3c-0.7,1.2-1.1,2.8-1.1,4.8v12.6h-5.2v-24.9h5.2v1.5c0.2-0.2,0.4-0.3,0.7-0.4
		c1.4-0.7,3-1.1,4.8-1.1S-750.3,625.6-748.9,626.4z"/>
</g>
<g class="st0">
	<path class="st2" d="M-736.1,644.6c0.8,0,1.4,0.3,2,0.8c0.6,0.5,0.8,1.2,0.8,2c0,0.8-0.3,1.5-0.8,2c-0.5,0.6-1.2,0.8-2,0.8
		c-0.8,0-1.5-0.3-2-0.8c-0.6-0.5-0.8-1.2-0.8-2c0-0.8,0.3-1.4,0.8-2C-737.6,644.8-736.9,644.6-736.1,644.6z"/>
</g>
<g class="st0">
	<path class="st3" d="M-801.9,670h-1.9v-11.3h1.9v1c0.2-0.2,0.5-0.4,0.8-0.6c0.6-0.3,1.4-0.5,2.2-0.5c0.8,0,1.5,0.2,2.2,0.5
		c0.8,0.4,1.4,1,1.8,1.8c0.4-0.8,0.9-1.4,1.6-1.8c0.6-0.3,1.4-0.5,2.2-0.5c0.8,0,1.5,0.2,2.2,0.5c0.8,0.4,1.5,1.1,1.9,2
		c0.5,0.9,0.7,2,0.7,3.2v5.6h-1.9v-5.6c0-1.2-0.3-2.1-0.8-2.8c-0.5-0.6-1.2-1-2.2-1c-0.9,0-1.6,0.3-2.1,0.9
		c-0.5,0.6-0.8,1.5-0.8,2.6v0.3v5.6h-1.9v-5.6c0-1.2-0.3-2.1-0.8-2.8c-0.5-0.6-1.2-1-2.2-1c-0.9,0-1.6,0.3-2.1,0.9s-0.8,1.5-0.8,2.6
		V670z"/>
	<path class="st3" d="M-774.1,665.1h-8.6c0,0.1,0,0.3,0,0.4c0.1,0.7,0.4,1.3,0.9,1.8c0.6,0.6,1.4,0.9,2.5,0.9c0.7,0,1.3-0.1,1.9-0.4
		c0.5-0.3,1-0.6,1.3-1.1l1.7,0.8c-0.4,0.8-1.1,1.4-1.9,1.8s-1.8,0.7-2.9,0.7c-1.6,0-2.9-0.5-3.9-1.5c-1-1-1.5-2.3-1.5-4v-0.1
		c0-1.7,0.5-3.1,1.4-4.1c1-1,2.2-1.5,3.8-1.5c1.4,0,2.6,0.4,3.5,1.2c0.9,0.8,1.5,1.9,1.7,3.3c0.1,0.4,0.1,0.7,0.1,1.1V665.1z
		 M-776.1,663.4c0-0.1,0-0.2,0-0.3l0-0.1c-0.4-1.6-1.5-2.4-3.2-2.4c-1,0-1.8,0.3-2.4,0.8c-0.4,0.4-0.7,1-0.9,1.6
		c0,0.1,0,0.2-0.1,0.4H-776.1z"/>
	<path class="st3" d="M-768.1,669.9l-0.1,0c-1.3-0.3-2.2-0.9-2.9-1.9s-1.1-2.2-1.1-3.7c0-1.5,0.4-2.7,1.1-3.7s1.7-1.6,3-1.8l0.1,0
		c0.4-0.1,0.7-0.1,1.1-0.1s0.8,0,1.1,0.1l0.1,0c0.9,0.2,1.6,0.6,2.1,1.3v-6.9h1.9V670h-1.9v-1.4c-0.5,0.6-1.2,1.1-2.1,1.3l-0.1,0
		c-0.4,0.1-0.8,0.1-1.1,0.1C-767.4,670-767.8,670-768.1,669.9z M-770.4,664.4c0,1.2,0.3,2.2,0.9,2.8c0.6,0.6,1.4,1,2.5,1
		s1.9-0.3,2.5-1c0.6-0.6,0.9-1.6,0.9-2.8v0c0-1.2-0.3-2.1-0.9-2.8c-0.6-0.6-1.4-1-2.5-1s-1.9,0.3-2.5,1
		C-770.1,662.2-770.4,663.1-770.4,664.4z"/>
	<path class="st3" d="M-757.9,656.6c-0.3,0-0.5-0.1-0.7-0.3c-0.2-0.2-0.3-0.5-0.3-0.8c0-0.3,0.1-0.5,0.3-0.8
		c0.2-0.2,0.4-0.3,0.7-0.3c0.3,0,0.5,0.1,0.8,0.3c0.2,0.2,0.3,0.5,0.3,0.8c0,0.3-0.1,0.5-0.3,0.8
		C-757.4,656.5-757.6,656.6-757.9,656.6z M-758.8,658.7h1.9V670h-1.9V658.7z"/>
	<path class="st3" d="M-750.9,669.9l-0.1,0c-1.3-0.3-2.2-0.9-2.9-1.9s-1.1-2.2-1.1-3.7c0-1.5,0.4-2.7,1.1-3.7s1.7-1.6,3-1.8l0.1,0
		c0.4-0.1,0.7-0.1,1.1-0.1s0.8,0,1.1,0.1l0.1,0c0.9,0.2,1.6,0.6,2.1,1.3v-1.4h1.9V670h-1.9v-1.4c-0.5,0.6-1.2,1.1-2.1,1.3l-0.1,0
		c-0.4,0.1-0.8,0.1-1.1,0.1C-750.1,670-750.5,670-750.9,669.9z M-753.1,664.4c0,1.2,0.3,2.2,0.9,2.8c0.6,0.6,1.4,1,2.5,1
		s1.9-0.3,2.5-1c0.6-0.6,0.9-1.6,0.9-2.8v0c0-1.2-0.3-2.1-0.9-2.8c-0.6-0.6-1.4-1-2.5-1s-1.9,0.3-2.5,1
		C-752.8,662.2-753.1,663.1-753.1,664.4z"/>
</g>
</svg>
