<svg xmlns="http://www.w3.org/2000/svg" xmlns:xlink="http://www.w3.org/1999/xlink" width="906.701" height="689.206" viewBox="0 0 906.701 689.206"><defs><clipPath id="a"><path d="M897.674,429.827a61.357,61.357,0,0,0,12.23,79.927c9.073,7.6,19.975,16.192,33.023,25.691,34.478,25.109,103.317,60.14,22.428,158.964-94.9,115.942-353.628,59.423-533.659,25.311-280.281-53.111-278.111-292.844-118.98-323,127.42-24.139,202.347-22.5,239.144-99.345C635.715,122.246,1048.8,192.482,897.674,429.827Z" transform="translate(-204.478 -199.727)" fill="none"/></clipPath></defs><g transform="translate(-191.08 -164.81)"><path d="M897.674,429.827a61.357,61.357,0,0,0,12.23,79.927c9.073,7.6,19.975,16.192,33.023,25.691,34.478,25.109,111.221,133.108,40.845,134.708s-260.125,4.9-355.753-9.03-132.1,19.366-186.647,9.03C161.092,617.042,153.586,426.876,312.716,396.724c127.42-24.139,202.347-22.5,239.144-99.345C635.715,122.246,1048.8,192.482,897.674,429.827Z" transform="translate(45.067 90.097)" fill="#eaebfb"/><g transform="translate(239.545 289.824)"><g clip-path="url(#a)"><path d="M972.771,505.4c202.21,145.558-227.34,215.772-289.636-45.073S202.5,425.609,202.5,425.609L474.645,184.461H946.461Z" transform="translate(-209.654 -239.684)" fill="#e1e2f5"/></g></g><g transform="translate(287.873 424.646)"><path d="M274.5,517.933c-1.559.282-41.785.17-47.913-36.5s18.076-48.774,6.605-89.057-30.307-50.036,5.289-84.6c0,0,16.025-14.112,14.853-31.135-1.407-20.377,30.813-48,55.864-37.234s21.983,32.3,5.857,68.449,3.929,39.777,9.069,50.25,15.443,20.887-2,49.4,10.729,57.535-3.795,84.586C318.324,492.093,305.178,512.4,274.5,517.933Z" transform="translate(-217.837 -236.997)" fill="#93b7fa"/><g transform="translate(34.399 62.396)"><path d="M251.842,528.6a1.686,1.686,0,0,0,1.006-2.08C218.333,416.43,243.753,257.8,244.013,256.2a1.685,1.685,0,0,0-3.324-.546c-.264,1.6-25.81,161.026,8.942,271.867a1.685,1.685,0,0,0,2.113,1.107Z" transform="translate(-216.755 -254.246)" fill="#648bd4"/><path d="M246.728,300.29a1.9,1.9,0,0,0,.26-.127,1.69,1.69,0,0,0,.586-2.312c-.112-.188-11.3-19.046-16.926-35.61a1.686,1.686,0,1,0-3.194,1.082c5.741,16.908,17.107,36.062,17.222,36.254A1.689,1.689,0,0,0,246.728,300.29Z" transform="translate(-227.301 -236.315)" fill="#648bd4"/><path d="M233.9,301.16a1.7,1.7,0,0,0,.615-.412c7.6-7.948,27.243-23.546,27.442-23.7a1.686,1.686,0,1,0-2.1-2.641c-.814.644-20.019,15.895-27.782,24.012a1.688,1.688,0,0,0,1.823,2.742Z" transform="translate(-216.202 -202.45)" fill="#648bd4"/><path d="M244.176,309.084a1.567,1.567,0,0,0,.329-.166,1.69,1.69,0,0,0,.474-2.341l-14.542-21.932a1.687,1.687,0,1,0-2.811,1.867l14.542,21.932A1.684,1.684,0,0,0,244.176,309.084Z" transform="translate(-227.347 -176.656)" fill="#648bd4"/></g></g><path d="M390.139,259.323s-7.108-9.34-11.467-13.62c-7.846-7.709-16.846-21.336-45.63-11.294a63.1,63.1,0,0,0-6.558,2.858c-2.536,1.23-10.4,1.259-18.445-6.041-12.791-11.6-17.794-20.352-35.317-20.623-20.391-.318-23.6,28.715-39.444,36.145-10.085,4.732-36.7,9.431-42.2,11.529Z" transform="translate(0 118.56)" fill="#ecedfd"/><path d="M478.762,192.7a100.649,100.649,0,0,0-7.361-7.658c-5.043-4.337-10.823-12-29.308-6.352a44.224,44.224,0,0,0-4.211,1.61c-1.628.691-6.678.709-11.847-3.4-8.215-6.522-11.427-11.445-22.681-11.6-13.1-.177-15.157,16.148-25.336,20.326-6.475,2.659-23.564,5.3-27.1,6.479Z" transform="translate(418.365 0)" fill="none" stroke="#eaebfb" stroke-linecap="round" stroke-linejoin="round" stroke-width="0.99"/><path d="M406.082,229.025a89.185,89.185,0,0,1,6.526-6.786c4.464-3.842,9.586-10.628,25.962-5.625a38.409,38.409,0,0,1,3.733,1.422c1.443.615,5.915.629,10.494-3.006,7.278-5.781,10.125-10.14,20.095-10.277,11.6-.156,13.428,14.307,22.446,18.007,5.737,2.355,20.876,4.7,24.009,5.741Z" transform="translate(562.75 103.247)" fill="#ecedfd"/><g transform="translate(424.772 374.82)"><path d="M383.739,226.833l-1.262-3.61-1.259,3.61a12.614,12.614,0,0,1-7,7.13h0a12.615,12.615,0,0,1,7,7.13l1.259,3.61,1.262-3.61a12.615,12.615,0,0,1,7-7.13h0A12.615,12.615,0,0,1,383.739,226.833Z" transform="translate(54.565 -223.223)" fill="#fff"/><path d="M404.091,310.448l-1.262-3.61-1.259,3.61a12.6,12.6,0,0,1-7,7.13h0a12.62,12.62,0,0,1,7,7.133l1.259,3.61,1.262-3.61a12.6,12.6,0,0,1,7-7.133h0A12.583,12.583,0,0,1,404.091,310.448Z" transform="translate(107.835 -4.368)" fill="#fff"/><path d="M271.653,267.616l-2.113-6.056-2.116,6.056c-1.78,5.1-6.012,9.409-11.742,11.956h0c5.73,2.547,9.962,6.851,11.742,11.956l2.116,6.056,2.113-6.056c1.783-5.1,6.012-9.409,11.742-11.956h0C277.665,277.024,273.436,272.72,271.653,267.616Z" transform="translate(-255.682 -122.879)" fill="#fff"/></g><g transform="translate(311.79 203.712)"><path d="M322.911,241.26a39.837,39.837,0,0,0-30.665-65.338h-27.9a39.895,39.895,0,1,0,0,79.789h27.9a39.474,39.474,0,0,0,17.794-4.261l19.99,10.957Z" transform="translate(-224.449 -175.922)" fill="#6b72ff"/><g transform="translate(27.069 15.414)"><path d="M271.764,200.48a3.255,3.255,0,0,0-3.277-3.039H252.541s.807-6.775.6-8.052-3.086-8.32-3.086-8.32a2.236,2.236,0,0,0-2.416-.8c-1.61.4-1.812,1.476-1.812,1.476l.336,7.448c-.738,3.556-6.978,11.406-6.978,11.406l-2.015,1.545v17.175l.749,1.049a4.231,4.231,0,0,0,3.44,1.773h22.616a3.189,3.189,0,0,0,1.2-6.146h.228a3.244,3.244,0,0,0,3.27-3.028,3.191,3.191,0,0,0-1.906-3.089h.061a3.188,3.188,0,0,0,1.411-6.048h.336A3.191,3.191,0,0,0,271.764,200.48Z" transform="translate(-218.212 -180.183)" fill="#fff"/><path d="M245.186,184.79h-10.44a2.811,2.811,0,0,0-2.811,2.811l0,20.927a2.812,2.812,0,0,0,2.811,2.814h10.443A2.811,2.811,0,0,0,248,208.531V187.6A2.811,2.811,0,0,0,245.186,184.79Z" transform="translate(-231.932 -168.125)" fill="#fff"/></g></g><g transform="translate(476.732 234.601)"><rect width="265.569" height="525.386" rx="7.686" fill="#c9cdea"/><rect width="227.075" height="437.712" rx="6.487" transform="translate(18.79 15.718)" fill="#fff"/><path d="M342.566,335.183A20.778,20.778,0,1,1,321.787,314.4,20.78,20.78,0,0,1,342.566,335.183Z" transform="translate(-189.003 155.646)" fill="none" stroke="#8b94c8" stroke-miterlimit="10" stroke-width="1.038"/></g><g transform="translate(436.951 249.626)"><path d="M511.026,195.578H273.843a6.962,6.962,0,0,1,6.964-6.963H504.062a6.962,6.962,0,0,1,6.964,6.963Z" transform="translate(-220.326 -188.613)" fill="#bec2df"/><g transform="translate(0 6.964)"><g transform="translate(0 64.627)"><g transform="translate(0 0.001)"><path d="M0,0H38.061a0,0,0,0,1,0,0V22.066a4.211,4.211,0,0,1-4.211,4.211H4.211A4.211,4.211,0,0,1,0,22.066V0A0,0,0,0,1,0,0Z" fill="#bec2df"/></g><g transform="translate(38.061 0.001)"><path d="M0,0H41.021a0,0,0,0,1,0,0V22.066a4.212,4.212,0,0,1-4.212,4.212H4.211A4.211,4.211,0,0,1,0,22.066V0A0,0,0,0,1,0,0Z" fill="#6d99d7"/></g><g transform="translate(79.081)"><path d="M304.033,234.682h-7.886a15.235,15.235,0,0,1-15.237-15.233V208.4h38.359v11.044A15.235,15.235,0,0,1,304.033,234.682Z" transform="translate(-280.91 -208.405)" fill="#bec2df"/></g><g transform="translate(117.439 0.001)"><path d="M0,0H36.306a0,0,0,0,1,0,0V22.066a4.211,4.211,0,0,1-4.211,4.211H4.211A4.211,4.211,0,0,1,0,22.066V0A0,0,0,0,1,0,0Z" fill="#6d99d7"/></g></g><g transform="translate(0.005)"><path d="M312.563,190.54,259.05,255.177h172.1V190.54Z" transform="translate(-259.05 -190.54)" fill="#e3e4f7"/><path d="M308.158,190.54,269.57,255.17H403.619V190.54Z" transform="translate(-231.515 -190.54)" fill="#95b9fc"/><path d="M306.266,190.54l-25.355,64.63h93.023V190.54Z" transform="translate(-201.831 -190.54)" fill="#e3e4f7"/><path d="M304.508,190.54l-12.995,64.63h54.669V190.54Z" transform="translate(-174.079 -190.54)" fill="#95b9fc"/></g><g transform="translate(153.748)"><path d="M301.551,208.406V221.9c0,7.061,8.128,12.784,18.152,12.784h.416c10.024,0,18.152-5.723,18.152-12.784V208.406Z" transform="translate(-301.551 -143.775)" fill="#bec2df"/><g transform="translate(36.725 64.627)"><g transform="translate(115.684)"><path d="M358.916,234.682h7.593a15.234,15.234,0,0,0,15.236-15.233V208.4H343.683v11.044A15.231,15.231,0,0,0,358.916,234.682Z" transform="translate(-343.683 -208.405)" fill="#bec2df"/></g><g transform="translate(74.663 0.001)"><path d="M4.211,0h32.6A4.211,4.211,0,0,1,41.02,4.211V26.277a0,0,0,0,1,0,0H0a0,0,0,0,1,0,0V4.211A4.211,4.211,0,0,1,4.211,0Z" transform="translate(41.02 26.277) rotate(180)" fill="#6d99d7"/></g><g transform="translate(36.307)"><path d="M336.973,234.682h7.89A15.231,15.231,0,0,0,360.1,219.449V208.4H321.74v11.044A15.232,15.232,0,0,0,336.973,234.682Z" transform="translate(-321.74 -208.405)" fill="#bec2df"/></g><g transform="translate(0 0.001)"><path d="M4.211,0H32.095a4.211,4.211,0,0,1,4.211,4.211V26.277a0,0,0,0,1,0,0H0a0,0,0,0,1,0,0V4.211A4.211,4.211,0,0,1,4.211,0Z" transform="translate(36.306 26.277) rotate(180)" fill="#6d99d7"/></g></g><g transform="translate(0.001)"><path d="M425.218,190.54H306.627v64.637h172.1Z" transform="translate(-288.267 -190.54)" fill="#e3e4f7"/><path d="M402.088,190.54H306.627v64.63H440.675Z" transform="translate(-288.267 -190.54)" fill="#95b9fc"/><path d="M306.627,190.54v64.63H399.65L374.3,190.54Z" transform="translate(-288.267 -190.54)" fill="#e3e4f7"/><path d="M306.627,190.54v64.63H361.3L348.3,190.54Z" transform="translate(-288.267 -190.54)" fill="#95b9fc"/><path d="M306.8,190.54l-5.249,64.63h36.72l-5.249-64.63Z" transform="translate(-301.551 -190.54)" fill="#e3e4f7"/></g></g></g><rect width="27.607" height="6.964" transform="translate(76.648)" fill="#6d99d7"/><rect width="27.793" height="6.964" transform="translate(239.777)" fill="#6d99d7"/><rect width="28.564" height="6.964" transform="translate(130.434)" fill="#6d99d7"/><rect width="28.564" height="6.964" transform="translate(185.22)" fill="#6d99d7"/></g><g transform="translate(525.875 393.739)"><rect width="164.102" height="141.37" rx="4.319" transform="translate(0 98.378)" fill="#ecedfd"/><rect width="164.102" height="66.261" rx="4.319" fill="#ecedfd"/><path d="M379.393,268.689H293.628a2.98,2.98,0,0,1-2.977-2.977h0a2.977,2.977,0,0,1,2.977-2.977h85.765a2.974,2.974,0,0,1,2.974,2.977h0A2.977,2.977,0,0,1,379.393,268.689Z" transform="translate(-265.256 -138.723)" fill="#583bf9"/><path d="M351.246,273.925H293.628a2.977,2.977,0,0,1-2.977-2.977h0a2.976,2.976,0,0,1,2.977-2.973h57.618a2.974,2.974,0,0,1,2.974,2.973h0A2.974,2.974,0,0,1,351.246,273.925Z" transform="translate(-265.256 -125.01)" fill="#583bf9"/><g transform="translate(25.397 161.804)"><path d="M299.3,273.182l2.672,5.414,5.975.868-4.323,4.214,1.021,5.951-5.344-2.81-5.344,2.81,1.021-5.951-4.323-4.214,5.975-.868Z" transform="translate(-290.652 -273.182)" fill="#583bf9"/><path d="M305.934,273.182l2.672,5.414,5.975.868-4.323,4.214,1.021,5.951-5.344-2.81-5.344,2.81,1.021-5.951-4.324-4.214,5.975-.868Z" transform="translate(-273.283 -273.182)" fill="#583bf9"/><path d="M312.57,273.182l2.672,5.414,5.975.868-4.324,4.214,1.021,5.951-5.344-2.81-5.344,2.81,1.02-5.951-4.323-4.214,5.975-.868Z" transform="translate(-255.915 -273.182)" fill="#583bf9"/><path d="M319.2,273.182l2.672,5.414,5.975.868-4.324,4.214,1.021,5.951-5.344-2.81-5.344,2.81,1.021-5.951-4.323-4.214,5.975-.868Z" transform="translate(-238.547 -273.182)" fill="#95b9fc"/><path d="M325.841,273.182l2.672,5.414,5.975.868-4.324,4.214,1.021,5.951-5.344-2.81-5.344,2.81,1.021-5.951-4.324-4.214,5.975-.868Z" transform="translate(-221.179 -273.182)" fill="#95b9fc"/></g><path d="M1.814,0h109.68a1.815,1.815,0,0,1,1.815,1.815V27.281a1.814,1.814,0,0,1-1.814,1.814H1.814A1.814,1.814,0,0,1,0,27.281V1.814A1.814,1.814,0,0,1,1.814,0Z" transform="translate(25.397 188.324)" fill="#95b9fc"/></g><g transform="translate(669.936 402.372)"><path d="M401.636,265.267l-24.107,21.574-41.336-29.525-9.962,9.127,49.222,41.723a5.427,5.427,0,0,0,7.785.141l28.733-25.832Z" transform="translate(-316.19 -161.54)" fill="#e5be9c"/><path d="M370.853,252.371s-1.935-1.339-25.944,25.535l18.659,25.025,10.867-12.013Z" transform="translate(-267.302 -174.512)" fill="#fe587c"/><path d="M366.888,271.29,395.357,289.3l1.454,62.064,12.176,5.853,6.935-73.922a5.424,5.424,0,0,0-2.767-7.278l-34.141-20.721Z" transform="translate(-209.773 -166.833)" fill="#e5be9c"/><path d="M383.55,251.032l-16.619,3.726a10.781,10.781,0,0,0-8.345,9.159L347.5,357.565l69-4.529,4.71-88.261a10.79,10.79,0,0,0-9.861-11.388Z" transform="translate(-260.514 -177.988)" fill="#fe587c"/><g transform="translate(42.983 175.047)"><path d="M390.559,361.5l-5.133-28.456-16.4,2.269,6.093,28.8Z" transform="translate(-247.171 -138.366)" fill="#e5be9c"/><path d="M359.743,362.631l1.016-29.793-16.586-.528.423,29.7Z" transform="translate(-312.213 -140.296)" fill="#e5be9c"/><path d="M351.585,283.76l-5.643,27.676,78.268-3.793-3.626-28.413Z" transform="translate(-307.581 -279.23)" fill="#6b72ff"/><path d="M393,285.148l-17.586,75.845-4.775,115.663-26.313-1.065L342.618,360.27l13.556-71.7Z" transform="translate(-316.282 -263.738)" fill="#6b72ff"/><path d="M370.4,287.655l-20.191.693L366.3,302.861Z" transform="translate(-296.412 -257.177)" fill="#cacaca" opacity="0.44"/><path d="M393.479,288.349l7.97,73.627,23.226,111.466-26.847,5.836L369.479,366.486,357.5,285.157Z" transform="translate(-277.333 -263.715)" fill="#6b72ff"/><g transform="translate(0 221.712)"><path d="M367.642,340.52l15.15.622-.456,22.707-46.969,2.583h0a7.829,7.829,0,0,1,6.193-6.935l25.43-8.787Z" transform="translate(-335.26 -340.52)" fill="#29323d"/><path d="M382.413,346.969l-46.967,2.584-.109,3.506,46.967-2.584Z" transform="translate(-335.337 -323.641)" fill="#c9cdea"/></g><g transform="translate(102.513 223.137)"><path d="M389.106,343.526l15.447-2.612,3.867,22.366L363.7,366.764h0a8.055,8.055,0,0,1,4.742-8.114l22.468-5Z" transform="translate(-363.676 -340.914)" fill="#29323d"/><path d="M408.4,347.1l-44.723,3.485.56,3.462,44.723-3.485Z" transform="translate(-363.661 -324.73)" fill="#c9cdea"/></g></g><g transform="translate(86.468)"><path d="M365.465,283.915l-1.74-.08a8.511,8.511,0,0,1-8.114-8.8l1.114-32.235,18.745.865-1.107,32.039A8.514,8.514,0,0,1,365.465,283.915Z" transform="translate(-325.772 -199.527)" fill="#dfb48f"/><path d="M0,0H46.115a0,0,0,0,1,0,0V43.775a6.272,6.272,0,0,1-6.272,6.272H6.27A6.27,6.27,0,0,1,0,43.777V0A0,0,0,0,1,0,0Z" transform="translate(6.201 19.888) rotate(1.326)" fill="#e5be9c"/><path d="M398.924,272.839l-6.576-.025a2.843,2.843,0,0,1-2.771-3.4c.933-4.735,2.051-12.874-1.024-13.9-4.373-1.458-27.944,4.352-35.874-1.859-11.16-8.743-2.84-22.366,7.336-22.8s8.519,11.319,20.38,11.257,29.92-4.381,21.73,26.939Z" transform="translate(-347.358 -230.84)" fill="#282c3c"/><path d="M370.121,254.625a7.246,7.246,0,1,1,3.556-9.608A7.248,7.248,0,0,1,370.121,254.625Z" transform="translate(-314.674 -204.786)" fill="#e5be9c"/><path d="M350.3,245.288l15.425,1.017s-1.118,6.794-9.405,5.658C349.777,251.069,350.3,245.288,350.3,245.288Z" transform="translate(-339.689 -193.023)" fill="#fff"/></g><path d="M365.994,251.882s3.74.373,34.629,18.934l-13.768,27.7-18.2-9.63Z" transform="translate(-212.113 -175.763)" fill="#fe587c"/><g transform="translate(141.049 195.424)"><g transform="translate(0 18.681)"><path d="M364.979,290.3l77.955-.271,5.509,56.7s-79.33,3.607-79.225,2.59S364.979,290.3,364.979,290.3Z" transform="translate(-355.819 -290.027)" fill="#3d415b"/><path d="M371.605,290.1l-9.158,52.335,13.4,6.682Z" transform="translate(-362.447 -289.83)" fill="#2a2f45"/></g><path d="M398.42,313.836c-.04,0-.083,0-.127,0a1.236,1.236,0,0,1-1.147-1.32c.011-.159,1.02-16.04-4.674-22.544a7.219,7.219,0,0,0-5.166-2.615,6.667,6.667,0,0,0-5.122,1.867c-6.6,5.972-7.307,23.452-7.314,23.629a1.236,1.236,0,0,1-2.471-.09c.025-.763.76-18.709,8.128-25.373a9.185,9.185,0,0,1,6.938-2.5,9.7,9.7,0,0,1,6.866,3.462c6.374,7.275,5.328,23.647,5.278,24.341A1.234,1.234,0,0,1,398.42,313.836Z" transform="translate(-336.399 -284.863)" fill="#fff"/></g><path d="M323.462,267.645a11.222,11.222,0,1,0,10.83-11.6A11.219,11.219,0,0,0,323.462,267.645Z" transform="translate(-323.455 -164.888)" fill="#e5be9c"/><line x1="16.49" y1="12.779" transform="translate(2.007 85.274)" stroke-width="1.522" stroke="#e5be9c" stroke-linecap="round" stroke-linejoin="round" fill="none"/><path d="M373.234,293.5a11.865,11.865,0,1,0,11.449-12.267A11.863,11.863,0,0,0,373.234,293.5Z" transform="translate(-193.181 -98.96)" fill="#e5be9c"/></g><g transform="translate(545.547 409.717)"><path d="M405.17,237.037H291.153a2.084,2.084,0,1,1,0-4.167H405.17a2.084,2.084,0,0,1,0,4.167Z" transform="translate(-289.069 -232.87)" fill="#8992c6"/><path d="M361.7,245.22H291.153a2.084,2.084,0,0,1,0-4.167H361.7a2.084,2.084,0,0,1,0,4.167Z" transform="translate(-289.069 -211.452)" fill="#8992c6"/><path d="M341.182,241.024H291.153a2.082,2.082,0,1,1,0-4.164h50.029a2.082,2.082,0,1,1,0,4.164Z" transform="translate(-289.069 -222.426)" fill="#8992c6"/></g><line x2="885.718" transform="translate(211.835 760.463)" stroke-width="0.458" stroke="#1d2738" stroke-linecap="round" stroke-linejoin="round" fill="none"/></g></svg>