<svg xmlns="http://www.w3.org/2000/svg" xmlns:xlink="http://www.w3.org/1999/xlink" width="86.547" height="86.547" viewBox="0 0 86.547 86.547"><defs><filter id="a" x="0" y="0" width="86.547" height="86.547" filterUnits="userSpaceOnUse"><feOffset dy="3" input="SourceAlpha"/><feGaussianBlur stdDeviation="3" result="b"/><feFlood flood-opacity="0.161"/><feComposite operator="in" in2="b"/><feComposite in="SourceGraphic"/></filter></defs><g transform="translate(965.547 1311.547) rotate(180)"><g transform="matrix(-1, 0, 0, -1, 965.55, 1311.55)" filter="url(#a)"><circle cx="34.274" cy="34.274" r="34.274" transform="translate(77.55 74.55) rotate(180)" fill="#66daac" opacity="0.207"/></g><circle cx="27.914" cy="27.914" r="27.914" transform="translate(894.36 1243.36)" fill="#66daac" opacity="0.683"/><g transform="translate(907.08 1265.083)"><path d="M36.943,33.719a1.091,1.091,0,0,0-1.542,0L21.844,47.3,8.261,33.719a1.09,1.09,0,1,0-1.542,1.542L21.047,49.589a1.065,1.065,0,0,0,.771.319,1.11,1.11,0,0,0,.771-.319L36.917,35.261a1.068,1.068,0,0,0,.027-1.542Z" transform="translate(-6.4 -33.4)" fill="#fff"/></g></g></svg>