<svg xmlns="http://www.w3.org/2000/svg" width="96.316" height="96.284" viewBox="0 0 96.316 96.284"><g transform="translate(0 -0.034)"><path d="M34.383,47.19h3.7a.9.9,0,0,1,.888.767l.6,3.806,3.114-2.257a.888.888,0,0,1,1.174.09l2.6,2.6a.9.9,0,0,1,.09,1.174L44.3,56.488l3.806.6a.9.9,0,0,1,.767.888v3.7a.9.9,0,0,1-.767.888l-3.806.6,2.257,3.114a.9.9,0,0,1-.09,1.174l-2.6,2.618a.9.9,0,0,1-1.174.09l-3.114-2.2-.6,3.806a.9.9,0,0,1-.888.752h-3.7a.9.9,0,0,1-.888-.752l-.6-3.806-3.114,2.257a.9.9,0,0,1-1.174-.09l-2.618-2.618a.9.9,0,0,1-.09-1.174l2.257-3.114-3.806-.6a.9.9,0,0,1-.767-.888V57.993a.9.9,0,0,1,.767-.888l4.378-.707-2.2-3.009a.9.9,0,0,1,.09-1.174L29.237,49.6a.888.888,0,0,1,1.174-.09l2.528,1.82.542-3.37a.9.9,0,0,1,.9-.767ZM37.316,49H35.165l-.647,4.062a.9.9,0,0,1-1.429.587L30,51.418l-1.5,1.5,2.151,3.009a.9.9,0,0,1,0,.963,6.725,6.725,0,0,0-.331.647.888.888,0,0,1-.692.557l-4.273.677v2.167l4.273.677a.9.9,0,0,1,.707.572,1.414,1.414,0,0,1,0,1.083l-2.513,3.46,1.5,1.5,3.491-2.528a.873.873,0,0,1,.873-.105c.286.12.722.466.767.782l.677,4.273H37.3l.692-4.2a.888.888,0,0,1,.557-.692,1.384,1.384,0,0,1,1.1,0L43.139,68.3l1.5-1.5L42.116,63.3a.9.9,0,0,1-.105-.873c.12-.286.466-.722.782-.767l4.273-.677V58.76l-4.273-.677a.918.918,0,0,1-.707-.557,1.414,1.414,0,0,1,0-1.083l2.573-3.521-1.5-1.5-3.491,2.528a.9.9,0,0,1-.873.105c-.286-.12-.722-.466-.767-.782Zm-1.068,6.319a4.514,4.514,0,1,1-4.514,4.514,4.514,4.514,0,0,1,4.514-4.514Zm0,7.222a2.708,2.708,0,1,0-2.708-2.708A2.708,2.708,0,0,0,36.248,62.536Z" transform="translate(11.897 23.792)" fill="#d0e7fc"/><line y2="36.109" transform="translate(49.65 33.083)" fill="none" stroke="#d0e7fc" stroke-linecap="round" stroke-miterlimit="10" stroke-width="2"/><circle cx="4.514" cy="4.514" r="4.514" transform="translate(45.121 24.04)" fill="none" stroke="#d0e7fc" stroke-miterlimit="10" stroke-width="2"/><line x2="33.732" y2="40.502" transform="translate(53.531 32.044)" fill="none" stroke="#d0e7fc" stroke-linecap="round" stroke-miterlimit="10" stroke-width="2"/><line x1="33.732" y2="40.502" transform="translate(11.404 26.026)" fill="none" stroke="#d0e7fc" stroke-linecap="round" stroke-miterlimit="10" stroke-width="2"/><path d="M35.26,50.4c7.056,4.243,10.261-5.627,5.221-9.479Z" transform="translate(17.79 20.628)" fill="#d0e7fc"/><path d="M46.531,36.85c5.687,4.228,2.5,15.256-5.311,9.1Z" transform="translate(20.797 18.575)" fill="#d0e7fc"/><path d="M53.8,34.189l-4-3.009L45.46,40.644l.9.6C53.494,47.158,58.865,38.131,53.8,34.189Z" transform="translate(22.936 15.714)" fill="#d0e7fc"/><path d="M60.607,31.238l-.722-.632h-.09L52.859,25.19l-3.009,8.5,3.235,4.89A7.267,7.267,0,0,0,57.6,40.431a5.13,5.13,0,0,0,3.009-9.193Z" transform="translate(25.151 12.692)" fill="#d0e7fc"/><path d="M33.817,17.01c2.151,14.895-12.473,16.911-12.473,16.911S19.675,23.6,20.592,20.38C21.345,17.9,26.355,12,26.355,12Z" transform="translate(10.251 6.037)" fill="#d0e7fc"/><path d="M72.814,50.131h-.15a8.4,8.4,0,0,1-5.371-2.121L54.444,37.929a1.476,1.476,0,1,1,1.866-2.287L69.188,45.858a5.913,5.913,0,0,0,3.475,1.64,3.265,3.265,0,0,0,3.22-2.332A3.566,3.566,0,0,0,74.74,41.1l-.6-.5-.2-.135-1.279-1.083c-2.648-2.061-2.648-2.046-13.541-10.532l-3.536-2.8H50.2c-4.273,0-7.327-1.038-9.117-3.084a4.3,4.3,0,0,1-1.5-2.934H36.57c-.782,16.55-14.955,17.738-15.045,17.754a1.9,1.9,0,0,1-1.083-.436,1.5,1.5,0,0,1-.451-1.083V22.222a1.5,1.5,0,0,1,.3-.9l9.6-12.728a1.509,1.509,0,1,1,2.407,1.82L23.014,22.733V34.574c3.009-.677,10.652-3.566,10.652-16.038a1.5,1.5,0,0,1,1.5-1.5h5.9a1.5,1.5,0,0,1,1.5,1.7,3.22,3.22,0,0,0,.858,2.3c1.189,1.309,3.536,2.016,6.8,2.016h5.883a1.5,1.5,0,0,1,.933.316L61,26.465c10.833,8.5,10.833,8.5,13.541,10.532l1.158.9a1.5,1.5,0,0,1,.331.226l.466.391a6.394,6.394,0,0,1,2.347,7.523A6.139,6.139,0,0,1,72.814,50.131Z" transform="translate(10.086 4.015)" fill="#6b72ff"/><path d="M13,42l2.558-2.558a4.514,4.514,0,0,1,6.379,0h0a4.514,4.514,0,0,1,0,6.379l-2.5,2.5Z" transform="translate(6.559 19.217)" fill="#d0e7fc"/><path d="M26.363,48.675a4.514,4.514,0,0,1-.692,2.437,4.514,4.514,0,0,1-5.6-.632,4.363,4.363,0,0,1-1.324-3.19,4.754,4.754,0,0,1,.692-2.437,4.6,4.6,0,0,1,5.7.587A4.514,4.514,0,0,1,26.363,48.675Z" transform="translate(9.46 22.246)" fill="#d0e7fc"/><path d="M9.151,34.991l-.451.451a4.514,4.514,0,0,1,6.379,0h0a4.514,4.514,0,0,1,0,6.379l.512-.512Z" transform="translate(4.389 17.199)" fill="#d0e7fc"/><path d="M5.151,28.991l-.451.451a4.514,4.514,0,0,1,6.379,0h0a4.514,4.514,0,0,1,0,6.379l.512-.512Z" transform="translate(2.371 14.172)" fill="#d0e7fc"/><path d="M59.622,11.009H20.5A1.5,1.5,0,1,1,20.5,8H59.622a1.5,1.5,0,1,1,0,3.009Z" transform="translate(9.586 4.019)" fill="#6b72ff"/><path d="M55.475,45.166a8.651,8.651,0,0,1-5.552-2.272L37.075,32.9a1.506,1.506,0,1,1,1.851-2.377L51.8,40.592a4.95,4.95,0,0,0,5.01,1.339,3.761,3.761,0,0,0,2.242-3.009,3.551,3.551,0,0,0-1.5-3.28,1.143,1.143,0,0,1-.406-1.76,1.5,1.5,0,0,1,2.091-.406,6.018,6.018,0,0,1,2.738,5.747,6.755,6.755,0,0,1-4.092,5.507A6.5,6.5,0,0,1,55.475,45.166Z" transform="translate(18.412 15.224)" fill="#6b72ff"/><path d="M47.632,48.671a9.373,9.373,0,0,1-5.792-2.332l-5.717-4.288a1.5,1.5,0,0,1,1.805-2.407l5.747,4.318c1.956,1.5,3.776,2.061,5.191,1.5a3.325,3.325,0,0,0,1.926-2.738,4.243,4.243,0,0,0-1.9-3.957,1.5,1.5,0,0,1,1.76-2.437,7.252,7.252,0,0,1,3.129,6.74,6.319,6.319,0,0,1-3.761,5.176,6.184,6.184,0,0,1-2.392.421Z" transform="translate(17.921 18.188)" fill="#6b72ff"/><path d="M41.5,52.548A8.892,8.892,0,0,1,35.817,50.2l-6.65-5.341a1.5,1.5,0,0,1,1.9-2.332l6.6,5.356c1.805,1.5,3.566,2.016,4.98,1.5a3.822,3.822,0,0,0,2.287-3.009,3.445,3.445,0,0,0-1.324-3.31,1.5,1.5,0,1,1,1.82-2.392A6.469,6.469,0,0,1,47.914,46.8a6.785,6.785,0,0,1-4.183,5.431,6.349,6.349,0,0,1-2.227.316Z" transform="translate(14.464 20.33)" fill="#6b72ff"/><path d="M9.546,31.758,32.49,8.813,24.305,1.02,1.06,24.265l8.124,7.854" transform="translate(0.535 0.497)" fill="#66daac"/><path d="M9.689,34.121A1.5,1.5,0,0,1,8.636,33.7L.512,25.846a1.5,1.5,0,0,1,0-2.151L23.742.464a1.5,1.5,0,0,1,2.106,0l8.185,7.793a1.5,1.5,0,0,1,0,2.151L11.119,33.323l-.2.166-.15.181A1.5,1.5,0,0,1,9.689,34.121ZM3.671,24.747,9.689,30.51,30.843,9.341,24.825,3.624Z" transform="translate(0.03 0)" fill="#6b72ff"/><path d="M11.018,37.036a6.018,6.018,0,1,1,6.018-6.018A6.018,6.018,0,0,1,11.018,37.036Zm0-9.027a3.009,3.009,0,1,0,3.009,3.009A3.009,3.009,0,0,0,11.018,28.009Z" transform="translate(2.523 12.596)" fill="#6b72ff"/><path d="M23.768,58.54a5.913,5.913,0,0,1-4.258-1.79,5.853,5.853,0,0,1-1.76-4.243,6.244,6.244,0,0,1,.9-3.2l.181-.241a8.065,8.065,0,0,1,.677-.8L32.269,35.506a6.139,6.139,0,0,1,8.516,0,5.853,5.853,0,0,1,1.76,4.243,6.018,6.018,0,0,1-1.76,4.258L28.026,56.765a6.65,6.65,0,0,1-1.008.827A6.018,6.018,0,0,1,23.768,58.54Zm12.774-21.8a3.009,3.009,0,0,0-2.136.888L21.647,50.386a5.582,5.582,0,0,0-.436.512,3.144,3.144,0,0,0-.451,1.61,2.874,2.874,0,0,0,.873,2.106,3.009,3.009,0,0,0,3.746.436,3.4,3.4,0,0,0,.527-.421L38.663,41.87a3.009,3.009,0,0,0,.888-2.121,2.874,2.874,0,0,0-.873-2.106A3.009,3.009,0,0,0,36.542,36.739Z" transform="translate(8.955 17.031)" fill="#6b72ff"/><path d="M19.17,51.693a6.018,6.018,0,0,1-4.243-10.261L23.443,32.9a6.169,6.169,0,0,1,8.516,0,6.018,6.018,0,0,1,0,8.516l-8.516,8.516A6.018,6.018,0,0,1,19.17,51.693Zm8.516-17.543a3.009,3.009,0,0,0-2.121.888l-8.516,8.5a3.009,3.009,0,0,0,0,4.258,3.084,3.084,0,0,0,4.258,0l8.516-8.516A3.009,3.009,0,0,0,27.7,34.136Z" transform="translate(6.648 15.723)" fill="#6b72ff"/><path d="M14.631,44.979a5.747,5.747,0,0,1-4.092-1.685l-.331-.346a5.777,5.777,0,0,1,0-8.17l4.514-4.589a5.928,5.928,0,0,1,8.185,0l.331.331a5.777,5.777,0,0,1,0,8.185l-4.514,4.589a5.747,5.747,0,0,1-4.092,1.685Zm4.258-13.541a2.753,2.753,0,0,0-1.956.812L12.419,36.84a2.768,2.768,0,0,0,0,3.927l.331.346a2.844,2.844,0,0,0,3.912,0l4.514-4.589a2.768,2.768,0,0,0,0-3.927l-.331-.331a2.753,2.753,0,0,0-1.956-.752Z" transform="translate(4.296 14.388)" fill="#6b72ff"/><path d="M48.353,24.6a1.5,1.5,0,0,1-1.113-2.513l3.22-3.6a1.5,1.5,0,0,1,1.128-.5h9.027a1.5,1.5,0,1,1,0,3.009H52.25l-2.783,3.1A1.5,1.5,0,0,1,48.353,24.6Z" transform="translate(23.639 9.064)" fill="#6b72ff"/><path d="M12.077,31.484A1.5,1.5,0,0,1,10.648,29.5l1.67-5L8.481,20.772a1.5,1.5,0,1,1,2.091-2.151l4.514,4.393a1.5,1.5,0,0,1,.376,1.5L13.491,30.4A1.5,1.5,0,0,1,12.077,31.484Z" transform="translate(4.006 9.121)" fill="#6b72ff"/><path d="M73,22.926,50.928,1.05,43.24,9.144,65.6,31.5,73,22.926" transform="translate(21.816 0.513)" fill="#66daac"/><path d="M66.085,33.075a1.757,1.757,0,0,1-1.068-.211L42.675,10.6a1.5,1.5,0,0,1,0-2.046L50.318.5A1.5,1.5,0,0,1,51.386.05a1.7,1.7,0,0,1,1.083.436L74.541,22.347a1.5,1.5,0,0,1,.075,2.061l-7.4,8.365c-.271.316-.662.3-1.083.3ZM45.834,9.619l20.1,20.176,5.431-6.289-19.92-19.8Z" transform="translate(21.328 0.008)" fill="#6b72ff"/><rect width="3.009" height="9.027" transform="translate(81.245 84.237)" fill="#d0e7fc"/><rect width="3.009" height="15.045" transform="translate(87.263 78.219)" fill="#d0e7fc"/><rect width="3.009" height="6.018" transform="translate(93.281 87.246)" fill="#d0e7fc"/><rect width="3.009" height="18.054" transform="translate(75.227 75.21)" fill="#d0e7fc"/><rect width="21.064" height="3.009" transform="translate(75.227 93.264)" fill="#d0e7fc"/><path d="M13.541,46A13.541,13.541,0,1,0,27.082,59.541,13.541,13.541,0,0,0,13.541,46Zm8.576,7.523H20.01a9.659,9.659,0,0,0-1.745-3.34,9.779,9.779,0,0,1,3.852,3.34Zm-8.576-1.5c1.174,0,2.392,0,3.28,3.009H10.246C11.134,52.018,12.367,52.018,13.541,52.018ZM8.8,50.183a9.659,9.659,0,0,0-1.745,3.34H4.95A9.779,9.779,0,0,1,8.8,50.183ZM3.445,62.55a13.9,13.9,0,0,1-.436-3.009,13.9,13.9,0,0,1,.451-3.009h2.8a26.224,26.224,0,0,0-.241,3.009,25.818,25.818,0,0,0,.256,3.009Zm1.5,3.009H7.056A9.629,9.629,0,0,0,8.8,68.9a9.779,9.779,0,0,1-3.852-3.34Zm8.591,4.514c-1.174,0-2.392-3.009-3.28-3.009h6.56C15.918,67.064,14.7,70.073,13.541,70.073Zm4.213-6.018H9.313c-.181-3.009-.3-1.926-.3-3.009a10.231,10.231,0,0,1,.3-3.009h8.44a10.231,10.231,0,0,1,.3,3.009C18.054,62.129,17.919,61.045,17.754,64.054Zm.512,4.845a9.629,9.629,0,0,0,1.745-3.34h2.106a9.779,9.779,0,0,1-3.852,3.34Zm5.341-6.349h-2.8a25.818,25.818,0,0,0,.256-3.009,26.254,26.254,0,0,0-.256-3.009h2.813a13.9,13.9,0,0,1,.451,3.009,13.9,13.9,0,0,1-.466,3.009Z" transform="translate(0 23.191)" fill="#d0e7fc"/></g></svg>