<svg xmlns="http://www.w3.org/2000/svg" width="133.246" height="126.583" viewBox="0 0 133.246 126.583"><g transform="translate(0 -1)"><g transform="translate(6.662 32.646)"><rect width="116.59" height="91.606" transform="translate(1.666 1.666)" fill="#fff"/><path d="M118.59,13.831v88.275H5.331V13.831H118.59m3.331-3.331H2v94.937H121.921V10.5Z" transform="translate(-2 -10.5)" fill="#6b72ff"/></g><g transform="translate(29.98 67.623)"><rect width="69.954" height="56.629" transform="translate(1.666 1.666)" fill="#d1eefd"/><path d="M78.954,24.331v53.3H12.331v-53.3H78.954M82.285,21H9V80.96H82.285V21Z" transform="translate(-9 -21)" fill="#6b72ff"/></g><rect width="6.662" height="59.96" transform="translate(63.292 67.623)" fill="#6b72ff"/><g transform="translate(0 1)"><path d="M118.755,58.129A11.672,11.672,0,0,1,107.1,46.47a1.666,1.666,0,1,0-3.331,0,11.659,11.659,0,0,1-23.318,0,1.666,1.666,0,1,0-3.331,0,11.659,11.659,0,0,1-23.318,0,1.666,1.666,0,1,0-3.331,0,11.659,11.659,0,0,1-23.318,0,1.666,1.666,0,1,0-3.331,0A11.672,11.672,0,0,1,12.159,58.129c-.38,0-.763-.017-1.149-.053C5.117,57.51.5,52.163.5,45.9V33.566l9.794-18.195a1.674,1.674,0,0,0,.2-.789V6.5a5,5,0,0,1,5-5h99.934a5,5,0,0,1,5,5v8.085a1.674,1.674,0,0,0,.2.789l9.794,18.195V45.9c0,6.266-4.617,11.612-10.51,12.179C119.518,58.113,119.135,58.129,118.755,58.129Z" transform="translate(1.166 0.166)" fill="#66daac"/><path d="M116.59,4.331a3.337,3.337,0,0,1,3.331,3.331v8.085a3.354,3.354,0,0,0,.4,1.579l9.6,17.825V47.063c0,5.416-3.954,10.037-9,10.52-.333.03-.666.047-.993.047a10.006,10.006,0,0,1-9.993-9.993,3.331,3.331,0,0,0-6.662,0,9.993,9.993,0,0,1-19.987,0,3.331,3.331,0,1,0-6.662,0,9.993,9.993,0,0,1-19.987,0,3.331,3.331,0,1,0-6.662,0,9.993,9.993,0,1,1-19.987,0,3.331,3.331,0,0,0-6.662,0,10.006,10.006,0,0,1-9.993,9.993c-.326,0-.66-.017-.993-.047-5.047-.483-9-5.1-9-10.52V35.151l9.6-17.825a3.334,3.334,0,0,0,.4-1.579V7.662a3.337,3.337,0,0,1,3.331-3.331H116.59m0-3.331H16.656A6.66,6.66,0,0,0,9.993,7.662v8.085L0,34.311V47.063C0,54.022,5.087,60.238,12.015,60.9c.44.043.879.063,1.309.063A13.325,13.325,0,0,0,26.649,47.636a13.325,13.325,0,0,0,26.649,0,13.325,13.325,0,1,0,26.649,0,13.325,13.325,0,0,0,26.649,0A13.325,13.325,0,0,0,119.921,60.96c.433,0,.869-.02,1.309-.063,6.929-.66,12.015-6.875,12.015-13.834V34.311l-9.993-18.564V7.662A6.66,6.66,0,0,0,116.59,1Z" transform="translate(0 -1)" fill="#6b72ff"/></g><rect width="113.259" height="3.331" transform="translate(9.993 14.325)" fill="#4788c7"/><path d="M1.136,22.656H126.813L117.849,6H10.1Z" transform="translate(2.648 11.656)" fill="#dff0fe"/><rect width="133.246" height="3.331" transform="translate(0 34.311)" fill="#6b72ff"/></g></svg>