<?xml version="1.0" encoding="utf-8"?>
<!-- Generator: Adobe Illustrator 21.0.0, SVG Export Plug-In . SVG Version: 6.00 Build 0)  -->
<svg version="1.1" id="Camada_1" xmlns="http://www.w3.org/2000/svg" xmlns:xlink="http://www.w3.org/1999/xlink" x="0px" y="0px"
	 viewBox="0 0 1964.6 1056.1" style="enable-background:new 0 0 1964.6 1056.1;" xml:space="preserve">
<style type="text/css">
	.st0{opacity:0.56;}
	.st1{fill:#0277C5;}
	.st2{fill:#6B72FF;}
</style>
<g transform="translate(22.045 -3990.094)">
	<g transform="matrix(1, -0.017, 0.017, 1, -735.627, 4309.479)" class="st0">
		
			<rect x="692.4" y="-16" transform="matrix(-1 -4.604775e-04 4.604775e-04 -1 3386.6558 468.87)" class="st1" width="2002" height="500"/>
		<path class="st2" d="M692.5,483.6c0,0,131.5,142.8,636,113.7s603.4,12.3,719,74.3c111.4,59.7,269.1,106.5,648.2,79.2l-1.4-614.3
			L696.9,218.2L692.5,483.6z"/>
		<path class="st1" d="M2694.3-15.5c0,0-128.8-116.3-633.4-87.3s-603.5-12.3-719-74.3c-111.4-59.7-269.1-106.5-648.2-79.2l1.4,614.3
			l1997.5-81.7L2694.3-15.5z"/>
	</g>
	<g transform="translate(-731.727 4266.926)">
		<rect x="692.5" y="-16" class="st2" width="2002" height="500"/>
		<path class="st2" d="M692.5,484c0,0,131.4,142.7,636,113.4s603.4,12.1,718.9,74c111.3,59.7,269.1,106.4,648.2,78.9l-1.1-614.3
			L697,218.6L692.5,484z"/>
		<path class="st2" d="M2694.5-16c0,0-128.7-116.3-633.4-87s-603.5-12.1-718.9-74c-111.3-59.7-269.1-106.4-648.2-78.9l1.1,614.3
			l1997.5-82.6L2694.5-16z"/>
	</g>
</g>
</svg>
