<?xml version="1.0" encoding="utf-8"?>
<!-- Generator: Adobe Illustrator 19.0.0, SVG Export Plug-In . SVG Version: 6.00 Build 0)  -->
<svg version="1.1" id="Layer_1" xmlns="http://www.w3.org/2000/svg" xmlns:xlink="http://www.w3.org/1999/xlink" x="0px" y="0px"
	 viewBox="1 212.4 1921 857.6" style="enable-background:new 1 212.4 1921 857.6;" xml:space="preserve">
<style type="text/css">
	.st0{opacity:0.383;clip-path:url(#SVGID_2_);}
	.st1{fill:#D1EEFD;}
	.st2{opacity:0.55;}
</style>
<g>
	<g>
		<g>
			<g>
				<defs>
					
						<rect id="SVGID_1_" x="-1355" y="-902.4" transform="matrix(0.454 -0.891 0.891 0.454 206.8112 -610.8548)" width="1920" height="856.6"/>
				</defs>
				<clipPath id="SVGID_2_">
					<use xlink:href="#SVGID_1_"  style="overflow:visible;"/>
				</clipPath>
				<g transform="translate(926.813 607.737) rotate(159)" class="st0">
					<path class="st1" d="M2352-1144.6c0,0-137.9,28.5-129.8,161.2c8.1,132.7-35.6,158.1-99.7,187.7
						c-61.8,28.5-112.9,69.3-101.6,169.1l590.5,0v-517.9L2352-1144.6z"/>
					<path class="st1" d="M2221.9-996.8c0,0-25.7-215.9,440.3-192.2v606.7c0,0-693.5,162.4-641.5-93.2l235.7-23.8l120.4-8.6
						c0,0,49.9-202.9,51.6-209.8S2221.9-996.8,2221.9-996.8z"/>
				</g>
			</g>
		</g>
	</g>
</g>
<g transform="matrix(0.914, -0.407, 0.407, 0.914, -88.466, 274.556)" class="st2">
	<path class="st1" d="M92,34.8l-442.2,398.1l453.8,504.3c93.9-67,89.4-142.1,66.3-216.8c-24-77.4-35.8-134.3,83.6-229.3
		s37.8-234.7,37.8-234.7L92,34.8z"/>
	<path class="st1" d="M39,365.6c-4.6,6.8-139.5,205.3-139.5,205.3l85.1,109.4l160.9,219.6c-178.2,240.9-572.8-476.2-572.8-476.2
		L90.8-42.6c378.5,379.7,174.3,523.7,174.3,523.7S43.5,358.8,39,365.6z"/>
</g>
</svg>
