<?xml version="1.0" encoding="utf-8"?>
<!-- Generator: Adobe Illustrator 19.0.0, SVG Export Plug-In . SVG Version: 6.00 Build 0)  -->
<svg version="1.1" id="Layer_1" xmlns="http://www.w3.org/2000/svg" xmlns:xlink="http://www.w3.org/1999/xlink" x="0px" y="0px"
	 viewBox="-410.1 -33 1921 857.6" style="enable-background:new -410.1 -33 1921 857.6;" xml:space="preserve">
<style type="text/css">
	.st0{opacity:0.55;}
	.st1{fill:#D1EEFD;}
</style>
<g transform="matrix(0.914, -0.407, 0.407, 0.914, -88.466, 274.556)" class="st0">
	<path class="st1" d="M1296,421c0,0-137.9,28.5-129.8,161.2c8.1,132.7-35.6,158.1-99.7,187.7c-61.8,28.5-112.9,69.3-101.6,169.1
		h590.5V421H1296z"/>
	<path class="st1" d="M1165.9,568.8c0,0-25.7-215.9,440.3-192.2v606.7c0,0-693.5,162.4-641.5-93.2l235.7-23.8l120.4-8.6
		c0,0,49.9-202.9,51.6-209.8S1165.9,568.8,1165.9,568.8z"/>
</g>
</svg>
