<svg xmlns="http://www.w3.org/2000/svg" xmlns:xlink="http://www.w3.org/1999/xlink" width="113.855" height="88.823" viewBox="0 0 113.855 88.823"><defs><clipPath id="a"><path d="M59.032,72.358,34,57.536V29H84.063V57.536Z" transform="translate(-34 -29)" fill="none"/></clipPath></defs><g transform="translate(0.5 -13.5)"><rect width="53.639" height="32.184" transform="translate(58.215 68.639)" stroke-width="3" stroke="#6b72ff" stroke-linecap="round" stroke-linejoin="round" fill="none"/><path d="M59.373,36.25,33,51.895,59.426,68.434,86.639,51.895Z" transform="translate(25.215 16.745)" fill="#d0e7fc" stroke="#5592bc" stroke-linecap="round" stroke-linejoin="round" stroke-width="2"/><path d="M71.914,69.817a1.788,1.788,0,0,1-.894-.232L51.227,58.266a1.794,1.794,0,1,1,1.788-3.111L72.808,66.473a1.788,1.788,0,0,1-.894,3.344Z" transform="translate(38.868 31.453)" fill="#6b72ff"/><path d="M34.114,69.817a1.788,1.788,0,0,1-.894-3.344L53.03,55.155a1.794,1.794,0,1,1,1.788,3.111L35.008,69.584A1.788,1.788,0,0,1,34.114,69.817Z" transform="translate(24.674 31.453)" fill="#5592bc"/><g transform="translate(60.003 40.032)" clip-path="url(#a)"><path d="M80.487,56.568V49.237l-9.3-1.573c0-.161.232-.3.161-.465l6.079-8.153-5.1-5.167L64.217,39.8c-.143,0-.286.554-.429.5L62.25,31H54.919l-1.573,9.3c-.143,0-.3-.232-.447-.161l-8.171-6.1-5.185,5.1,5.918,8.117c0,.143-.787.286-.84.429L34,49.237v7.331l10.638,1.573c0,.161.447.3.5.465L39.364,66.76l5.364,5.167,8.189-5.918c.143,0,.322.787.483.84l1.52,10.638H62.25L63.77,67.26l7.366,5.006L76.3,66.9l-5.167-7.152c.268-.483-.143-1,0-1.538Zm-21.9,3.576a7.107,7.107,0,1,0,0-.089Z" transform="translate(-34 -27.424)" fill="#66daac"/><path d="M62.439,79.306H55.109a1.788,1.788,0,0,1-1.788-1.5l-1.252-7.545-6.1,4.488a1.788,1.788,0,0,1-2.324-.179L38.48,69.382a1.788,1.788,0,0,1-.179-2.306l4.488-6.1-7.527-1.2a1.788,1.788,0,0,1-1.5-1.788V50.609a1.788,1.788,0,0,1,1.5-1.788l7.527-1.2L38.3,41.472a1.788,1.788,0,0,1,.179-2.306L43.665,34a1.788,1.788,0,0,1,2.306-.179l6.1,4.47,1.2-7.527a1.788,1.788,0,0,1,1.788-1.5h7.384a1.788,1.788,0,0,1,1.788,1.5l1.2,7.527L71.612,33.8a1.788,1.788,0,0,1,2.306.179l5.149,5.185a1.788,1.788,0,0,1,.179,2.306l-4.488,6.186,7.527,1.2a1.788,1.788,0,0,1,1.5,1.788v7.295a1.788,1.788,0,0,1-1.5,1.788l-8.761,1.359,4.345,5.99a1.788,1.788,0,0,1-.179,2.306l-5.167,5.185a1.788,1.788,0,0,1-2.324.179L65.211,71.17l-1.055,6.687A1.788,1.788,0,0,1,62.439,79.306ZM56.646,75.73h4.273l1.269-8.046a1.788,1.788,0,0,1,2.825-1.162l6.115,4.434,3.022-3.022-4.2-5.882a1.788,1.788,0,0,1-.125-1.9,13.053,13.053,0,0,0,.644-1.305,1.788,1.788,0,0,1,1.377-1.109L80.3,56.4V52.146l-8.564-1.341a1.788,1.788,0,0,1-1.395-1.126,2.807,2.807,0,0,1,0-2.163L75.366,40.6l-3.022-3.022L65.425,42.6a1.788,1.788,0,0,1-1.788.2c-.572-.232-1.43-.93-1.538-1.538L60.759,32.8H56.646l-1.341,8.511A1.788,1.788,0,0,1,54.2,42.688a2.754,2.754,0,0,1-2.163,0l-6.919-5.024-3.022,3.022L47.1,47.6a1.788,1.788,0,0,1,.2,1.788c-.232.572-.93,1.43-1.538,1.538L37.3,52.271v4.273l8.457,1.341a1.788,1.788,0,0,1,1.395,1.126,2.807,2.807,0,0,1,0,2.163l-5.006,6.919,3.022,3.022,6.9-5.185a1.788,1.788,0,0,1,1.788-.2c.572.232,1.43.93,1.538,1.538Zm2.128-12.516a8.94,8.94,0,1,1,8.94-8.94,8.94,8.94,0,0,1-8.94,8.94Zm0-14.3a5.364,5.364,0,1,0,5.364,5.364,5.364,5.364,0,0,0-5.364-5.364Z" transform="translate(-34.189 -28.795)" fill="#6b72ff"/></g><path d="M60.441,63.908a1.788,1.788,0,0,1-.912-.25L32.87,47.566a1.78,1.78,0,0,1,1.824-3.057L60.441,60.1l25.64-15.43A1.78,1.78,0,0,1,87.9,47.727L61.353,63.658A1.788,1.788,0,0,1,60.441,63.908Z" transform="translate(24.433 23.058)" fill="#6b72ff"/><rect width="71.519" height="60.791" transform="translate(2.788 38.244)" fill="#fff"/><rect width="71.519" height="10.728" transform="translate(2.788 16.788)" fill="#d0e7fc"/><circle cx="1.788" cy="1.788" r="1.788" transform="translate(20.668 20.364)" fill="#5592bc"/><circle cx="1.788" cy="1.788" r="1.788" transform="translate(13.516 20.364)" fill="#5592bc"/><circle cx="1.788" cy="1.788" r="1.788" transform="translate(6.364 20.364)" fill="#6b72ff"/><rect width="71.519" height="10.728" transform="translate(2.788 27.516)" fill="#66daac"/><rect width="35.76" height="3.576" transform="translate(27.82 31.092)" fill="#fff"/><rect width="17.88" height="14.304" transform="translate(6.364 45.396)" fill="#d1eefd"/><rect width="17.88" height="14.304" transform="translate(52.851 45.396)" fill="#d1eefd"/><rect width="21.456" height="14.304" transform="translate(27.82 45.396)" fill="#d1eefd"/><path d="M19.5,45.88l10.263,3,10.263,3-9.78,4.72-4.72,9.78L22.5,56.143Z" transform="translate(14.578 24.333)" fill="#6b72ff"/><path d="M0,0H3.576V10.728H0Z" transform="translate(43.715 82.053) rotate(-45)" fill="#6b72ff"/><rect width="75.095" height="85.823" rx="1.91" transform="translate(1 15)" fill="none" stroke="#6b72ff" stroke-miterlimit="10" stroke-width="3"/><rect width="42.911" height="3.576" transform="translate(27.82 20.364)" fill="#5592bc"/><rect width="5.364" height="3.576" transform="translate(65.367 31.092)" fill="#5592bc"/><rect width="17.88" height="3.576" transform="translate(6.364 31.092)" fill="#5592bc"/><line x2="25.032" transform="translate(2.788 84.731)" stroke-width="2" stroke="#6b72ff" stroke-linecap="round" stroke-linejoin="round" fill="none"/><line y1="35.76" transform="translate(63.579 63.275)" fill="none" stroke="#6b72ff" stroke-linecap="round" stroke-miterlimit="10" stroke-width="2"/></g></svg>