<svg xmlns="http://www.w3.org/2000/svg" xmlns:xlink="http://www.w3.org/1999/xlink" width="798.328" height="583.039" viewBox="0 0 798.328 583.039"><defs><clipPath id="a"><path d="M643.129,365.143c-106.99-64.657-157.492-263.3-322.664-144.6s-96.681,362.584,61.6,421.564S743.989,667.773,801.3,558.205C899.219,370.979,714.9,408.516,643.129,365.143Z" transform="translate(-225.203 -183.473)" fill="none"/></clipPath></defs><g transform="translate(-184.741 -167.091)"><g transform="translate(185.19 167.091)"><path d="M643.129,365.143c-106.99-64.657-157.492-263.3-322.664-144.6s-96.681,362.584,61.6,421.564S743.989,667.773,801.3,558.205C899.219,370.979,714.9,408.516,643.129,365.143Z" transform="translate(-101.074 -132.652)" fill="#eaebfb"/><g transform="translate(124.129 50.821)"><g clip-path="url(#a)"><path d="M220.016,500.392s91.24-91.491,243.632-48.079,242.115,6.2,223.194-223.855c0,0,214.191,29.884,186.73,182.08C840.244,595.24,410.069,665.723,220.016,500.392Z" transform="translate(-236.106 -88.902)" fill="#dfe0f3"/></g></g><g transform="translate(89.739 72.465)"><path d="M432.242,204.36v89.221a13.918,13.918,0,0,1-13.938,13.91H228.055a13.918,13.918,0,0,1-13.938-13.91V204.36a13.918,13.918,0,0,1,13.938-13.91H418.3A13.918,13.918,0,0,1,432.242,204.36Z" transform="translate(-214.117 -190.45)" fill="#c7cbe8"/><path d="M432.242,204.36v7.721H214.117V204.36a13.918,13.918,0,0,1,13.938-13.91H418.3A13.918,13.918,0,0,1,432.242,204.36Z" transform="translate(-214.117 -190.45)" fill="#93b7fa"/><g transform="translate(9.371 8.922)"><circle cx="2.923" cy="2.923" r="2.923" transform="translate(0 0)" fill="#fff"/><path d="M226.753,196.248a2.922,2.922,0,1,1-2.922-2.922A2.922,2.922,0,0,1,226.753,196.248Z" transform="translate(-209.212 -193.326)" fill="#fff"/><path d="M230.524,196.248a2.922,2.922,0,1,1-2.922-2.922A2.924,2.924,0,0,1,230.524,196.248Z" transform="translate(-201.285 -193.326)" fill="#fff"/></g><path d="M.834,0h47.3a.834.834,0,0,1,.834.834V39.787a.834.834,0,0,1-.834.834H.835A.835.835,0,0,1,0,39.787V.834A.834.834,0,0,1,.834,0Z" transform="translate(27.06 34.565)" fill="#fff"/><g transform="translate(23.99 88.035)"><path d="M385.822,224.983H224.931a3.08,3.08,0,0,1-3.081-3.077h0a3.08,3.08,0,0,1,3.081-3.077H385.822a3.08,3.08,0,0,1,3.081,3.077h0A3.08,3.08,0,0,1,385.822,224.983Z" transform="translate(-221.85 -218.828)" fill="#fff"/></g><g transform="translate(87.275 64.79)"><path d="M342.936,217.493H245.327a3.08,3.08,0,0,1-3.077-3.081h0a3.077,3.077,0,0,1,3.077-3.077h97.609a3.08,3.08,0,0,1,3.081,3.077h0A3.082,3.082,0,0,1,342.936,217.493Z" transform="translate(-242.25 -211.335)" fill="#fff"/></g><g transform="translate(87.275 42.947)"><path d="M305.784,210.452H245.327a3.077,3.077,0,0,1-3.077-3.077h0a3.079,3.079,0,0,1,3.077-3.081h60.457a3.079,3.079,0,0,1,3.077,3.081h0A3.077,3.077,0,0,1,305.784,210.452Z" transform="translate(-242.25 -204.294)" fill="#fff"/></g></g><path d="M185.19,264.513a78.244,78.244,0,0,1,5.73-5.963c3.924-3.375,8.423-9.338,22.811-4.942a33.465,33.465,0,0,1,3.279,1.25c1.269.537,5.2.552,9.22-2.643,6.394-5.078,8.9-8.91,17.655-9.028,10.194-.14,11.8,12.567,19.718,15.821,5.044,2.069,18.344,4.126,21.1,5.044Z" transform="translate(-185.19 -7.12)" fill="none" stroke="#e8e9f9" stroke-linecap="round" stroke-linejoin="round" stroke-width="0.899"/><path d="M359.565,219.641a153.577,153.577,0,0,1,11.27-11.72c7.712-6.633,16.557-18.359,44.843-9.716a64.981,64.981,0,0,1,6.446,2.46c2.494,1.055,10.219,1.083,18.13-5.2,12.573-9.98,17.487-17.512,34.711-17.748,20.041-.27,23.192,24.709,38.769,31.106,9.912,4.067,36.061,8.112,41.471,9.915Z" transform="translate(181.389 -144.756)" fill="#e8e9f9"/><g transform="translate(185.387 145.393)"><path d="M317.124,218.1l-1.446-4.138-1.446,4.138a14.449,14.449,0,0,1-8.029,8.177h0a14.449,14.449,0,0,1,8.029,8.178l1.446,4.141,1.446-4.141a14.464,14.464,0,0,1,8.032-8.178h0A14.464,14.464,0,0,1,317.124,218.1Z" transform="translate(-116.176 -213.958)" fill="#fff"/><path d="M275.024,294.395l-1.446-4.142-1.446,4.142a14.464,14.464,0,0,1-8.032,8.177h0a14.455,14.455,0,0,1,8.032,8.177l1.446,4.138,1.446-4.138a14.446,14.446,0,0,1,8.032-8.177h0A14.454,14.454,0,0,1,275.024,294.395Z" transform="translate(-204.687 -53.567)" fill="#fff"/><path d="M398.73,285.4l-.953-2.73-.955,2.73a9.539,9.539,0,0,1-5.3,5.4h0a9.524,9.524,0,0,1,5.3,5.395l.955,2.73.953-2.73a9.533,9.533,0,0,1,5.3-5.395h0A9.547,9.547,0,0,1,398.73,285.4Z" transform="translate(63.185 -69.511)" fill="#fff"/><path d="M252.156,241.112l-.956-2.733-.952,2.733a9.543,9.543,0,0,1-5.3,5.395h0a9.543,9.543,0,0,1,5.3,5.395l.952,2.73.956-2.73a9.542,9.542,0,0,1,5.3-5.395h0A9.542,9.542,0,0,1,252.156,241.112Z" transform="translate(-244.949 -162.619)" fill="#fff"/></g><g transform="translate(402.532)"><path d="M414.434,167.091H323.889a8.933,8.933,0,0,0-8.944,8.928v48.919a8.933,8.933,0,0,0,8.944,8.928h4.874v22.383l22.383-22.383h63.289a8.934,8.934,0,0,0,8.944-8.928V176.019A8.934,8.934,0,0,0,414.434,167.091Z" transform="translate(-314.945 -167.091)" fill="#93b7fa"/><g transform="translate(18.669 47.92)"><path d="M323.944,182.538h21.362a2.986,2.986,0,0,1,2.984,2.984h0a2.983,2.983,0,0,1-2.984,2.981H323.944a2.98,2.98,0,0,1-2.981-2.981h0A2.983,2.983,0,0,1,323.944,182.538Z" transform="translate(-320.963 -182.538)" fill="#fff"/></g><g transform="translate(18.669 32.977)"><path d="M323.944,177.721h39.364a2.986,2.986,0,0,1,2.984,2.984h0a2.986,2.986,0,0,1-2.984,2.984H323.944a2.983,2.983,0,0,1-2.981-2.984h0A2.983,2.983,0,0,1,323.944,177.721Z" transform="translate(-320.963 -177.721)" fill="#fff"/></g><g transform="translate(18.669 18.452)"><path d="M323.944,173.039h67.672a2.986,2.986,0,0,1,2.984,2.984h0a2.986,2.986,0,0,1-2.984,2.984H323.944a2.983,2.983,0,0,1-2.981-2.984h0A2.983,2.983,0,0,1,323.944,173.039Z" transform="translate(-320.963 -173.039)" fill="#fff"/></g></g><g transform="translate(445.892 225.62)"><path d="M328.922,433.951H433.769a41.251,41.251,0,0,0,41-36.752l15.12-157.38H385.1l-2.141,91.253Z" transform="translate(-328.922 -239.819)" fill="#c5c9e6"/><path d="M328.922,433.951H433.769a41.251,41.251,0,0,0,41-36.752l15.12-157.38" transform="translate(-328.922 -239.819)" fill="none" stroke="#3d415b" stroke-linecap="round" stroke-linejoin="round" stroke-width="2.653"/><line y2="111.148" transform="translate(59.953 197.104)" fill="none" stroke="#3d415b" stroke-miterlimit="10" stroke-width="2.496"/></g><g transform="translate(187.657 118.431)"><rect width="337.984" height="5.257" transform="translate(337.984 205.421) rotate(180)" fill="#3d415b"/><path d="M354.885,345.946l3.589,12.858L341.011,364.1l-5.464-15.876Z" transform="translate(-56.761 90.475)" fill="#e3bc9a"/><path d="M307.792,342.938v10.324h15.463l1.726-10.324Z" transform="translate(-115.107 84.151)" fill="#e3bc9a"/><g transform="translate(187.219 93.449)"><g transform="translate(0 15.753)"><path d="M416.153,259.674,392.8,317.32l-.518,1.281a8.815,8.815,0,0,1-8.205,5.485l-66.5-.475a4.87,4.87,0,0,1-.67-9.688l65.808-9.608-8.724,6.766,15.719-60.18a13.961,13.961,0,0,1,27.014,7.058A15,15,0,0,1,416.153,259.674Z" transform="translate(-291.924 -240.468)" fill="#d8ac89"/><path d="M338.9,264.095l-22.708-.472c-5.615,0-10.166,5.069-10.166,11.323h33.163Z" transform="translate(-306.03 -191.79)" fill="#d8ac89"/></g><g transform="translate(87.462)"><path d="M334.223,277.363l36.361,8.879,5.966-32.406a15.7,15.7,0,0,0-13.377-18.278h0a15.982,15.982,0,0,0-17.323,10.178Z" transform="translate(-334.223 -235.39)" fill="#7c6ef2"/></g></g><path d="M433.133,269.234,321.1,326.089a29.306,29.306,0,0,0-16,27.852l8.438,143.941h17.19l23.192-154.011,87.22-61.241Z" transform="translate(-120.86 -70.793)" fill="#303348"/><path d="M360.93,207.116s31.131-10.585,47.489,18.9a29.569,29.569,0,0,0,3.257,4.855c3.323,3.924,10.247,11.149,17.885,13.492,30.3,9.294,49.471,66.586-10.839,71.687-75.471,6.378-96.9-8.5-86.106-38.589,7.7-21.458.825-36.69.825-36.69Z" transform="translate(-68.425 -205.267)" fill="#282c3c"/><path d="M369.483,230.648l-16.11,7.169a26.274,26.274,0,0,0-15.62,24.309c.248,21.151,5.047,73.669,22.916,93.765h54.463c8.435-37.208,3.577-94.392,3.577-94.392a26.933,26.933,0,0,0-23.7-27.784Z" transform="translate(-52.125 -151.91)" fill="#583bf5"/><g transform="translate(258.474 1.849)"><g transform="translate(10.252 17.985)"><path d="M359.292,267.453h0a10.432,10.432,0,0,1-11.55-9.037l-4.43-34.618,20.72-2.407,4.4,34.376A10.432,10.432,0,0,1,359.292,267.453Z" transform="translate(-309.161 -191.205)" fill="#ddb28d"/><path d="M0,0H51.261a0,0,0,0,1,0,0V47.5a8.128,8.128,0,0,1-8.128,8.128H8.128A8.128,8.128,0,0,1,0,47.5V0A0,0,0,0,1,0,0Z" transform="matrix(0.992, -0.129, 0.129, 0.992, 0, 6.635)" fill="#e3bc9a"/></g><path d="M395.666,242.429l-4.334,8.993s-5.776,5-7.414-7.573c-1.387-10.65-9.114-8.8-9.114-8.8s-26.487,20.04-42.048,6.288c-12.279-10.852,7.566-30.712,30.275-35.474l29.785,13.011Z" transform="translate(-328.999 -205.863)" fill="#282c3c"/><path d="M348.166,227.048a8.406,8.406,0,1,0,7.337-9.356A8.409,8.409,0,0,0,348.166,227.048Z" transform="translate(-288.836 -181.125)" fill="#e3bc9a"/><path d="M350.336,222.759a1.516,1.516,0,1,0,1.322-1.688A1.519,1.519,0,0,0,350.336,222.759Z" transform="translate(-284.166 -173.914)" fill="#fff"/><path d="M336.482,227.843l14.267-3.034s.689,6.2-7.126,7.315C337.456,233.008,336.482,227.843,336.482,227.843Z" transform="translate(-313.268 -166.034)" fill="#fff"/></g><path d="M466.466,271.02H412L324.87,323.665a23.887,23.887,0,0,0-9.511,30.064l66.884,152.007,19.339-2.277L365.633,356.775c30.169-1.272,86.193-5.832,100.832-22.147C491.24,307.015,466.466,271.02,466.466,271.02Z" transform="translate(-103.459 -67.038)" fill="#3d415b"/><g transform="translate(78.361 108.6)"><path d="M369.836,240.274l31.075,83.516h-101l-28.748-78.67a3.606,3.606,0,0,1,3.388-4.846Z" transform="translate(-270.94 -240.274)" fill="#93b7fa"/><path d="M302.819,240.274h4.833a6.2,6.2,0,0,1,5.817,4.055l29.3,79.461h-8.879Z" transform="translate(-203.923 -240.274)" fill="#a9c9fa"/><path d="M0,0H100.721a0,0,0,0,1,0,0V8.047a0,0,0,0,1,0,0H2.35A2.35,2.35,0,0,1,0,5.7V0A0,0,0,0,1,0,0Z" transform="translate(29.251 83.517)" fill="#82a7e7"/><path d="M312.836,275.242h62.33a4.023,4.023,0,0,0,4.024-4.024h0a4.025,4.025,0,0,0-4.024-4.024h-62.33Z" transform="translate(-182.865 -183.68)" fill="#8eb6ec"/><path d="M306.786,259.064c1.911,5.77-.394,11.727-5.15,13.3s-10.157-1.827-12.068-7.6.394-11.726,5.15-13.3S304.875,253.294,306.786,259.064Z" transform="translate(-233.191 -217.553)" fill="#ecf2f5"/></g><g transform="translate(229.691 91.337)"><g transform="translate(0 16.188)"><path d="M430.017,259.234l-23.4,58.75-.515,1.3a8.89,8.89,0,0,1-8.292,5.584l-66.512-.437a4.914,4.914,0,0,1-.686-9.775l65.792-9.741-8.807,6.881,15.679-61.266a14.09,14.09,0,0,1,27.3,6.986A15.73,15.73,0,0,1,430.017,259.234Z" transform="translate(-305.642 -239.927)" fill="#e3bc9a"/><path d="M352.6,263.946l-22.708-.478c-5.615,0-10.166,5.162-10.166,11.531h33.163Z" transform="translate(-319.721 -190.439)" fill="#e3bc9a"/></g><g transform="translate(87.462)"><path d="M347.914,277.464l36.361,9.043,5.966-33.011a15.953,15.953,0,0,0-13.377-18.617h0a15.951,15.951,0,0,0-17.323,10.368Z" transform="translate(-347.914 -234.709)" fill="#7c6ef2"/></g></g><path d="M355.918,349l-8.482,8.376-19.066,4.638a5.978,5.978,0,0,0-4.222,3.825l-.968,2.761a2.082,2.082,0,0,0,2.007,2.77l61.366-1.492a3.466,3.466,0,0,0,3.385-3.748L385.1,348.748l-9.273,2.218a11.387,11.387,0,0,1-9.319-.965l-3.3-1.92A6.047,6.047,0,0,0,355.918,349Z" transform="translate(-83.009 93.234)" fill="#29323d"/><path d="M327.529,345.115l-8.485,8.376-19.063,4.641a5.966,5.966,0,0,0-4.222,3.825l-.971,2.758a2.082,2.082,0,0,0,2.01,2.77l55.543-1.173a3.466,3.466,0,0,0,3.385-3.748l-1.44-17.76-6.85,2.277a11.388,11.388,0,0,1-9.319-.968l-3.3-1.92A6.047,6.047,0,0,0,327.529,345.115Z" transform="translate(-142.696 85.064)" fill="#29323d"/></g><g transform="translate(622.821 125.599)"><rect width="175.058" height="63.365" rx="3.086" transform="translate(175.058 63.365) rotate(180)" fill="#4747cc"/><g transform="translate(19.055 13.499)"><path d="M.973,0H37.326A.973.973,0,0,1,38.3.973V35.392a.974.974,0,0,1-.974.974H.974A.974.974,0,0,1,0,35.392V.973A.973.973,0,0,1,.973,0Z" transform="translate(136.948 36.366) rotate(180)" fill="#fff"/><g transform="translate(0 2.402)"><path d="M394.7,217.915H478a2.606,2.606,0,0,0,2.606-2.606h0A2.606,2.606,0,0,0,478,212.7H394.7a2.606,2.606,0,0,0-2.606,2.606h0A2.605,2.605,0,0,0,394.7,217.915Z" transform="translate(-392.097 -212.703)" fill="#fff"/><g transform="translate(0 13.174)"><rect width="34.287" height="5.216" rx="0.84" transform="translate(88.504 5.216) rotate(-180)" fill="#fff"/><rect width="39.967" height="5.216" rx="0.84" transform="translate(39.967 5.216) rotate(-180)" fill="#fff"/></g><path d="M401.425,226.412h62.439a2.608,2.608,0,0,0,2.606-2.609h0a2.606,2.606,0,0,0-2.606-2.606H401.425a2.606,2.606,0,0,0-2.606,2.606h0A2.608,2.608,0,0,0,401.425,226.412Z" transform="translate(-377.966 -194.847)" fill="#fff"/></g></g></g><g transform="translate(219.682 256.037)"><path d="M264.63,279.493s25.7.093,20.357-26.36C284.987,253.133,258.029,255.8,264.63,279.493Z" transform="translate(-240.057 -242.247)" fill="#93b7fa"/><path d="M277.354,279.257s-26.015.093-20.611-26.685C256.743,252.571,284.039,255.27,277.354,279.257Z" transform="translate(-256.004 -243.429)" fill="#93b7fa"/><path d="M268.352,285.542s-18.945-19.091,3.4-35.918C271.748,249.624,289.7,271.827,268.352,285.542Z" transform="translate(-245.807 -249.624)" fill="#82a7e7"/><path d="M298.146,260.481H256.571l6.62,28.864H291Z" transform="translate(-254.812 -226.801)" fill="#583bf5"/></g></g><line y2="203.585" transform="translate(530.819 490.943)" fill="none" stroke="#3d415b" stroke-miterlimit="10" stroke-width="2"/></g></svg>